<svg width="722" height="219" viewBox="0 0 722 219" fill="none" xmlns="http://www.w3.org/2000/svg">
<rect x="0.5" y="41.5" width="336" height="177" rx="15.5" fill="white"/>
<rect x="0.5" y="41.5" width="336" height="177" rx="15.5" stroke="#D8D8D8"/>
<rect x="24" y="103" width="289" height="54" rx="12" fill="#F2F5F8"/>
<path d="M54.704 123.088H56.16V137.248H54.704V123.088ZM45.072 129.12C45.072 126.08 46.576 124.176 48.688 124.176C50.784 124.176 52.304 126.08 52.304 129.12C52.304 132.144 50.784 134.08 48.688 134.08C46.576 134.08 45.072 132.144 45.072 129.12ZM46.48 129.12C46.48 131.36 47.392 132.768 48.688 132.768C49.984 132.768 50.896 131.36 50.896 129.12C50.896 126.88 49.984 125.488 48.688 125.488C47.392 125.488 46.48 126.88 46.48 129.12ZM58.4164 130.352H71.2004V131.536H58.4164V130.352ZM60.0324 124.576V123.456H69.5684V126.88H61.4884V128.112H69.8724V129.264H60.0644V125.808H68.1284V124.576H60.0324ZM60.1284 137.04V132.704H69.6004V137.04H60.1284ZM61.5524 135.872H68.1764V133.872H61.5524V135.872ZM78.6088 123.36C81.7448 123.36 83.6168 124.208 83.6168 125.776C83.6168 127.36 81.7448 128.224 78.6088 128.224C75.4888 128.224 73.6168 127.36 73.6168 125.776C73.6168 124.208 75.4888 123.36 78.6088 123.36ZM72.2408 130.272V129.104H84.9928V130.272H72.2408ZM73.7608 132.48V131.376H83.3768V134.656H75.2328V135.952H83.7928V137.088H73.8088V133.616H81.9368V132.48H73.7608ZM75.1208 125.776C75.1208 126.656 76.3848 127.12 78.6088 127.12C80.8488 127.12 82.1128 126.656 82.1128 125.776C82.1128 124.912 80.8488 124.432 78.6088 124.432C76.3848 124.432 75.1208 124.912 75.1208 125.776ZM99.7206 123.12H101.177V130.688H99.7206V123.12ZM89.8806 127.024C89.8806 125.104 91.4486 123.776 93.5926 123.776C95.7366 123.776 97.3046 125.104 97.3046 127.024C97.3046 128.96 95.7366 130.304 93.5926 130.304C91.4486 130.304 89.8806 128.96 89.8806 127.024ZM91.3046 127.024C91.3046 128.256 92.2646 129.072 93.5926 129.072C94.9206 129.072 95.8806 128.256 95.8806 127.024C95.8806 125.808 94.9206 124.976 93.5926 124.976C92.2646 124.976 91.3046 125.808 91.3046 127.024ZM92.0246 137.04V131.376H93.4806V132.976H99.7366V131.376H101.177V137.04H92.0246ZM93.4806 135.872H99.7366V134.128H93.4806V135.872ZM103.945 123.952H110.073V128.048H105.433V130.048C107.897 130.048 109.225 129.984 110.809 129.696L110.953 130.88C109.225 131.184 107.817 131.232 105.001 131.232H103.993V126.928H108.633V125.136H103.945V123.952ZM105.577 133.712V132.528H115.065V137.248H113.609V133.712H105.577ZM110.969 129.296V128.128H113.609V126.368H110.969V125.168H113.609V123.12H115.065V131.792H113.609V129.296H110.969ZM117.209 125.456H119.977V123.504H121.417V125.456H124.153V126.64H117.209V125.456ZM117.657 130.752C117.657 128.864 118.921 127.52 120.697 127.52C122.457 127.52 123.737 128.864 123.737 130.752C123.737 132.688 122.457 134.016 120.697 134.016C118.921 134.016 117.657 132.688 117.657 130.752ZM118.953 130.752C118.953 131.968 119.673 132.784 120.697 132.784C121.705 132.784 122.441 131.968 122.441 130.752C122.441 129.552 121.705 128.736 120.697 128.736C119.673 128.736 118.953 129.552 118.953 130.752ZM124.809 136.544V123.424H126.185V129.008H127.817V123.104H129.209V137.216H127.817V130.208H126.185V136.544H124.809ZM134.593 131.104H147.361V132.304H141.665V137.232H140.225V132.304H134.593V131.104ZM135.329 128.832C137.921 128.48 140.129 126.88 140.161 125.136H135.777V123.968H146.145V125.136H141.793C141.825 126.88 144.033 128.48 146.625 128.832L146.081 130.016C143.825 129.648 141.841 128.496 140.977 126.88C140.113 128.496 138.129 129.648 135.873 130.016L135.329 128.832ZM153.97 128.096H156.162V123.408H157.522V136.528H156.162V129.296H153.97V128.096ZM148.226 133.152C150.194 131.968 151.25 129.44 151.25 127.024V124.432H152.658V126.976C152.658 129.248 153.618 131.632 155.49 132.8L154.658 133.936C153.362 133.136 152.466 131.712 151.97 130.064C151.458 131.856 150.482 133.392 149.122 134.24L148.226 133.152ZM159.026 137.216V123.104H160.434V137.216H159.026ZM162.242 134.24H165.314V130.512C164.162 129.888 163.458 128.88 163.458 127.616C163.458 125.392 165.634 123.952 168.61 123.952C171.634 123.952 173.778 125.392 173.778 127.616C173.778 128.864 173.106 129.856 171.97 130.496V134.24H175.026V135.44H162.242V134.24ZM164.882 127.616C164.882 129.152 166.434 130.128 168.61 130.128C170.802 130.128 172.354 129.152 172.354 127.616C172.354 126.08 170.802 125.104 168.61 125.104C166.434 125.104 164.882 126.08 164.882 127.616ZM166.754 134.24H170.498V131.056C169.922 131.2 169.282 131.264 168.61 131.264C167.954 131.264 167.33 131.2 166.754 131.056V134.24ZM177.298 134.512C177.826 134.512 178.178 134.864 178.178 135.392C178.178 135.92 177.826 136.288 177.298 136.288C176.77 136.288 176.402 135.92 176.402 135.392C176.402 134.864 176.77 134.512 177.298 134.512Z" fill="#B1BAC5"/>
<rect x="385.5" y="41.5" width="336" height="177" rx="15.5" fill="white"/>
<rect x="385.5" y="41.5" width="336" height="177" rx="15.5" stroke="#D8D8D8"/>
<path d="M432.816 87.56H435.408V108.968H432.816V87.56ZM418.488 96.656C418.488 92.048 420.792 89.12 424.008 89.12C427.224 89.12 429.528 92.048 429.528 96.656C429.528 101.288 427.224 104.24 424.008 104.24C420.792 104.24 418.488 101.288 418.488 96.656ZM420.984 96.656C420.984 99.968 422.208 101.888 424.008 101.888C425.808 101.888 427.056 99.968 427.056 96.656C427.056 93.392 425.808 91.472 424.008 91.472C422.208 91.472 420.984 93.392 420.984 96.656ZM438.553 98.456H457.873V100.52H438.553V98.456ZM440.977 90.032V88.064H455.473V93.464H443.545V95.024H455.905V97.016H441.001V91.592H452.929V90.032H440.977ZM441.073 108.656V102.08H455.545V108.656H441.073ZM443.593 106.616H453.001V104.096H443.593V106.616Z" fill="#2E3438"/>
<rect x="417" y="139" width="273" height="54" rx="12" fill="#F2F5F8"/>
<path d="M444.184 167.392C444.056 166.208 443.464 164.976 441.864 164.976C440.52 164.976 439.48 166 439.288 167.408L444.184 167.392ZM437.896 167.936C437.896 165.488 439.512 163.776 441.816 163.776C444.392 163.776 445.144 165.84 445.224 166.016C445.704 167.264 445.528 168.464 445.528 168.544H439.288C439.496 169.936 440.568 170.896 441.832 170.896C443.56 170.896 444.088 169.84 444.168 169.712L445.288 170.288C445.288 170.288 444.536 172.096 441.816 172.096C439.512 172.096 437.896 170.384 437.896 167.936ZM454.211 163.792L451.107 167.936L454.195 172.064H452.451L450.323 169.12L448.227 172.064H446.467L449.523 167.936L446.435 163.792H448.211L450.323 166.784L452.451 163.792H454.211ZM456.629 170.512C457.157 170.512 457.509 170.864 457.509 171.392C457.509 171.92 457.157 172.288 456.629 172.288C456.101 172.288 455.733 171.92 455.733 171.392C455.733 170.864 456.101 170.512 456.629 170.512ZM470.453 160C470.453 163.616 467.925 166.16 463.765 167.264L463.205 166.096C466.581 165.216 468.629 163.424 468.885 161.168H463.957V160H470.453ZM465.493 173.024V167.712H474.661V173.024H465.493ZM466.933 171.856H473.237V168.88H466.933V171.856ZM473.205 167.04V159.104H474.661V167.04H473.205ZM477.445 160.24H485.157V161.424H482.069V162.048C482.069 163.904 483.429 165.616 485.573 166.32L484.821 167.472C483.205 166.928 481.973 165.792 481.349 164.352C480.725 165.904 479.493 167.136 477.797 167.728L477.045 166.592C479.221 165.824 480.581 164 480.581 162.048V161.424H477.445V160.24ZM479.365 172.928V168.448H480.805V171.728H488.917V172.928H479.365ZM487.029 169.424V159.12H488.501V169.424H487.029ZM490.726 165.92H503.478V167.088H497.814V168.672H501.91V173.232H500.454V169.84H492.15V168.672H496.358V167.088H490.726V165.92ZM492.102 162.176C492.102 160.464 494.054 159.44 497.094 159.44C500.15 159.44 502.102 160.464 502.102 162.176C502.102 163.888 500.15 164.912 497.094 164.912C494.054 164.912 492.102 163.888 492.102 162.176ZM493.606 162.176C493.606 163.184 494.934 163.744 497.094 163.744C499.27 163.744 500.598 163.184 500.598 162.176C500.598 161.168 499.27 160.592 497.094 160.592C494.934 160.592 493.606 161.168 493.606 162.176Z" fill="#B1BAC5"/>
<path d="M35.3402 6.672L42.4682 24H40.5962L38.5562 19.008H30.1562L28.0682 24H26.1962L33.4202 6.672H35.3402ZM30.7802 17.472H37.9082L34.3802 8.88L30.7802 17.472ZM46.8917 21.912C47.5877 21.912 48.0677 22.392 48.0677 23.088C48.0677 23.808 47.5877 24.312 46.8917 24.312C46.1717 24.312 45.6677 23.808 45.6677 23.088C45.6677 22.392 46.1717 21.912 46.8917 21.912Z" fill="black"/>
<path d="M420.132 24V6.672H426.588C429.372 6.672 431.34 8.616 431.34 11.376C431.34 12.504 430.692 13.848 429.732 14.736L430.164 14.976C431.508 15.864 432.468 17.592 432.468 19.176C432.468 22.008 430.5 24 427.692 24H420.132ZM421.86 22.464H427.716C429.516 22.464 430.788 21.12 430.788 19.224C430.788 17.208 429.516 15.792 427.716 15.792H421.86V22.464ZM421.86 14.256H427.02C428.58 14.184 429.684 12.984 429.684 11.328C429.684 9.504 428.412 8.208 426.612 8.208H421.86V14.256ZM436.364 21.912C437.06 21.912 437.54 22.392 437.54 23.088C437.54 23.808 437.06 24.312 436.364 24.312C435.644 24.312 435.14 23.808 435.14 23.088C435.14 22.392 435.644 21.912 436.364 21.912Z" fill="black"/>
</svg>
