<svg width="722" height="219" viewBox="0 0 722 219" fill="none" xmlns="http://www.w3.org/2000/svg">
<rect x="0.5" y="41.5" width="336" height="177" rx="15.5" fill="white"/>
<rect x="0.5" y="41.5" width="336" height="177" rx="15.5" stroke="#D8D8D8"/>
<rect x="24" y="82" width="289" height="96" rx="12" fill="#42464A"/>
<path d="M61.141 109.179V124.462H59.033V109.179H61.141ZM49.462 110.556H56.789V112.256H51.536V119.056C53.0093 119.045 54.205 119.011 55.123 118.954C56.041 118.897 56.9477 118.778 57.843 118.597L58.03 120.331C57.0553 120.535 56.0467 120.665 55.004 120.722C53.9727 120.779 52.556 120.807 50.754 120.807H49.462V110.556ZM71.4264 110.556V120.773H64.1504V110.556H71.4264ZM69.3694 119.107V112.222H66.2244V119.107H69.3694ZM73.8914 109.162H75.9994V124.445H73.8914V109.162ZM90.6708 110.488V111.967C90.6708 113.27 90.6368 114.449 90.5688 115.503C90.5121 116.557 90.3535 117.798 90.0928 119.226L87.9678 119.005C88.2285 117.713 88.3928 116.557 88.4608 115.537C88.5288 114.506 88.5628 113.389 88.5628 112.188H79.6548V110.488H90.6708ZM78.2608 120.824H83.1738V115.588H85.2818V120.824H92.0308V122.558H78.2608V120.824ZM98.2612 123.136L103.072 112.358L97.5132 112.375V110.59H105.146L105.316 112.358L100.505 123.136H98.2612ZM119.333 109.179V118.019H117.242V117.526H114.522V116.251H117.242V109.179H119.333ZM106.566 114.585C108.527 114.585 110.283 114.568 111.836 114.534C113.389 114.489 114.885 114.392 116.324 114.245L116.426 115.554C115.157 115.735 113.808 115.86 112.38 115.928V118.036H110.272V116.013C109.456 116.024 108.294 116.03 106.787 116.03L106.566 114.585ZM107.603 111.695C107.603 111.004 107.949 110.454 108.64 110.046C109.343 109.627 110.261 109.417 111.394 109.417C112.539 109.417 113.457 109.627 114.148 110.046C114.851 110.454 115.202 111.004 115.202 111.695C115.202 112.386 114.851 112.942 114.148 113.361C113.457 113.769 112.539 113.973 111.394 113.973C110.261 113.973 109.343 113.769 108.64 113.361C107.949 112.942 107.603 112.386 107.603 111.695ZM108.742 118.495H119.333V122.014H110.85V122.847H119.724V124.309H108.759V120.688H117.259V119.923H108.742V118.495ZM109.558 111.695C109.558 111.99 109.722 112.216 110.051 112.375C110.38 112.522 110.827 112.596 111.394 112.596C111.972 112.596 112.425 112.522 112.754 112.375C113.083 112.216 113.247 111.99 113.247 111.695C113.247 111.412 113.083 111.191 112.754 111.032C112.425 110.873 111.972 110.794 111.394 110.794C110.827 110.794 110.38 110.873 110.051 111.032C109.722 111.191 109.558 111.412 109.558 111.695ZM129.065 117.866V119.498H135.372V117.866H137.463V124.275H126.991V117.866H129.065ZM125.359 115.163H135.083C135.321 114.007 135.44 112.783 135.44 111.491H127.059V109.808H137.497V111.015C137.497 111.82 137.475 112.522 137.429 113.123C137.395 113.724 137.305 114.404 137.157 115.163H139.146V116.863H125.359V115.163ZM135.372 122.575V121.113H129.065V122.575H135.372ZM145.93 109.893V111.338C145.93 112.358 146.23 113.282 146.831 114.109C147.443 114.925 148.332 115.514 149.5 115.877L148.48 117.526C147.641 117.254 146.921 116.857 146.321 116.336C145.72 115.815 145.244 115.197 144.893 114.483C144.53 115.265 144.037 115.939 143.414 116.506C142.802 117.073 142.059 117.498 141.187 117.781L140.15 116.115C141.351 115.73 142.258 115.101 142.87 114.228C143.482 113.355 143.788 112.392 143.788 111.338V109.893H145.93ZM142.462 118.954H152.832V124.428H150.707V120.637H142.462V118.954ZM150.707 109.196H152.832V118.274H150.707V109.196ZM170.945 109.179V113.565H173.002V115.299H170.945V120.28H168.837V109.179H170.945ZM159.113 114.041C159.113 113.304 159.295 112.641 159.657 112.052C160.02 111.463 160.513 111.004 161.136 110.675C161.76 110.335 162.457 110.165 163.227 110.165C163.998 110.165 164.695 110.335 165.318 110.675C165.942 111.004 166.435 111.463 166.797 112.052C167.16 112.641 167.341 113.304 167.341 114.041C167.341 114.766 167.16 115.424 166.797 116.013C166.435 116.602 165.942 117.067 165.318 117.407C164.695 117.736 163.998 117.9 163.227 117.9C162.457 117.9 161.76 117.736 161.136 117.407C160.513 117.067 160.02 116.602 159.657 116.013C159.295 115.424 159.113 114.766 159.113 114.041ZM161.153 114.041C161.153 114.653 161.352 115.146 161.748 115.52C162.145 115.883 162.638 116.064 163.227 116.064C163.828 116.064 164.321 115.883 164.706 115.52C165.103 115.146 165.301 114.653 165.301 114.041C165.301 113.418 165.103 112.925 164.706 112.562C164.321 112.188 163.828 112.001 163.227 112.001C162.638 112.001 162.145 112.188 161.748 112.562C161.352 112.925 161.153 113.418 161.153 114.041ZM161.17 119.124H163.278V122.456H171.523V124.139H161.17V119.124ZM186.858 109.179V124.411H184.852V116.795H183.407V123.68H181.452V109.468H183.407V115.095H184.852V109.179H186.858ZM174.448 110.896H176.539V118.869C177.989 118.824 179.338 118.682 180.585 118.444L180.789 120.246C179.225 120.541 177.462 120.688 175.502 120.688H174.448V110.896Z" fill="#9099A6"/>
<path d="M246.79 120.852C247.247 120.852 247.653 120.689 248.008 120.362C248.372 120.035 248.652 119.578 248.848 118.99C249.044 118.393 249.142 117.711 249.142 116.946C249.142 116.171 249.044 115.49 248.848 114.902C248.652 114.314 248.376 113.857 248.022 113.53C247.667 113.203 247.256 113.04 246.79 113.04C246.323 113.04 245.908 113.203 245.544 113.53C245.189 113.857 244.914 114.314 244.718 114.902C244.522 115.49 244.424 116.171 244.424 116.946C244.424 117.711 244.522 118.393 244.718 118.99C244.914 119.578 245.189 120.035 245.544 120.362C245.908 120.689 246.323 120.852 246.79 120.852ZM242.968 116.946C242.968 115.947 243.131 115.056 243.458 114.272C243.784 113.479 244.237 112.863 244.816 112.424C245.394 111.976 246.052 111.752 246.79 111.752C247.527 111.752 248.185 111.976 248.764 112.424C249.342 112.863 249.79 113.479 250.108 114.272C250.434 115.056 250.598 115.947 250.598 116.946C250.598 117.945 250.434 118.841 250.108 119.634C249.79 120.418 249.342 121.029 248.764 121.468C248.185 121.907 247.527 122.126 246.79 122.126C246.052 122.126 245.394 121.907 244.816 121.468C244.237 121.029 243.784 120.418 243.458 119.634C243.131 118.841 242.968 117.945 242.968 116.946ZM255.355 120.866C255.961 120.866 256.456 120.67 256.839 120.278C257.231 119.886 257.427 119.377 257.427 118.752C257.427 118.127 257.231 117.618 256.839 117.226C256.456 116.825 255.961 116.624 255.355 116.624C254.757 116.624 254.267 116.825 253.885 117.226C253.502 117.618 253.311 118.127 253.311 118.752C253.311 119.377 253.502 119.886 253.885 120.278C254.267 120.67 254.757 120.866 255.355 120.866ZM251.855 118.752C251.855 118.136 252.041 117.492 252.415 116.82L255.229 111.836H256.895L254.851 115.406C255.009 115.369 255.196 115.35 255.411 115.35C256.083 115.35 256.68 115.499 257.203 115.798C257.735 116.087 258.145 116.489 258.435 117.002C258.733 117.515 258.883 118.099 258.883 118.752C258.883 119.405 258.733 119.989 258.435 120.502C258.136 121.015 257.721 121.417 257.189 121.706C256.657 121.995 256.05 122.14 255.369 122.14C254.687 122.14 254.081 121.995 253.549 121.706C253.017 121.417 252.601 121.015 252.303 120.502C252.004 119.989 251.855 119.405 251.855 118.752ZM264.85 122.784H263.394L266.39 111.192H267.832L264.85 122.784ZM278.013 116.778C278.461 117.039 278.815 117.394 279.077 117.842C279.347 118.281 279.483 118.719 279.483 119.158C279.483 119.727 279.338 120.236 279.049 120.684C278.759 121.132 278.353 121.482 277.831 121.734C277.308 121.986 276.715 122.112 276.053 122.112C275.39 122.112 274.797 121.986 274.275 121.734C273.752 121.473 273.341 121.113 273.043 120.656C272.753 120.189 272.609 119.662 272.609 119.074H274.065C274.065 119.587 274.251 120.007 274.625 120.334C274.998 120.661 275.474 120.824 276.053 120.824C276.65 120.824 277.135 120.665 277.509 120.348C277.882 120.021 278.069 119.601 278.069 119.088C278.069 118.584 277.882 118.173 277.509 117.856C277.135 117.539 276.659 117.38 276.081 117.38H275.353V116.162H276.081C276.622 116.162 277.065 116.017 277.411 115.728C277.756 115.439 277.929 115.065 277.929 114.608C277.929 114.151 277.761 113.782 277.425 113.502C277.089 113.213 276.659 113.068 276.137 113.068C275.623 113.068 275.199 113.213 274.863 113.502C274.536 113.791 274.373 114.165 274.373 114.622H272.917C272.917 114.071 273.052 113.581 273.323 113.152C273.603 112.713 273.985 112.377 274.471 112.144C274.956 111.901 275.511 111.78 276.137 111.78C276.753 111.78 277.303 111.897 277.789 112.13C278.283 112.363 278.666 112.69 278.937 113.11C279.207 113.53 279.343 114.006 279.343 114.538C279.343 114.939 279.221 115.35 278.979 115.77C278.736 116.181 278.414 116.517 278.013 116.778ZM284.565 120.852C285.022 120.852 285.428 120.689 285.783 120.362C286.147 120.035 286.427 119.578 286.623 118.99C286.819 118.393 286.917 117.711 286.917 116.946C286.917 116.171 286.819 115.49 286.623 114.902C286.427 114.314 286.152 113.857 285.797 113.53C285.442 113.203 285.032 113.04 284.565 113.04C284.098 113.04 283.683 113.203 283.319 113.53C282.964 113.857 282.689 114.314 282.493 114.902C282.297 115.49 282.199 116.171 282.199 116.946C282.199 117.711 282.297 118.393 282.493 118.99C282.689 119.578 282.964 120.035 283.319 120.362C283.683 120.689 284.098 120.852 284.565 120.852ZM280.743 116.946C280.743 115.947 280.906 115.056 281.233 114.272C281.56 113.479 282.012 112.863 282.591 112.424C283.17 111.976 283.828 111.752 284.565 111.752C285.302 111.752 285.96 111.976 286.539 112.424C287.118 112.863 287.566 113.479 287.883 114.272C288.21 115.056 288.373 115.947 288.373 116.946C288.373 117.945 288.21 118.841 287.883 119.634C287.566 120.418 287.118 121.029 286.539 121.468C285.96 121.907 285.302 122.126 284.565 122.126C283.828 122.126 283.17 121.907 282.591 121.468C282.012 121.029 281.56 120.418 281.233 119.634C280.906 118.841 280.743 117.945 280.743 116.946Z" fill="#787F8A"/>
<path d="M53.76 142.264V143.308H50.208V148.312C51.112 148.304 51.876 148.28 52.5 148.24C53.124 148.192 53.752 148.112 54.384 148L54.516 149.044C53.804 149.172 53.096 149.26 52.392 149.308C51.688 149.356 50.812 149.38 49.764 149.38H48.924V142.264H53.76ZM53.208 145.06H56.004V141.292H57.288V151.984H56.004V146.104H53.208V145.06ZM70.0139 141.292V143.452H71.4899V144.508H70.0139V146.656H68.7179V141.292H70.0139ZM61.7939 144.028C61.7939 143.564 61.9139 143.152 62.1539 142.792C62.4019 142.424 62.7379 142.14 63.1619 141.94C63.5859 141.732 64.0619 141.628 64.5899 141.628C65.1259 141.628 65.6059 141.732 66.0299 141.94C66.4619 142.14 66.7979 142.424 67.0379 142.792C67.2859 143.152 67.4099 143.564 67.4099 144.028C67.4099 144.492 67.2859 144.908 67.0379 145.276C66.7979 145.636 66.4619 145.92 66.0299 146.128C65.6059 146.328 65.1259 146.428 64.5899 146.428C64.0619 146.428 63.5859 146.328 63.1619 146.128C62.7379 145.92 62.4019 145.636 62.1539 145.276C61.9139 144.908 61.7939 144.492 61.7939 144.028ZM63.0419 144.028C63.0419 144.436 63.1859 144.768 63.4739 145.024C63.7699 145.272 64.1419 145.396 64.5899 145.396C65.0459 145.396 65.4179 145.272 65.7059 145.024C66.0019 144.768 66.1499 144.436 66.1499 144.028C66.1499 143.62 66.0019 143.292 65.7059 143.044C65.4179 142.796 65.0459 142.672 64.5899 142.672C64.1419 142.672 63.7699 142.8 63.4739 143.056C63.1859 143.304 63.0419 143.628 63.0419 144.028ZM63.0899 147.112H70.0139V149.908H64.3859V150.808H70.3499V151.828H63.1139V148.96H68.7299V148.12H63.0899V147.112ZM75.0062 142.06C75.5342 142.06 76.0062 142.216 76.4222 142.528C76.8382 142.832 77.1622 143.272 77.3942 143.848C77.6342 144.416 77.7542 145.076 77.7542 145.828C77.7542 146.588 77.6342 147.256 77.3942 147.832C77.1622 148.4 76.8382 148.84 76.4222 149.152C76.0062 149.464 75.5342 149.62 75.0062 149.62C74.4782 149.62 74.0022 149.464 73.5782 149.152C73.1622 148.84 72.8342 148.4 72.5942 147.832C72.3622 147.256 72.2462 146.588 72.2462 145.828C72.2462 145.076 72.3622 144.416 72.5942 143.848C72.8342 143.272 73.1622 142.832 73.5782 142.528C74.0022 142.216 74.4782 142.06 75.0062 142.06ZM73.4942 145.828C73.4942 146.644 73.6302 147.284 73.9022 147.748C74.1822 148.212 74.5502 148.444 75.0062 148.444C75.4622 148.444 75.8262 148.212 76.0982 147.748C76.3782 147.284 76.5182 146.644 76.5182 145.828C76.5182 145.02 76.3782 144.388 76.0982 143.932C75.8262 143.468 75.4622 143.236 75.0062 143.236C74.5502 143.236 74.1822 143.468 73.9022 143.932C73.6302 144.388 73.4942 145.02 73.4942 145.828ZM79.1582 141.292H80.4542V145.42H82.0742V146.488H80.4542V151.96H79.1582V141.292ZM86.8145 149.608V147.496H83.7185V142H84.9905V143.752H89.9345V142H91.2065V147.496H88.0985V149.608H92.2985V150.664H82.6385V149.608H86.8145ZM89.9345 146.476V144.772H84.9905V146.476H89.9345ZM101.947 141.292V151.96H100.651V141.292H101.947ZM93.1868 149.056C94.5548 148.392 95.5828 147.604 96.2708 146.692C96.9588 145.772 97.3588 144.688 97.4708 143.44H93.7268V142.408H98.7908C98.7908 144.112 98.4108 145.604 97.6508 146.884C96.8908 148.156 95.6308 149.22 93.8708 150.076L93.1868 149.056Z" fill="#787F8A"/>
<path d="M109.808 149.805C109.565 149.56 109.566 149.165 109.81 148.922L112.09 146.641C112.168 146.563 112.168 146.437 112.091 146.359L109.809 144.072C109.566 143.829 109.566 143.434 109.81 143.191V143.191C110.053 142.947 110.448 142.947 110.691 143.191L113.293 145.793C113.684 146.183 113.684 146.817 113.293 147.207L110.694 149.806C110.449 150.051 110.052 150.05 109.808 149.805V149.805Z" fill="#787F8A"/>
<rect x="385.5" y="41.5" width="336" height="177" rx="15.5" fill="white"/>
<rect x="385.5" y="41.5" width="336" height="177" rx="15.5" stroke="#D8D8D8"/>
<rect x="409" y="82" width="289" height="96" rx="12" fill="#42464A"/>
<path d="M446.141 109.179V124.462H444.033V109.179H446.141ZM434.462 110.556H441.789V112.256H436.536V119.056C438.009 119.045 439.205 119.011 440.123 118.954C441.041 118.897 441.948 118.778 442.843 118.597L443.03 120.331C442.055 120.535 441.047 120.665 440.004 120.722C438.973 120.779 437.556 120.807 435.754 120.807H434.462V110.556ZM456.426 110.556V120.773H449.15V110.556H456.426ZM454.369 119.107V112.222H451.224V119.107H454.369ZM458.891 109.162H460.999V124.445H458.891V109.162ZM475.671 110.488V111.967C475.671 113.27 475.637 114.449 475.569 115.503C475.512 116.557 475.353 117.798 475.093 119.226L472.968 119.005C473.228 117.713 473.393 116.557 473.461 115.537C473.529 114.506 473.563 113.389 473.563 112.188H464.655V110.488H475.671ZM463.261 120.824H468.174V115.588H470.282V120.824H477.031V122.558H463.261V120.824ZM483.261 123.136L488.072 112.358L482.513 112.375V110.59H490.146L490.316 112.358L485.505 123.136H483.261ZM504.333 109.179V118.019H502.242V117.526H499.522V116.251H502.242V109.179H504.333ZM491.566 114.585C493.527 114.585 495.283 114.568 496.836 114.534C498.389 114.489 499.885 114.392 501.324 114.245L501.426 115.554C500.157 115.735 498.808 115.86 497.38 115.928V118.036H495.272V116.013C494.456 116.024 493.294 116.03 491.787 116.03L491.566 114.585ZM492.603 111.695C492.603 111.004 492.949 110.454 493.64 110.046C494.343 109.627 495.261 109.417 496.394 109.417C497.539 109.417 498.457 109.627 499.148 110.046C499.851 110.454 500.202 111.004 500.202 111.695C500.202 112.386 499.851 112.942 499.148 113.361C498.457 113.769 497.539 113.973 496.394 113.973C495.261 113.973 494.343 113.769 493.64 113.361C492.949 112.942 492.603 112.386 492.603 111.695ZM493.742 118.495H504.333V122.014H495.85V122.847H504.724V124.309H493.759V120.688H502.259V119.923H493.742V118.495ZM494.558 111.695C494.558 111.99 494.722 112.216 495.051 112.375C495.38 112.522 495.827 112.596 496.394 112.596C496.972 112.596 497.425 112.522 497.754 112.375C498.083 112.216 498.247 111.99 498.247 111.695C498.247 111.412 498.083 111.191 497.754 111.032C497.425 110.873 496.972 110.794 496.394 110.794C495.827 110.794 495.38 110.873 495.051 111.032C494.722 111.191 494.558 111.412 494.558 111.695ZM514.065 117.866V119.498H520.372V117.866H522.463V124.275H511.991V117.866H514.065ZM510.359 115.163H520.083C520.321 114.007 520.44 112.783 520.44 111.491H512.059V109.808H522.497V111.015C522.497 111.82 522.475 112.522 522.429 113.123C522.395 113.724 522.305 114.404 522.157 115.163H524.146V116.863H510.359V115.163ZM520.372 122.575V121.113H514.065V122.575H520.372ZM530.93 109.893V111.338C530.93 112.358 531.23 113.282 531.831 114.109C532.443 114.925 533.332 115.514 534.5 115.877L533.48 117.526C532.641 117.254 531.921 116.857 531.321 116.336C530.72 115.815 530.244 115.197 529.893 114.483C529.53 115.265 529.037 115.939 528.414 116.506C527.802 117.073 527.059 117.498 526.187 117.781L525.15 116.115C526.351 115.73 527.258 115.101 527.87 114.228C528.482 113.355 528.788 112.392 528.788 111.338V109.893H530.93ZM527.462 118.954H537.832V124.428H535.707V120.637H527.462V118.954ZM535.707 109.196H537.832V118.274H535.707V109.196ZM555.945 109.179V113.565H558.002V115.299H555.945V120.28H553.837V109.179H555.945ZM544.113 114.041C544.113 113.304 544.295 112.641 544.657 112.052C545.02 111.463 545.513 111.004 546.136 110.675C546.76 110.335 547.457 110.165 548.227 110.165C548.998 110.165 549.695 110.335 550.318 110.675C550.942 111.004 551.435 111.463 551.797 112.052C552.16 112.641 552.341 113.304 552.341 114.041C552.341 114.766 552.16 115.424 551.797 116.013C551.435 116.602 550.942 117.067 550.318 117.407C549.695 117.736 548.998 117.9 548.227 117.9C547.457 117.9 546.76 117.736 546.136 117.407C545.513 117.067 545.02 116.602 544.657 116.013C544.295 115.424 544.113 114.766 544.113 114.041ZM546.153 114.041C546.153 114.653 546.352 115.146 546.748 115.52C547.145 115.883 547.638 116.064 548.227 116.064C548.828 116.064 549.321 115.883 549.706 115.52C550.103 115.146 550.301 114.653 550.301 114.041C550.301 113.418 550.103 112.925 549.706 112.562C549.321 112.188 548.828 112.001 548.227 112.001C547.638 112.001 547.145 112.188 546.748 112.562C546.352 112.925 546.153 113.418 546.153 114.041ZM546.17 119.124H548.278V122.456H556.523V124.139H546.17V119.124ZM571.858 109.179V124.411H569.852V116.795H568.407V123.68H566.452V109.468H568.407V115.095H569.852V109.179H571.858ZM559.448 110.896H561.539V118.869C562.989 118.824 564.338 118.682 565.585 118.444L565.789 120.246C564.225 120.541 562.462 120.688 560.502 120.688H559.448V110.896Z" fill="#F2F5F8"/>
<path d="M631.79 120.852C632.247 120.852 632.653 120.689 633.008 120.362C633.372 120.035 633.652 119.578 633.848 118.99C634.044 118.393 634.142 117.711 634.142 116.946C634.142 116.171 634.044 115.49 633.848 114.902C633.652 114.314 633.376 113.857 633.022 113.53C632.667 113.203 632.256 113.04 631.79 113.04C631.323 113.04 630.908 113.203 630.544 113.53C630.189 113.857 629.914 114.314 629.718 114.902C629.522 115.49 629.424 116.171 629.424 116.946C629.424 117.711 629.522 118.393 629.718 118.99C629.914 119.578 630.189 120.035 630.544 120.362C630.908 120.689 631.323 120.852 631.79 120.852ZM627.968 116.946C627.968 115.947 628.131 115.056 628.458 114.272C628.784 113.479 629.237 112.863 629.816 112.424C630.394 111.976 631.052 111.752 631.79 111.752C632.527 111.752 633.185 111.976 633.764 112.424C634.342 112.863 634.79 113.479 635.108 114.272C635.434 115.056 635.598 115.947 635.598 116.946C635.598 117.945 635.434 118.841 635.108 119.634C634.79 120.418 634.342 121.029 633.764 121.468C633.185 121.907 632.527 122.126 631.79 122.126C631.052 122.126 630.394 121.907 629.816 121.468C629.237 121.029 628.784 120.418 628.458 119.634C628.131 118.841 627.968 117.945 627.968 116.946ZM640.355 120.866C640.961 120.866 641.456 120.67 641.839 120.278C642.231 119.886 642.427 119.377 642.427 118.752C642.427 118.127 642.231 117.618 641.839 117.226C641.456 116.825 640.961 116.624 640.355 116.624C639.757 116.624 639.267 116.825 638.885 117.226C638.502 117.618 638.311 118.127 638.311 118.752C638.311 119.377 638.502 119.886 638.885 120.278C639.267 120.67 639.757 120.866 640.355 120.866ZM636.855 118.752C636.855 118.136 637.041 117.492 637.415 116.82L640.229 111.836H641.895L639.851 115.406C640.009 115.369 640.196 115.35 640.411 115.35C641.083 115.35 641.68 115.499 642.203 115.798C642.735 116.087 643.145 116.489 643.435 117.002C643.733 117.515 643.883 118.099 643.883 118.752C643.883 119.405 643.733 119.989 643.435 120.502C643.136 121.015 642.721 121.417 642.189 121.706C641.657 121.995 641.05 122.14 640.369 122.14C639.687 122.14 639.081 121.995 638.549 121.706C638.017 121.417 637.601 121.015 637.303 120.502C637.004 119.989 636.855 119.405 636.855 118.752ZM649.85 122.784H648.394L651.39 111.192H652.832L649.85 122.784ZM663.013 116.778C663.461 117.039 663.815 117.394 664.077 117.842C664.347 118.281 664.483 118.719 664.483 119.158C664.483 119.727 664.338 120.236 664.049 120.684C663.759 121.132 663.353 121.482 662.831 121.734C662.308 121.986 661.715 122.112 661.053 122.112C660.39 122.112 659.797 121.986 659.275 121.734C658.752 121.473 658.341 121.113 658.043 120.656C657.753 120.189 657.609 119.662 657.609 119.074H659.065C659.065 119.587 659.251 120.007 659.625 120.334C659.998 120.661 660.474 120.824 661.053 120.824C661.65 120.824 662.135 120.665 662.509 120.348C662.882 120.021 663.069 119.601 663.069 119.088C663.069 118.584 662.882 118.173 662.509 117.856C662.135 117.539 661.659 117.38 661.081 117.38H660.353V116.162H661.081C661.622 116.162 662.065 116.017 662.411 115.728C662.756 115.439 662.929 115.065 662.929 114.608C662.929 114.151 662.761 113.782 662.425 113.502C662.089 113.213 661.659 113.068 661.137 113.068C660.623 113.068 660.199 113.213 659.863 113.502C659.536 113.791 659.373 114.165 659.373 114.622H657.917C657.917 114.071 658.052 113.581 658.323 113.152C658.603 112.713 658.985 112.377 659.471 112.144C659.956 111.901 660.511 111.78 661.137 111.78C661.753 111.78 662.303 111.897 662.789 112.13C663.283 112.363 663.666 112.69 663.937 113.11C664.207 113.53 664.343 114.006 664.343 114.538C664.343 114.939 664.221 115.35 663.979 115.77C663.736 116.181 663.414 116.517 663.013 116.778ZM669.565 120.852C670.022 120.852 670.428 120.689 670.783 120.362C671.147 120.035 671.427 119.578 671.623 118.99C671.819 118.393 671.917 117.711 671.917 116.946C671.917 116.171 671.819 115.49 671.623 114.902C671.427 114.314 671.152 113.857 670.797 113.53C670.442 113.203 670.032 113.04 669.565 113.04C669.098 113.04 668.683 113.203 668.319 113.53C667.964 113.857 667.689 114.314 667.493 114.902C667.297 115.49 667.199 116.171 667.199 116.946C667.199 117.711 667.297 118.393 667.493 118.99C667.689 119.578 667.964 120.035 668.319 120.362C668.683 120.689 669.098 120.852 669.565 120.852ZM665.743 116.946C665.743 115.947 665.906 115.056 666.233 114.272C666.56 113.479 667.012 112.863 667.591 112.424C668.17 111.976 668.828 111.752 669.565 111.752C670.302 111.752 670.96 111.976 671.539 112.424C672.118 112.863 672.566 113.479 672.883 114.272C673.21 115.056 673.373 115.947 673.373 116.946C673.373 117.945 673.21 118.841 672.883 119.634C672.566 120.418 672.118 121.029 671.539 121.468C670.96 121.907 670.302 122.126 669.565 122.126C668.828 122.126 668.17 121.907 667.591 121.468C667.012 121.029 666.56 120.418 666.233 119.634C665.906 118.841 665.743 117.945 665.743 116.946Z" fill="#E2E7EC"/>
<path d="M438.76 142.264V143.308H435.208V148.312C436.112 148.304 436.876 148.28 437.5 148.24C438.124 148.192 438.752 148.112 439.384 148L439.516 149.044C438.804 149.172 438.096 149.26 437.392 149.308C436.688 149.356 435.812 149.38 434.764 149.38H433.924V142.264H438.76ZM438.208 145.06H441.004V141.292H442.288V151.984H441.004V146.104H438.208V145.06ZM455.014 141.292V143.452H456.49V144.508H455.014V146.656H453.718V141.292H455.014ZM446.794 144.028C446.794 143.564 446.914 143.152 447.154 142.792C447.402 142.424 447.738 142.14 448.162 141.94C448.586 141.732 449.062 141.628 449.59 141.628C450.126 141.628 450.606 141.732 451.03 141.94C451.462 142.14 451.798 142.424 452.038 142.792C452.286 143.152 452.41 143.564 452.41 144.028C452.41 144.492 452.286 144.908 452.038 145.276C451.798 145.636 451.462 145.92 451.03 146.128C450.606 146.328 450.126 146.428 449.59 146.428C449.062 146.428 448.586 146.328 448.162 146.128C447.738 145.92 447.402 145.636 447.154 145.276C446.914 144.908 446.794 144.492 446.794 144.028ZM448.042 144.028C448.042 144.436 448.186 144.768 448.474 145.024C448.77 145.272 449.142 145.396 449.59 145.396C450.046 145.396 450.418 145.272 450.706 145.024C451.002 144.768 451.15 144.436 451.15 144.028C451.15 143.62 451.002 143.292 450.706 143.044C450.418 142.796 450.046 142.672 449.59 142.672C449.142 142.672 448.77 142.8 448.474 143.056C448.186 143.304 448.042 143.628 448.042 144.028ZM448.09 147.112H455.014V149.908H449.386V150.808H455.35V151.828H448.114V148.96H453.73V148.12H448.09V147.112ZM460.006 142.06C460.534 142.06 461.006 142.216 461.422 142.528C461.838 142.832 462.162 143.272 462.394 143.848C462.634 144.416 462.754 145.076 462.754 145.828C462.754 146.588 462.634 147.256 462.394 147.832C462.162 148.4 461.838 148.84 461.422 149.152C461.006 149.464 460.534 149.62 460.006 149.62C459.478 149.62 459.002 149.464 458.578 149.152C458.162 148.84 457.834 148.4 457.594 147.832C457.362 147.256 457.246 146.588 457.246 145.828C457.246 145.076 457.362 144.416 457.594 143.848C457.834 143.272 458.162 142.832 458.578 142.528C459.002 142.216 459.478 142.06 460.006 142.06ZM458.494 145.828C458.494 146.644 458.63 147.284 458.902 147.748C459.182 148.212 459.55 148.444 460.006 148.444C460.462 148.444 460.826 148.212 461.098 147.748C461.378 147.284 461.518 146.644 461.518 145.828C461.518 145.02 461.378 144.388 461.098 143.932C460.826 143.468 460.462 143.236 460.006 143.236C459.55 143.236 459.182 143.468 458.902 143.932C458.63 144.388 458.494 145.02 458.494 145.828ZM464.158 141.292H465.454V145.42H467.074V146.488H465.454V151.96H464.158V141.292ZM471.814 149.608V147.496H468.718V142H469.99V143.752H474.934V142H476.206V147.496H473.098V149.608H477.298V150.664H467.638V149.608H471.814ZM474.934 146.476V144.772H469.99V146.476H474.934ZM486.947 141.292V151.96H485.651V141.292H486.947ZM478.187 149.056C479.555 148.392 480.583 147.604 481.271 146.692C481.959 145.772 482.359 144.688 482.471 143.44H478.727V142.408H483.791C483.791 144.112 483.411 145.604 482.651 146.884C481.891 148.156 480.631 149.22 478.871 150.076L478.187 149.056Z" fill="#E2E7EC"/>
<path d="M494.808 149.805C494.565 149.56 494.566 149.165 494.81 148.922L497.09 146.641C497.168 146.563 497.168 146.437 497.091 146.359L494.809 144.072C494.566 143.829 494.566 143.434 494.81 143.191V143.191C495.053 142.947 495.448 142.947 495.691 143.191L498.293 145.793C498.684 146.183 498.684 146.817 498.293 147.207L495.694 149.806C495.449 150.051 495.052 150.05 494.808 149.805V149.805Z" fill="#E2E7EC"/>
<path d="M35.3402 6.672L42.4682 24H40.5962L38.5562 19.008H30.1562L28.0682 24H26.1962L33.4202 6.672H35.3402ZM30.7802 17.472H37.9082L34.3802 8.88L30.7802 17.472ZM46.8917 21.912C47.5877 21.912 48.0677 22.392 48.0677 23.088C48.0677 23.808 47.5877 24.312 46.8917 24.312C46.1717 24.312 45.6677 23.808 45.6677 23.088C45.6677 22.392 46.1717 21.912 46.8917 21.912Z" fill="black"/>
<path d="M411.132 24V6.672H417.588C420.372 6.672 422.34 8.616 422.34 11.376C422.34 12.504 421.692 13.848 420.732 14.736L421.164 14.976C422.508 15.864 423.468 17.592 423.468 19.176C423.468 22.008 421.5 24 418.692 24H411.132ZM412.86 22.464H418.716C420.516 22.464 421.788 21.12 421.788 19.224C421.788 17.208 420.516 15.792 418.716 15.792H412.86V22.464ZM412.86 14.256H418.02C419.58 14.184 420.684 12.984 420.684 11.328C420.684 9.504 419.412 8.208 417.612 8.208H412.86V14.256ZM427.364 21.912C428.06 21.912 428.54 22.392 428.54 23.088C428.54 23.808 428.06 24.312 427.364 24.312C426.644 24.312 426.14 23.808 426.14 23.088C426.14 22.392 426.644 21.912 427.364 21.912Z" fill="black"/>
</svg>
