<svg width="722" height="219" viewBox="0 0 722 219" fill="none" xmlns="http://www.w3.org/2000/svg">
<rect x="0.5" y="41.5" width="336" height="177" rx="15.5" fill="white"/>
<rect x="0.5" y="41.5" width="336" height="177" rx="15.5" stroke="#D8D8D8"/>
<path d="M39.816 76.56H42.408V97.968H39.816V76.56ZM25.488 85.656C25.488 81.048 27.792 78.12 31.008 78.12C34.224 78.12 36.528 81.048 36.528 85.656C36.528 90.288 34.224 93.24 31.008 93.24C27.792 93.24 25.488 90.288 25.488 85.656ZM27.984 85.656C27.984 88.968 29.208 90.888 31.008 90.888C32.808 90.888 34.056 88.968 34.056 85.656C34.056 82.392 32.808 80.472 31.008 80.472C29.208 80.472 27.984 82.392 27.984 85.656ZM45.5526 87.456H64.8726V89.52H45.5526V87.456ZM47.9766 79.032V77.064H62.4726V82.464H50.5446V84.024H62.9046V86.016H48.0006V80.592H59.9286V79.032H47.9766ZM48.0726 97.656V91.08H62.5446V97.656H48.0726ZM50.5926 95.616H60.0006V93.096H50.5926V95.616Z" fill="#2E3438"/>
<rect x="24" y="136" width="273" height="54" rx="12" fill="#F2F5F8"/>
<path d="M51.184 164.392C51.056 163.208 50.464 161.976 48.864 161.976C47.52 161.976 46.48 163 46.288 164.408L51.184 164.392ZM44.896 164.936C44.896 162.488 46.512 160.776 48.816 160.776C51.392 160.776 52.144 162.84 52.224 163.016C52.704 164.264 52.528 165.464 52.528 165.544H46.288C46.496 166.936 47.568 167.896 48.832 167.896C50.56 167.896 51.088 166.84 51.168 166.712L52.288 167.288C52.288 167.288 51.536 169.096 48.816 169.096C46.512 169.096 44.896 167.384 44.896 164.936ZM61.2114 160.792L58.1074 164.936L61.1954 169.064H59.4514L57.3234 166.12L55.2274 169.064H53.4674L56.5234 164.936L53.4354 160.792H55.2114L57.3234 163.784L59.4514 160.792H61.2114ZM63.629 167.512C64.157 167.512 64.509 167.864 64.509 168.392C64.509 168.92 64.157 169.288 63.629 169.288C63.101 169.288 62.733 168.92 62.733 168.392C62.733 167.864 63.101 167.512 63.629 167.512ZM77.453 157C77.453 160.616 74.925 163.16 70.765 164.264L70.205 163.096C73.581 162.216 75.629 160.424 75.885 158.168H70.957V157H77.453ZM72.493 170.024V164.712H81.661V170.024H72.493ZM73.933 168.856H80.237V165.88H73.933V168.856ZM80.205 164.04V156.104H81.661V164.04H80.205ZM84.4454 157.24H92.1574V158.424H89.0694V159.048C89.0694 160.904 90.4294 162.616 92.5734 163.32L91.8214 164.472C90.2054 163.928 88.9734 162.792 88.3494 161.352C87.7254 162.904 86.4934 164.136 84.7974 164.728L84.0454 163.592C86.2214 162.824 87.5814 161 87.5814 159.048V158.424H84.4454V157.24ZM86.3654 169.928V165.448H87.8054V168.728H95.9174V169.928H86.3654ZM94.0294 166.424V156.12H95.5014V166.424H94.0294ZM97.7258 162.92H110.478V164.088H104.814V165.672H108.91V170.232H107.454V166.84H99.1498V165.672H103.358V164.088H97.7258V162.92ZM99.1018 159.176C99.1018 157.464 101.054 156.44 104.094 156.44C107.15 156.44 109.102 157.464 109.102 159.176C109.102 160.888 107.15 161.912 104.094 161.912C101.054 161.912 99.1018 160.888 99.1018 159.176ZM100.606 159.176C100.606 160.184 101.934 160.744 104.094 160.744C106.27 160.744 107.598 160.184 107.598 159.176C107.598 158.168 106.27 157.592 104.094 157.592C101.934 157.592 100.606 158.168 100.606 159.176Z" fill="#B1BAC5"/>
<rect x="385.5" y="41.5" width="336" height="177" rx="15.5" fill="white"/>
<rect x="385.5" y="41.5" width="336" height="177" rx="15.5" stroke="black"/>
<path d="M424.816 80.56H427.408V101.968H424.816V80.56ZM410.488 89.656C410.488 85.048 412.792 82.12 416.008 82.12C419.224 82.12 421.528 85.048 421.528 89.656C421.528 94.288 419.224 97.24 416.008 97.24C412.792 97.24 410.488 94.288 410.488 89.656ZM412.984 89.656C412.984 92.968 414.208 94.888 416.008 94.888C417.808 94.888 419.056 92.968 419.056 89.656C419.056 86.392 417.808 84.472 416.008 84.472C414.208 84.472 412.984 86.392 412.984 89.656ZM430.553 91.456H449.873V93.52H430.553V91.456ZM432.977 83.032V81.064H447.473V86.464H435.545V88.024H447.905V90.016H433.001V84.592H444.929V83.032H432.977ZM433.073 101.656V95.08H447.545V101.656H433.073ZM435.593 99.616H445.001V97.096H435.593V99.616Z" fill="#2E3438"/>
<rect x="409.5" y="132.5" width="272" height="53" rx="11.5" fill="#F2F5F8"/>
<rect x="409.5" y="132.5" width="272" height="53" rx="11.5" stroke="black"/>
<path d="M436.184 160.392C436.056 159.208 435.464 157.976 433.864 157.976C432.52 157.976 431.48 159 431.288 160.408L436.184 160.392ZM429.896 160.936C429.896 158.488 431.512 156.776 433.816 156.776C436.392 156.776 437.144 158.84 437.224 159.016C437.704 160.264 437.528 161.464 437.528 161.544H431.288C431.496 162.936 432.568 163.896 433.832 163.896C435.56 163.896 436.088 162.84 436.168 162.712L437.288 163.288C437.288 163.288 436.536 165.096 433.816 165.096C431.512 165.096 429.896 163.384 429.896 160.936ZM446.211 156.792L443.107 160.936L446.195 165.064H444.451L442.323 162.12L440.227 165.064H438.467L441.523 160.936L438.435 156.792H440.211L442.323 159.784L444.451 156.792H446.211ZM448.629 163.512C449.157 163.512 449.509 163.864 449.509 164.392C449.509 164.92 449.157 165.288 448.629 165.288C448.101 165.288 447.733 164.92 447.733 164.392C447.733 163.864 448.101 163.512 448.629 163.512ZM462.453 153C462.453 156.616 459.925 159.16 455.765 160.264L455.205 159.096C458.581 158.216 460.629 156.424 460.885 154.168H455.957V153H462.453ZM457.493 166.024V160.712H466.661V166.024H457.493ZM458.933 164.856H465.237V161.88H458.933V164.856ZM465.205 160.04V152.104H466.661V160.04H465.205ZM469.445 153.24H477.157V154.424H474.069V155.048C474.069 156.904 475.429 158.616 477.573 159.32L476.821 160.472C475.205 159.928 473.973 158.792 473.349 157.352C472.725 158.904 471.493 160.136 469.797 160.728L469.045 159.592C471.221 158.824 472.581 157 472.581 155.048V154.424H469.445V153.24ZM471.365 165.928V161.448H472.805V164.728H480.917V165.928H471.365ZM479.029 162.424V152.12H480.501V162.424H479.029ZM482.726 158.92H495.478V160.088H489.814V161.672H493.91V166.232H492.454V162.84H484.15V161.672H488.358V160.088H482.726V158.92ZM484.102 155.176C484.102 153.464 486.054 152.44 489.094 152.44C492.15 152.44 494.102 153.464 494.102 155.176C494.102 156.888 492.15 157.912 489.094 157.912C486.054 157.912 484.102 156.888 484.102 155.176ZM485.606 155.176C485.606 156.184 486.934 156.744 489.094 156.744C491.27 156.744 492.598 156.184 492.598 155.176C492.598 154.168 491.27 153.592 489.094 153.592C486.934 153.592 485.606 154.168 485.606 155.176Z" fill="#B1BAC5"/>
<path d="M35.3402 6.672L42.4682 24H40.5962L38.5562 19.008H30.1562L28.0682 24H26.1962L33.4202 6.672H35.3402ZM30.7802 17.472H37.9082L34.3802 8.88L30.7802 17.472ZM46.8917 21.912C47.5877 21.912 48.0677 22.392 48.0677 23.088C48.0677 23.808 47.5877 24.312 46.8917 24.312C46.1717 24.312 45.6677 23.808 45.6677 23.088C45.6677 22.392 46.1717 21.912 46.8917 21.912Z" fill="black"/>
<path d="M411.132 24V6.672H417.588C420.372 6.672 422.34 8.616 422.34 11.376C422.34 12.504 421.692 13.848 420.732 14.736L421.164 14.976C422.508 15.864 423.468 17.592 423.468 19.176C423.468 22.008 421.5 24 418.692 24H411.132ZM412.86 22.464H418.716C420.516 22.464 421.788 21.12 421.788 19.224C421.788 17.208 420.516 15.792 418.716 15.792H412.86V22.464ZM412.86 14.256H418.02C419.58 14.184 420.684 12.984 420.684 11.328C420.684 9.504 419.412 8.208 417.612 8.208H412.86V14.256ZM427.364 21.912C428.06 21.912 428.54 22.392 428.54 23.088C428.54 23.808 428.06 24.312 427.364 24.312C426.644 24.312 426.14 23.808 426.14 23.088C426.14 22.392 426.644 21.912 427.364 21.912Z" fill="black"/>
</svg>
