<svg width="722" height="219" viewBox="0 0 722 219" fill="none" xmlns="http://www.w3.org/2000/svg">
<rect x="0.5" y="41.5" width="336" height="177" rx="15.5" fill="white"/>
<rect x="0.5" y="41.5" width="336" height="177" rx="15.5" stroke="#D8D8D8"/>
<path d="M55.032 107.088H56.504V112.672H58.68V113.888H56.504V121.216H55.032V107.088ZM46.136 117.664V108.48H47.592V116.464C49.544 116.448 51.608 116.288 53.816 115.84L53.992 117.04C51.592 117.536 49.416 117.664 47.288 117.664H46.136ZM61.2724 107.616H62.7124V111.248H70.9044V112.432H61.2724V107.616ZM59.5764 115.408V114.224H72.3604V115.408H59.5764ZM61.1764 120.896V116.752H62.6164V119.712H70.9844V120.896H61.1764ZM87.3603 107.104H88.8163V121.248H87.3603V107.104ZM78.1443 117.776V108.432H84.8483V109.648H79.5843V116.544C82.2563 116.544 83.9843 116.464 85.9683 116.08L86.1123 117.312C84.0163 117.712 82.1923 117.776 79.2963 117.776H78.1443ZM92.0006 108.464H98.5606V117.728H92.0006V108.464ZM93.4406 116.544H97.1366V109.632H93.4406V116.544ZM101.345 121.248V107.088H102.801V121.248H101.345ZM106.561 108.464H116.513V109.856C116.513 111.6 116.513 113.552 116.001 116.432L114.529 116.272C115.057 113.536 115.057 111.552 115.057 109.856V109.664H106.561V108.464ZM105.217 119.312V118.096H110.081V113.104H111.537V118.096H117.985V119.312H105.217ZM129.825 107.104H131.217V121.216H129.825V107.104ZM119.361 113.2C119.361 110.144 120.545 108.24 122.369 108.24C124.065 108.24 125.217 109.872 125.377 112.528H126.993V107.408H128.369V120.528H126.993V113.728H125.377C125.249 116.496 124.097 118.176 122.369 118.176C120.545 118.176 119.361 116.272 119.361 113.2ZM120.689 113.2C120.689 115.472 121.329 116.8 122.369 116.8C123.425 116.8 124.065 115.472 124.065 113.2C124.065 110.944 123.425 109.616 122.369 109.616C121.329 109.616 120.689 110.944 120.689 113.2ZM147.001 107.12H148.457V114.688H147.001V107.12ZM137.161 111.024C137.161 109.104 138.729 107.776 140.873 107.776C143.017 107.776 144.585 109.104 144.585 111.024C144.585 112.96 143.017 114.304 140.873 114.304C138.729 114.304 137.161 112.96 137.161 111.024ZM138.585 111.024C138.585 112.256 139.545 113.072 140.873 113.072C142.201 113.072 143.161 112.256 143.161 111.024C143.161 109.808 142.201 108.976 140.873 108.976C139.545 108.976 138.585 109.808 138.585 111.024ZM139.305 121.04V115.376H140.761V116.976H147.017V115.376H148.457V121.04H139.305ZM140.761 119.872H147.017V118.128H140.761V119.872ZM150.89 108.544H154.33V107.024H155.786V108.544H159.226V109.712H150.89V108.544ZM151.658 112.944C151.658 111.392 153.034 110.368 155.05 110.368C157.082 110.368 158.458 111.392 158.458 112.944C158.458 114.496 157.082 115.488 155.05 115.488C153.034 115.488 151.658 114.496 151.658 112.944ZM152.634 117.84V116.656H161.85V121.232H160.378V117.84H152.634ZM153.05 112.944C153.05 113.808 153.85 114.384 155.05 114.384C156.25 114.384 157.05 113.808 157.05 112.944C157.05 112.048 156.25 111.504 155.05 111.504C153.85 111.504 153.05 112.048 153.05 112.944ZM160.378 115.936V107.12H161.85V110.944H163.882V112.16H161.85V115.936H160.378ZM174.362 107.12H175.834V111.68H177.866V112.896H175.834V117.696H174.362V107.12ZM164.874 109.936V108.768H168.314V107.12H169.77V108.768H173.21V109.936H164.874ZM165.642 113.312C165.642 111.712 167.034 110.656 169.034 110.656C171.05 110.656 172.442 111.712 172.442 113.312C172.442 114.912 171.05 115.952 169.034 115.952C167.034 115.952 165.642 114.912 165.642 113.312ZM166.986 120.928V116.864H168.426V119.728H176.442V120.928H166.986ZM167.034 113.312C167.034 114.24 167.85 114.832 169.034 114.832C170.234 114.832 171.034 114.24 171.034 113.312C171.034 112.368 170.234 111.792 169.034 111.792C167.85 111.792 167.034 112.368 167.034 113.312ZM183.17 108.688H188.162V107.04H189.618V108.688H194.562V109.856H183.17V108.688ZM182.514 117.44V116.272H195.298V117.44H189.618V121.232H188.162V117.44H182.514ZM184.258 112.992C184.258 111.456 185.97 110.608 188.882 110.608C191.794 110.608 193.522 111.456 193.522 112.992C193.522 114.496 191.794 115.36 188.882 115.36C185.97 115.36 184.258 114.496 184.258 112.992ZM185.762 112.992C185.762 113.792 186.866 114.24 188.882 114.24C190.914 114.24 192.018 113.792 192.018 112.992C192.018 112.16 190.914 111.712 188.882 111.712C186.866 111.712 185.762 112.16 185.762 112.992ZM207.122 107.104H208.514V121.216H207.122V107.104ZM196.658 113.2C196.658 110.144 197.842 108.24 199.666 108.24C201.362 108.24 202.514 109.872 202.674 112.528H204.29V107.408H205.666V120.528H204.29V113.728H202.674C202.546 116.496 201.394 118.176 199.666 118.176C197.842 118.176 196.658 116.272 196.658 113.2ZM197.986 113.2C197.986 115.472 198.626 116.8 199.666 116.8C200.722 116.8 201.362 115.472 201.362 113.2C201.362 110.944 200.722 109.616 199.666 109.616C198.626 109.616 197.986 110.944 197.986 113.2ZM55.72 123.12H57.176V131.168H55.72V123.12ZM45.88 127.152C45.88 125.2 47.448 123.84 49.592 123.84C51.736 123.84 53.304 125.2 53.304 127.152C53.304 129.104 51.736 130.464 49.592 130.464C47.448 130.464 45.88 129.104 45.88 127.152ZM47.304 127.152C47.304 128.416 48.264 129.248 49.592 129.248C50.92 129.248 51.88 128.416 51.88 127.152C51.88 125.904 50.92 125.056 49.592 125.056C48.264 125.056 47.304 125.904 47.304 127.152ZM48.008 137.04V131.888H57.176V137.04H48.008ZM49.432 135.872H55.752V133.056H49.432V135.872ZM60.7444 123.552H71.1284V124.656H69.0804V127.136H71.0644V128.256H60.8084V127.136H62.7924V124.656H60.7444V123.552ZM59.5764 130.48V129.328H72.3284V130.48H59.5764ZM61.0964 132.704V131.616H70.7124V134.816H62.5684V135.984H71.1284V137.088H61.1444V133.792H69.2724V132.704H61.0964ZM64.2644 127.136H67.6244V124.656H64.2644V127.136ZM75.0807 123.664H84.8088V127.472H76.5848V129.104H85.1448V130.288H75.0968V126.352H83.3368V124.832H75.0807V123.664ZM73.5608 132.848V131.664H86.3448V132.848H80.6488V137.248H79.2088V132.848H73.5608ZM89.1451 124.368H98.7451V125.568H90.5851V129.808H98.8891V130.992H89.1451V124.368ZM87.5451 135.344V134.144H100.329V135.344H87.5451ZM112.154 123.104H113.546V137.216H112.154V123.104ZM101.69 129.2C101.69 126.144 102.874 124.24 104.698 124.24C106.394 124.24 107.546 125.872 107.706 128.528H109.322V123.408H110.698V136.528H109.322V129.728H107.706C107.578 132.496 106.426 134.176 104.698 134.176C102.874 134.176 101.69 132.272 101.69 129.2ZM103.018 129.2C103.018 131.472 103.658 132.8 104.698 132.8C105.754 132.8 106.394 131.472 106.394 129.2C106.394 126.944 105.754 125.616 104.698 125.616C103.658 125.616 103.018 126.944 103.018 129.2ZM125.745 123.744H130.561V124.416C130.561 125.312 130.561 126.752 130.145 128.64L128.721 128.48C129.057 126.928 129.121 125.76 129.137 124.912H125.745V123.744ZM119.217 130.96V129.76H125.121V127.024H126.561V129.76H131.937V130.96H119.217ZM120.289 124.912V123.744H124.593V124.256C124.593 125.088 124.593 126.608 123.921 128.656L122.513 128.448C123.025 126.88 123.153 125.728 123.169 124.912H120.289ZM120.593 133.536V132.352H130.353V137.168H128.881V133.536H120.593ZM136.889 128.912H149.641V130.096H136.889V128.912ZM138.393 132.336V131.216H148.009V134.624H139.865V135.92H148.425V137.072H138.441V133.552H146.569V132.336H138.393ZM138.553 127.856V123.536H147.977V124.72H140.009V126.704H148.121V127.856H138.553ZM154.634 124.176C156.538 124.176 157.946 125.792 158.154 128.432H161.066V123.088H162.522V137.248H161.066V129.6H158.17C158.026 132.352 156.586 134.08 154.634 134.08C152.57 134.08 151.098 132.144 151.098 129.12C151.098 126.08 152.57 124.176 154.634 124.176ZM152.474 129.12C152.474 131.36 153.354 132.768 154.634 132.768C155.93 132.768 156.794 131.36 156.794 129.12C156.794 126.88 155.93 125.488 154.634 125.488C153.354 125.488 152.474 126.88 152.474 129.12ZM174.266 123.088H175.754V128.752H177.93V129.968H175.754V137.216H174.266V123.088ZM164.874 133.472C168.394 131.68 170.314 129.104 170.602 125.792H165.562V124.608H172.074C172.074 128.672 170.282 132.288 165.69 134.592L164.874 133.472ZM180.17 124.464H190.122V125.856C190.122 127.6 190.122 129.552 189.61 132.432L188.138 132.272C188.666 129.536 188.666 127.552 188.666 125.856V125.664H180.17V124.464ZM178.826 135.312V134.096H183.69V129.104H185.146V134.096H191.594V135.312H178.826ZM206.626 123.12H208.082V130.944H206.626V123.12ZM196.546 129.536C198.722 128.8 200.082 126.96 200.082 124.976V123.632H201.554V124.976C201.554 126.88 202.914 128.608 205.042 129.28L204.338 130.432C202.706 129.888 201.474 128.768 200.834 127.312C200.21 128.88 198.946 130.112 197.266 130.688L196.546 129.536ZM198.578 137.04V135.872H200.578V132.912H198.706V131.744H208.178V132.912H206.322V135.872H208.322V137.04H198.578ZM202.018 135.872H204.882V132.912H202.018V135.872ZM219.923 123.088H221.395V128.592H223.635V129.808H221.395V137.248H219.923V123.088ZM211.091 133.76V124.48H217.651V125.648H212.531V132.528C214.947 132.528 216.691 132.432 218.691 132.048L218.851 133.28C216.691 133.68 214.819 133.76 212.211 133.76H211.091ZM225.699 134.512C226.227 134.512 226.579 134.864 226.579 135.392C226.579 135.92 226.227 136.288 225.699 136.288C225.171 136.288 224.803 135.92 224.803 135.392C224.803 134.864 225.171 134.512 225.699 134.512ZM55.032 139.088H56.504V144.672H58.68V145.888H56.504V153.216H55.032V139.088ZM46.136 149.664V140.48H47.592V148.464C49.544 148.448 51.608 148.288 53.816 147.84L53.992 149.04C51.592 149.536 49.416 149.664 47.288 149.664H46.136ZM61.2724 139.616H62.7124V143.248H70.9044V144.432H61.2724V139.616ZM59.5764 147.408V146.224H72.3604V147.408H59.5764ZM61.1764 152.896V148.752H62.6164V151.712H70.9844V152.896H61.1764ZM83.7923 139.744H88.6083V140.416C88.6083 141.312 88.6083 142.752 88.1923 144.64L86.7683 144.48C87.1043 142.928 87.1683 141.76 87.1843 140.912H83.7923V139.744ZM77.2643 146.96V145.76H83.1683V143.024H84.6083V145.76H89.9843V146.96H77.2643ZM78.3363 140.912V139.744H82.6403V140.256C82.6403 141.088 82.6403 142.608 81.9683 144.656L80.5603 144.448C81.0723 142.88 81.2003 141.728 81.2163 140.912H78.3363ZM78.6403 149.536V148.352H88.4003V153.168H86.9283V149.536H78.6403ZM105.048 139.12H106.504V147.168H105.048V139.12ZM95.2081 143.152C95.2081 141.2 96.7761 139.84 98.9201 139.84C101.064 139.84 102.632 141.2 102.632 143.152C102.632 145.104 101.064 146.464 98.9201 146.464C96.7761 146.464 95.2081 145.104 95.2081 143.152ZM96.6321 143.152C96.6321 144.416 97.5921 145.248 98.9201 145.248C100.248 145.248 101.208 144.416 101.208 143.152C101.208 141.904 100.248 141.056 98.9201 141.056C97.5921 141.056 96.6321 141.904 96.6321 143.152ZM97.3361 153.04V147.888H106.504V153.04H97.3361ZM98.7601 151.872H105.08V149.056H98.7601V151.872ZM110.073 139.552H120.457V140.656H118.409V143.136H120.393V144.256H110.137V143.136H112.121V140.656H110.073V139.552ZM108.905 146.48V145.328H121.657V146.48H108.905ZM110.424 148.704V147.616H120.041V150.816H111.897V151.984H120.457V153.088H110.473V149.792H118.601V148.704H110.424ZM113.593 143.136H116.953V140.656H113.593V143.136ZM124.409 139.664H134.137V143.472H125.913V145.104H134.473V146.288H124.425V142.352H132.665V140.832H124.409V139.664ZM122.889 148.848V147.664H135.673V148.848H129.977V153.248H128.537V148.848H122.889ZM138.473 140.368H148.073V141.568H139.913V145.808H148.217V146.992H138.473V140.368ZM136.873 151.344V150.144H149.657V151.344H136.873ZM161.482 139.104H162.874V153.216H161.482V139.104ZM151.018 145.2C151.018 142.144 152.202 140.24 154.026 140.24C155.722 140.24 156.874 141.872 157.034 144.528H158.65V139.408H160.026V152.528H158.65V145.728H157.034C156.906 148.496 155.754 150.176 154.026 150.176C152.202 150.176 151.018 148.272 151.018 145.2ZM152.346 145.2C152.346 147.472 152.986 148.8 154.026 148.8C155.082 148.8 155.722 147.472 155.722 145.2C155.722 142.944 155.082 141.616 154.026 141.616C152.986 141.616 152.346 142.944 152.346 145.2ZM168.546 144.912H181.298V146.096H168.546V144.912ZM170.049 148.336V147.216H179.666V150.624H171.522V151.92H180.082V153.072H170.098V149.552H178.226V148.336H170.049ZM170.21 143.856V139.536H179.634V140.72H171.666V142.704H179.778V143.856H170.21ZM186.29 140.176C188.194 140.176 189.602 141.792 189.81 144.432H192.722V139.088H194.178V153.248H192.722V145.6H189.826C189.682 148.352 188.242 150.08 186.29 150.08C184.226 150.08 182.754 148.144 182.754 145.12C182.754 142.08 184.226 140.176 186.29 140.176ZM184.13 145.12C184.13 147.36 185.01 148.768 186.29 148.768C187.586 148.768 188.45 147.36 188.45 145.12C188.45 142.88 187.586 141.488 186.29 141.488C185.01 141.488 184.13 142.88 184.13 145.12ZM205.922 139.088H207.41V144.752H209.586V145.968H207.41V153.216H205.922V139.088ZM196.53 149.472C200.05 147.68 201.97 145.104 202.258 141.792H197.218V140.608H203.73C203.73 144.672 201.938 148.288 197.346 150.592L196.53 149.472ZM211.827 140.464H221.779V141.856C221.779 143.6 221.779 145.552 221.267 148.432L219.795 148.272C220.323 145.536 220.323 143.552 220.323 141.856V141.664H211.827V140.464ZM210.483 151.312V150.096H215.347V145.104H216.803V150.096H223.251V151.312H210.483ZM237.691 139.12H239.163V142.08H241.179V143.28H239.163V146.256H237.691V139.12ZM228.715 145.568V139.872H235.259V145.568H228.715ZM230.123 148.048V146.896H239.163V150.464H231.595V151.872H239.643V153.04H230.139V149.376H237.723V148.048H230.123ZM230.155 144.416H233.835V141.024H230.155V144.416ZM256.018 139.104H257.474V148.624H256.018V144.24H253.122V143.024H256.018V139.104ZM246.05 146.64C249.33 145.616 251.218 143.776 251.49 141.392H246.738V140.208H253.058C253.058 143.904 250.77 146.48 246.674 147.792L246.05 146.64ZM247.506 152.032C250.13 151.584 252.146 149.984 252.146 148.048V147.44H253.602V148.048C253.602 149.968 255.602 151.552 258.226 152L257.634 153.152C255.506 152.752 253.73 151.68 252.882 150.112C252.034 151.696 250.226 152.784 248.082 153.2L247.506 152.032ZM269.923 139.088H271.379V153.248H269.923V139.088ZM260.291 145.12C260.291 142.08 261.795 140.176 263.907 140.176C266.003 140.176 267.523 142.08 267.523 145.12C267.523 148.144 266.003 150.08 263.907 150.08C261.795 150.08 260.291 148.144 260.291 145.12ZM261.699 145.12C261.699 147.36 262.611 148.768 263.907 148.768C265.203 148.768 266.115 147.36 266.115 145.12C266.115 142.88 265.203 141.488 263.907 141.488C262.611 141.488 261.699 142.88 261.699 145.12ZM283.235 139.088H284.707V144.592H286.947V145.808H284.707V153.248H283.235V139.088ZM274.403 149.76V140.48H280.963V141.648H275.843V148.528C278.259 148.528 280.003 148.432 282.003 148.048L282.163 149.28C280.003 149.68 278.131 149.76 275.523 149.76H274.403ZM289.012 150.512C289.539 150.512 289.892 150.864 289.892 151.392C289.892 151.92 289.539 152.288 289.012 152.288C288.484 152.288 288.116 151.92 288.116 151.392C288.116 150.864 288.484 150.512 289.012 150.512Z" fill="#42464A"/>
<rect x="385.5" y="41.5" width="336" height="177" rx="15.5" fill="white"/>
<rect x="385.5" y="41.5" width="336" height="177" rx="15.5" stroke="#D8D8D8"/>
<path d="M440.032 101.588H441.504V107.172H443.68V108.388H441.504V115.716H440.032V101.588ZM431.136 112.164V102.98H432.592V110.964C434.544 110.948 436.608 110.788 438.816 110.34L438.992 111.54C436.592 112.036 434.416 112.164 432.288 112.164H431.136ZM446.272 102.116H447.712V105.748H455.904V106.932H446.272V102.116ZM444.576 109.908V108.724H457.36V109.908H444.576ZM446.176 115.396V111.252H447.616V114.212H455.984V115.396H446.176ZM472.36 101.604H473.816V115.748H472.36V101.604ZM463.144 112.276V102.932H469.848V104.148H464.584V111.044C467.256 111.044 468.984 110.964 470.968 110.58L471.112 111.812C469.016 112.212 467.192 112.276 464.296 112.276H463.144ZM477.001 102.964H483.561V112.228H477.001V102.964ZM478.441 111.044H482.137V104.132H478.441V111.044ZM486.345 115.748V101.588H487.801V115.748H486.345ZM491.561 102.964H501.513V104.356C501.513 106.1 501.513 108.052 501.001 110.932L499.529 110.772C500.057 108.036 500.057 106.052 500.057 104.356V104.164H491.561V102.964ZM490.217 113.812V112.596H495.081V107.604H496.537V112.596H502.985V113.812H490.217ZM514.825 101.604H516.217V115.716H514.825V101.604ZM504.361 107.7C504.361 104.644 505.545 102.74 507.369 102.74C509.065 102.74 510.217 104.372 510.377 107.028H511.993V101.908H513.369V115.028H511.993V108.228H510.377C510.249 110.996 509.097 112.676 507.369 112.676C505.545 112.676 504.361 110.772 504.361 107.7ZM505.689 107.7C505.689 109.972 506.329 111.3 507.369 111.3C508.425 111.3 509.065 109.972 509.065 107.7C509.065 105.444 508.425 104.116 507.369 104.116C506.329 104.116 505.689 105.444 505.689 107.7ZM532.001 101.62H533.457V109.188H532.001V101.62ZM522.161 105.524C522.161 103.604 523.729 102.276 525.873 102.276C528.017 102.276 529.585 103.604 529.585 105.524C529.585 107.46 528.017 108.804 525.873 108.804C523.729 108.804 522.161 107.46 522.161 105.524ZM523.585 105.524C523.585 106.756 524.545 107.572 525.873 107.572C527.201 107.572 528.161 106.756 528.161 105.524C528.161 104.308 527.201 103.476 525.873 103.476C524.545 103.476 523.585 104.308 523.585 105.524ZM524.305 115.54V109.876H525.761V111.476H532.017V109.876H533.457V115.54H524.305ZM525.761 114.372H532.017V112.628H525.761V114.372ZM535.89 103.044H539.33V101.524H540.786V103.044H544.226V104.212H535.89V103.044ZM536.658 107.444C536.658 105.892 538.034 104.868 540.05 104.868C542.082 104.868 543.458 105.892 543.458 107.444C543.458 108.996 542.082 109.988 540.05 109.988C538.034 109.988 536.658 108.996 536.658 107.444ZM537.634 112.34V111.156H546.85V115.732H545.378V112.34H537.634ZM538.05 107.444C538.05 108.308 538.85 108.884 540.05 108.884C541.25 108.884 542.05 108.308 542.05 107.444C542.05 106.548 541.25 106.004 540.05 106.004C538.85 106.004 538.05 106.548 538.05 107.444ZM545.378 110.436V101.62H546.85V105.444H548.882V106.66H546.85V110.436H545.378ZM559.362 101.62H560.834V106.18H562.866V107.396H560.834V112.196H559.362V101.62ZM549.874 104.436V103.268H553.314V101.62H554.77V103.268H558.21V104.436H549.874ZM550.642 107.812C550.642 106.212 552.034 105.156 554.034 105.156C556.05 105.156 557.442 106.212 557.442 107.812C557.442 109.412 556.05 110.452 554.034 110.452C552.034 110.452 550.642 109.412 550.642 107.812ZM551.986 115.428V111.364H553.426V114.228H561.442V115.428H551.986ZM552.034 107.812C552.034 108.74 552.85 109.332 554.034 109.332C555.234 109.332 556.034 108.74 556.034 107.812C556.034 106.868 555.234 106.292 554.034 106.292C552.85 106.292 552.034 106.868 552.034 107.812ZM568.17 103.188H573.162V101.54H574.618V103.188H579.562V104.356H568.17V103.188ZM567.514 111.94V110.772H580.298V111.94H574.618V115.732H573.162V111.94H567.514ZM569.258 107.492C569.258 105.956 570.97 105.108 573.882 105.108C576.794 105.108 578.522 105.956 578.522 107.492C578.522 108.996 576.794 109.86 573.882 109.86C570.97 109.86 569.258 108.996 569.258 107.492ZM570.762 107.492C570.762 108.292 571.866 108.74 573.882 108.74C575.914 108.74 577.018 108.292 577.018 107.492C577.018 106.66 575.914 106.212 573.882 106.212C571.866 106.212 570.762 106.66 570.762 107.492ZM592.122 101.604H593.514V115.716H592.122V101.604ZM581.658 107.7C581.658 104.644 582.842 102.74 584.666 102.74C586.362 102.74 587.514 104.372 587.674 107.028H589.29V101.908H590.666V115.028H589.29V108.228H587.674C587.546 110.996 586.394 112.676 584.666 112.676C582.842 112.676 581.658 110.772 581.658 107.7ZM582.986 107.7C582.986 109.972 583.626 111.3 584.666 111.3C585.722 111.3 586.362 109.972 586.362 107.7C586.362 105.444 585.722 104.116 584.666 104.116C583.626 104.116 582.986 105.444 582.986 107.7ZM440.72 122.62H442.176V130.668H440.72V122.62ZM430.88 126.652C430.88 124.7 432.448 123.34 434.592 123.34C436.736 123.34 438.304 124.7 438.304 126.652C438.304 128.604 436.736 129.964 434.592 129.964C432.448 129.964 430.88 128.604 430.88 126.652ZM432.304 126.652C432.304 127.916 433.264 128.748 434.592 128.748C435.92 128.748 436.88 127.916 436.88 126.652C436.88 125.404 435.92 124.556 434.592 124.556C433.264 124.556 432.304 125.404 432.304 126.652ZM433.008 136.54V131.388H442.176V136.54H433.008ZM434.432 135.372H440.752V132.556H434.432V135.372ZM445.744 123.052H456.128V124.156H454.08V126.636H456.064V127.756H445.808V126.636H447.792V124.156H445.744V123.052ZM444.576 129.98V128.828H457.328V129.98H444.576ZM446.096 132.204V131.116H455.712V134.316H447.568V135.484H456.128V136.588H446.144V133.292H454.272V132.204H446.096ZM449.264 126.636H452.624V124.156H449.264V126.636ZM460.081 123.164H469.809V126.972H461.585V128.604H470.145V129.788H460.097V125.852H468.337V124.332H460.081V123.164ZM458.561 132.348V131.164H471.345V132.348H465.649V136.748H464.209V132.348H458.561ZM474.145 123.868H483.745V125.068H475.585V129.308H483.889V130.492H474.145V123.868ZM472.545 134.844V133.644H485.329V134.844H472.545ZM497.154 122.604H498.546V136.716H497.154V122.604ZM486.69 128.7C486.69 125.644 487.874 123.74 489.698 123.74C491.394 123.74 492.546 125.372 492.706 128.028H494.322V122.908H495.698V136.028H494.322V129.228H492.706C492.578 131.996 491.426 133.676 489.698 133.676C487.874 133.676 486.69 131.772 486.69 128.7ZM488.018 128.7C488.018 130.972 488.658 132.3 489.698 132.3C490.754 132.3 491.394 130.972 491.394 128.7C491.394 126.444 490.754 125.116 489.698 125.116C488.658 125.116 488.018 126.444 488.018 128.7ZM510.745 123.244H515.561V123.916C515.561 124.812 515.561 126.252 515.145 128.14L513.721 127.98C514.057 126.428 514.121 125.26 514.137 124.412H510.745V123.244ZM504.217 130.46V129.26H510.121V126.524H511.561V129.26H516.937V130.46H504.217ZM505.289 124.412V123.244H509.593V123.756C509.593 124.588 509.593 126.108 508.921 128.156L507.513 127.948C508.025 126.38 508.153 125.228 508.169 124.412H505.289ZM505.593 133.036V131.852H515.353V136.668H513.881V133.036H505.593ZM521.889 128.412H534.641V129.596H521.889V128.412ZM523.393 131.836V130.716H533.009V134.124H524.865V135.42H533.425V136.572H523.441V133.052H531.569V131.836H523.393ZM523.553 127.356V123.036H532.977V124.22H525.009V126.204H533.121V127.356H523.553ZM539.634 123.676C541.538 123.676 542.946 125.292 543.154 127.932H546.066V122.588H547.522V136.748H546.066V129.1H543.17C543.026 131.852 541.586 133.58 539.634 133.58C537.57 133.58 536.098 131.644 536.098 128.62C536.098 125.58 537.57 123.676 539.634 123.676ZM537.474 128.62C537.474 130.86 538.354 132.268 539.634 132.268C540.93 132.268 541.794 130.86 541.794 128.62C541.794 126.38 540.93 124.988 539.634 124.988C538.354 124.988 537.474 126.38 537.474 128.62ZM559.266 122.588H560.754V128.252H562.93V129.468H560.754V136.716H559.266V122.588ZM549.874 132.972C553.394 131.18 555.314 128.604 555.602 125.292H550.562V124.108H557.074C557.074 128.172 555.282 131.788 550.69 134.092L549.874 132.972ZM565.17 123.964H575.122V125.356C575.122 127.1 575.122 129.052 574.61 131.932L573.138 131.772C573.666 129.036 573.666 127.052 573.666 125.356V125.164H565.17V123.964ZM563.826 134.812V133.596H568.69V128.604H570.146V133.596H576.594V134.812H563.826ZM591.626 122.62H593.082V130.444H591.626V122.62ZM581.546 129.036C583.722 128.3 585.082 126.46 585.082 124.476V123.132H586.554V124.476C586.554 126.38 587.914 128.108 590.042 128.78L589.338 129.932C587.706 129.388 586.474 128.268 585.834 126.812C585.21 128.38 583.946 129.612 582.266 130.188L581.546 129.036ZM583.578 136.54V135.372H585.578V132.412H583.706V131.244H593.178V132.412H591.322V135.372H593.322V136.54H583.578ZM587.018 135.372H589.882V132.412H587.018V135.372ZM604.923 122.588H606.395V128.092H608.635V129.308H606.395V136.748H604.923V122.588ZM596.091 133.26V123.98H602.651V125.148H597.531V132.028C599.947 132.028 601.691 131.932 603.691 131.548L603.851 132.78C601.691 133.18 599.819 133.26 597.211 133.26H596.091ZM610.699 134.012C611.227 134.012 611.579 134.364 611.579 134.892C611.579 135.42 611.227 135.788 610.699 135.788C610.171 135.788 609.803 135.42 609.803 134.892C609.803 134.364 610.171 134.012 610.699 134.012ZM440.032 143.588H441.504V149.172H443.68V150.388H441.504V157.716H440.032V143.588ZM431.136 154.164V144.98H432.592V152.964C434.544 152.948 436.608 152.788 438.816 152.34L438.992 153.54C436.592 154.036 434.416 154.164 432.288 154.164H431.136ZM446.272 144.116H447.712V147.748H455.904V148.932H446.272V144.116ZM444.576 151.908V150.724H457.36V151.908H444.576ZM446.176 157.396V153.252H447.616V156.212H455.984V157.396H446.176ZM468.792 144.244H473.608V144.916C473.608 145.812 473.608 147.252 473.192 149.14L471.768 148.98C472.104 147.428 472.168 146.26 472.184 145.412H468.792V144.244ZM462.264 151.46V150.26H468.168V147.524H469.608V150.26H474.984V151.46H462.264ZM463.336 145.412V144.244H467.64V144.756C467.64 145.588 467.64 147.108 466.968 149.156L465.56 148.948C466.072 147.38 466.2 146.228 466.216 145.412H463.336ZM463.64 154.036V152.852H473.4V157.668H471.928V154.036H463.64ZM490.048 143.62H491.504V151.668H490.048V143.62ZM480.208 147.652C480.208 145.7 481.776 144.34 483.92 144.34C486.064 144.34 487.632 145.7 487.632 147.652C487.632 149.604 486.064 150.964 483.92 150.964C481.776 150.964 480.208 149.604 480.208 147.652ZM481.632 147.652C481.632 148.916 482.592 149.748 483.92 149.748C485.248 149.748 486.208 148.916 486.208 147.652C486.208 146.404 485.248 145.556 483.92 145.556C482.592 145.556 481.632 146.404 481.632 147.652ZM482.336 157.54V152.388H491.504V157.54H482.336ZM483.76 156.372H490.08V153.556H483.76V156.372ZM495.073 144.052H505.457V145.156H503.409V147.636H505.393V148.756H495.137V147.636H497.121V145.156H495.073V144.052ZM493.905 150.98V149.828H506.657V150.98H493.905ZM495.424 153.204V152.116H505.041V155.316H496.897V156.484H505.457V157.588H495.473V154.292H503.601V153.204H495.424ZM498.593 147.636H501.953V145.156H498.593V147.636ZM509.409 144.164H519.137V147.972H510.913V149.604H519.473V150.788H509.425V146.852H517.665V145.332H509.409V144.164ZM507.889 153.348V152.164H520.673V153.348H514.977V157.748H513.537V153.348H507.889ZM523.473 144.868H533.073V146.068H524.913V150.308H533.217V151.492H523.473V144.868ZM521.873 155.844V154.644H534.657V155.844H521.873ZM546.482 143.604H547.874V157.716H546.482V143.604ZM536.018 149.7C536.018 146.644 537.202 144.74 539.026 144.74C540.722 144.74 541.874 146.372 542.034 149.028H543.65V143.908H545.026V157.028H543.65V150.228H542.034C541.906 152.996 540.754 154.676 539.026 154.676C537.202 154.676 536.018 152.772 536.018 149.7ZM537.346 149.7C537.346 151.972 537.986 153.3 539.026 153.3C540.082 153.3 540.722 151.972 540.722 149.7C540.722 147.444 540.082 146.116 539.026 146.116C537.986 146.116 537.346 147.444 537.346 149.7ZM553.546 149.412H566.298V150.596H553.546V149.412ZM555.049 152.836V151.716H564.666V155.124H556.522V156.42H565.082V157.572H555.098V154.052H563.226V152.836H555.049ZM555.21 148.356V144.036H564.634V145.22H556.666V147.204H564.778V148.356H555.21ZM571.29 144.676C573.194 144.676 574.602 146.292 574.81 148.932H577.722V143.588H579.178V157.748H577.722V150.1H574.826C574.682 152.852 573.242 154.58 571.29 154.58C569.226 154.58 567.754 152.644 567.754 149.62C567.754 146.58 569.226 144.676 571.29 144.676ZM569.13 149.62C569.13 151.86 570.01 153.268 571.29 153.268C572.586 153.268 573.45 151.86 573.45 149.62C573.45 147.38 572.586 145.988 571.29 145.988C570.01 145.988 569.13 147.38 569.13 149.62ZM590.922 143.588H592.41V149.252H594.586V150.468H592.41V157.716H590.922V143.588ZM581.53 153.972C585.05 152.18 586.97 149.604 587.258 146.292H582.218V145.108H588.73C588.73 149.172 586.938 152.788 582.346 155.092L581.53 153.972ZM596.827 144.964H606.779V146.356C606.779 148.1 606.779 150.052 606.267 152.932L604.795 152.772C605.323 150.036 605.323 148.052 605.323 146.356V146.164H596.827V144.964ZM595.483 155.812V154.596H600.347V149.604H601.803V154.596H608.251V155.812H595.483ZM622.691 143.62H624.163V146.58H626.179V147.78H624.163V150.756H622.691V143.62ZM613.715 150.068V144.372H620.259V150.068H613.715ZM615.123 152.548V151.396H624.163V154.964H616.595V156.372H624.643V157.54H615.139V153.876H622.723V152.548H615.123ZM615.155 148.916H618.835V145.524H615.155V148.916ZM641.018 143.604H642.474V153.124H641.018V148.74H638.122V147.524H641.018V143.604ZM631.05 151.14C634.33 150.116 636.218 148.276 636.49 145.892H631.738V144.708H638.058C638.058 148.404 635.77 150.98 631.674 152.292L631.05 151.14ZM632.506 156.532C635.13 156.084 637.146 154.484 637.146 152.548V151.94H638.602V152.548C638.602 154.468 640.602 156.052 643.226 156.5L642.634 157.652C640.506 157.252 638.73 156.18 637.882 154.612C637.034 156.196 635.226 157.284 633.082 157.7L632.506 156.532ZM654.923 143.588H656.379V157.748H654.923V143.588ZM645.291 149.62C645.291 146.58 646.795 144.676 648.907 144.676C651.003 144.676 652.523 146.58 652.523 149.62C652.523 152.644 651.003 154.58 648.907 154.58C646.795 154.58 645.291 152.644 645.291 149.62ZM646.699 149.62C646.699 151.86 647.611 153.268 648.907 153.268C650.203 153.268 651.115 151.86 651.115 149.62C651.115 147.38 650.203 145.988 648.907 145.988C647.611 145.988 646.699 147.38 646.699 149.62ZM668.235 143.588H669.707V149.092H671.947V150.308H669.707V157.748H668.235V143.588ZM659.403 154.26V144.98H665.963V146.148H660.843V153.028C663.259 153.028 665.003 152.932 667.003 152.548L667.163 153.78C665.003 154.18 663.131 154.26 660.523 154.26H659.403ZM674.012 155.012C674.539 155.012 674.892 155.364 674.892 155.892C674.892 156.42 674.539 156.788 674.012 156.788C673.484 156.788 673.116 156.42 673.116 155.892C673.116 155.364 673.484 155.012 674.012 155.012Z" fill="#42464A"/>
<path d="M35.3402 6.672L42.4682 24H40.5962L38.5562 19.008H30.1562L28.0682 24H26.1962L33.4202 6.672H35.3402ZM30.7802 17.472H37.9082L34.3802 8.88L30.7802 17.472ZM46.8917 21.912C47.5877 21.912 48.0677 22.392 48.0677 23.088C48.0677 23.808 47.5877 24.312 46.8917 24.312C46.1717 24.312 45.6677 23.808 45.6677 23.088C45.6677 22.392 46.1717 21.912 46.8917 21.912Z" fill="black"/>
<path d="M420.132 24V6.672H426.588C429.372 6.672 431.34 8.616 431.34 11.376C431.34 12.504 430.692 13.848 429.732 14.736L430.164 14.976C431.508 15.864 432.468 17.592 432.468 19.176C432.468 22.008 430.5 24 427.692 24H420.132ZM421.86 22.464H427.716C429.516 22.464 430.788 21.12 430.788 19.224C430.788 17.208 429.516 15.792 427.716 15.792H421.86V22.464ZM421.86 14.256H427.02C428.58 14.184 429.684 12.984 429.684 11.328C429.684 9.504 428.412 8.208 426.612 8.208H421.86V14.256ZM436.364 21.912C437.06 21.912 437.54 22.392 437.54 23.088C437.54 23.808 437.06 24.312 436.364 24.312C435.644 24.312 435.14 23.808 435.14 23.088C435.14 22.392 435.644 21.912 436.364 21.912Z" fill="black"/>
</svg>
