<svg width="722" height="219" viewBox="0 0 722 219" fill="none" xmlns="http://www.w3.org/2000/svg">
<rect x="0.5" y="41.5" width="336" height="177" rx="15.5" fill="white"/>
<rect x="0.5" y="41.5" width="336" height="177" rx="15.5" stroke="#D8D8D8"/>
<path d="M60.032 101.588H61.504V107.172H63.68V108.388H61.504V115.716H60.032V101.588ZM51.136 112.164V102.98H52.592V110.964C54.544 110.948 56.608 110.788 58.816 110.34L58.992 111.54C56.592 112.036 54.416 112.164 52.288 112.164H51.136ZM66.2724 102.116H67.7124V105.748H75.9044V106.932H66.2724V102.116ZM64.5764 109.908V108.724H77.3604V109.908H64.5764ZM66.1764 115.396V111.252H67.6164V114.212H75.9844V115.396H66.1764ZM92.3603 101.604H93.8163V115.748H92.3603V101.604ZM83.1443 112.276V102.932H89.8483V104.148H84.5843V111.044C87.2563 111.044 88.9843 110.964 90.9683 110.58L91.1123 111.812C89.0163 112.212 87.1923 112.276 84.2963 112.276H83.1443ZM97.0006 102.964H103.561V112.228H97.0006V102.964ZM98.4406 111.044H102.137V104.132H98.4406V111.044ZM106.345 115.748V101.588H107.801V115.748H106.345ZM111.561 102.964H121.513V104.356C121.513 106.1 121.513 108.052 121.001 110.932L119.529 110.772C120.057 108.036 120.057 106.052 120.057 104.356V104.164H111.561V102.964ZM110.217 113.812V112.596H115.081V107.604H116.537V112.596H122.985V113.812H110.217ZM134.825 101.604H136.217V115.716H134.825V101.604ZM124.361 107.7C124.361 104.644 125.545 102.74 127.369 102.74C129.065 102.74 130.217 104.372 130.377 107.028H131.993V101.908H133.369V115.028H131.993V108.228H130.377C130.249 110.996 129.097 112.676 127.369 112.676C125.545 112.676 124.361 110.772 124.361 107.7ZM125.689 107.7C125.689 109.972 126.329 111.3 127.369 111.3C128.425 111.3 129.065 109.972 129.065 107.7C129.065 105.444 128.425 104.116 127.369 104.116C126.329 104.116 125.689 105.444 125.689 107.7ZM152.001 101.62H153.457V109.188H152.001V101.62ZM142.161 105.524C142.161 103.604 143.729 102.276 145.873 102.276C148.017 102.276 149.585 103.604 149.585 105.524C149.585 107.46 148.017 108.804 145.873 108.804C143.729 108.804 142.161 107.46 142.161 105.524ZM143.585 105.524C143.585 106.756 144.545 107.572 145.873 107.572C147.201 107.572 148.161 106.756 148.161 105.524C148.161 104.308 147.201 103.476 145.873 103.476C144.545 103.476 143.585 104.308 143.585 105.524ZM144.305 115.54V109.876H145.761V111.476H152.017V109.876H153.457V115.54H144.305ZM145.761 114.372H152.017V112.628H145.761V114.372ZM155.89 103.044H159.33V101.524H160.786V103.044H164.226V104.212H155.89V103.044ZM156.658 107.444C156.658 105.892 158.034 104.868 160.05 104.868C162.082 104.868 163.458 105.892 163.458 107.444C163.458 108.996 162.082 109.988 160.05 109.988C158.034 109.988 156.658 108.996 156.658 107.444ZM157.634 112.34V111.156H166.85V115.732H165.378V112.34H157.634ZM158.05 107.444C158.05 108.308 158.85 108.884 160.05 108.884C161.25 108.884 162.05 108.308 162.05 107.444C162.05 106.548 161.25 106.004 160.05 106.004C158.85 106.004 158.05 106.548 158.05 107.444ZM165.378 110.436V101.62H166.85V105.444H168.882V106.66H166.85V110.436H165.378ZM179.362 101.62H180.834V106.18H182.866V107.396H180.834V112.196H179.362V101.62ZM169.874 104.436V103.268H173.314V101.62H174.77V103.268H178.21V104.436H169.874ZM170.642 107.812C170.642 106.212 172.034 105.156 174.034 105.156C176.05 105.156 177.442 106.212 177.442 107.812C177.442 109.412 176.05 110.452 174.034 110.452C172.034 110.452 170.642 109.412 170.642 107.812ZM171.986 115.428V111.364H173.426V114.228H181.442V115.428H171.986ZM172.034 107.812C172.034 108.74 172.85 109.332 174.034 109.332C175.234 109.332 176.034 108.74 176.034 107.812C176.034 106.868 175.234 106.292 174.034 106.292C172.85 106.292 172.034 106.868 172.034 107.812ZM188.17 103.188H193.162V101.54H194.618V103.188H199.562V104.356H188.17V103.188ZM187.514 111.94V110.772H200.298V111.94H194.618V115.732H193.162V111.94H187.514ZM189.258 107.492C189.258 105.956 190.97 105.108 193.882 105.108C196.794 105.108 198.522 105.956 198.522 107.492C198.522 108.996 196.794 109.86 193.882 109.86C190.97 109.86 189.258 108.996 189.258 107.492ZM190.762 107.492C190.762 108.292 191.866 108.74 193.882 108.74C195.914 108.74 197.018 108.292 197.018 107.492C197.018 106.66 195.914 106.212 193.882 106.212C191.866 106.212 190.762 106.66 190.762 107.492ZM212.122 101.604H213.514V115.716H212.122V101.604ZM201.658 107.7C201.658 104.644 202.842 102.74 204.666 102.74C206.362 102.74 207.514 104.372 207.674 107.028H209.29V101.908H210.666V115.028H209.29V108.228H207.674C207.546 110.996 206.394 112.676 204.666 112.676C202.842 112.676 201.658 110.772 201.658 107.7ZM202.986 107.7C202.986 109.972 203.626 111.3 204.666 111.3C205.722 111.3 206.362 109.972 206.362 107.7C206.362 105.444 205.722 104.116 204.666 104.116C203.626 104.116 202.986 105.444 202.986 107.7ZM229.298 101.62H230.754V109.668H229.298V101.62ZM219.458 105.652C219.458 103.7 221.026 102.34 223.17 102.34C225.314 102.34 226.882 103.7 226.882 105.652C226.882 107.604 225.314 108.964 223.17 108.964C221.026 108.964 219.458 107.604 219.458 105.652ZM220.882 105.652C220.882 106.916 221.842 107.748 223.17 107.748C224.498 107.748 225.458 106.916 225.458 105.652C225.458 104.404 224.498 103.556 223.17 103.556C221.842 103.556 220.882 104.404 220.882 105.652ZM221.586 115.54V110.388H230.754V115.54H221.586ZM223.01 114.372H229.33V111.556H223.01V114.372ZM234.323 102.052H244.707V103.156H242.659V105.636H244.643V106.756H234.387V105.636H236.371V103.156H234.323V102.052ZM233.155 108.98V107.828H245.907V108.98H233.155ZM234.674 111.204V110.116H244.291V113.316H236.147V114.484H244.707V115.588H234.723V112.292H242.851V111.204H234.674ZM237.843 105.636H241.203V103.156H237.843V105.636ZM248.659 102.164H258.387V105.972H250.163V107.604H258.723V108.788H248.675V104.852H256.915V103.332H248.659V102.164ZM247.139 111.348V110.164H259.923V111.348H254.227V115.748H252.787V111.348H247.139ZM262.723 102.868H272.323V104.068H264.163V108.308H272.467V109.492H262.723V102.868ZM261.123 113.844V112.644H273.907V113.844H261.123ZM61.216 122.604H62.608V136.716H61.216V122.604ZM50.752 128.7C50.752 125.644 51.936 123.74 53.76 123.74C55.456 123.74 56.608 125.372 56.768 128.028H58.384V122.908H59.76V136.028H58.384V129.228H56.768C56.64 131.996 55.488 133.676 53.76 133.676C51.936 133.676 50.752 131.772 50.752 128.7ZM52.08 128.7C52.08 130.972 52.72 132.3 53.76 132.3C54.816 132.3 55.456 130.972 55.456 128.7C55.456 126.444 54.816 125.116 53.76 125.116C52.72 125.116 52.08 126.444 52.08 128.7ZM74.8079 123.244H79.6239V123.916C79.6239 124.812 79.6239 126.252 79.2079 128.14L77.7839 127.98C78.1199 126.428 78.1839 125.26 78.1999 124.412H74.8079V123.244ZM68.2799 130.46V129.26H74.1839V126.524H75.6239V129.26H80.9999V130.46H68.2799ZM69.3519 124.412V123.244H73.6559V123.756C73.6559 124.588 73.6559 126.108 72.9839 128.156L71.5759 127.948C72.0879 126.38 72.2159 125.228 72.2319 124.412H69.3519ZM69.6559 133.036V131.852H79.4159V136.668H77.9439V133.036H69.6559ZM85.9518 128.412H98.7038V129.596H85.9518V128.412ZM87.4557 131.836V130.716H97.0718V134.124H88.9278V135.42H97.4878V136.572H87.5038V133.052H95.6318V131.836H87.4557ZM87.6158 127.356V123.036H97.0398V124.22H89.0718V126.204H97.1838V127.356H87.6158ZM103.696 123.676C105.6 123.676 107.008 125.292 107.216 127.932H110.128V122.588H111.584V136.748H110.128V129.1H107.232C107.088 131.852 105.648 133.58 103.696 133.58C101.632 133.58 100.16 131.644 100.16 128.62C100.16 125.58 101.632 123.676 103.696 123.676ZM101.536 128.62C101.536 130.86 102.416 132.268 103.696 132.268C104.992 132.268 105.856 130.86 105.856 128.62C105.856 126.38 104.992 124.988 103.696 124.988C102.416 124.988 101.536 126.38 101.536 128.62ZM123.329 122.588H124.817V128.252H126.993V129.468H124.817V136.716H123.329V122.588ZM113.937 132.972C117.457 131.18 119.377 128.604 119.665 125.292H114.625V124.108H121.137C121.137 128.172 119.345 131.788 114.753 134.092L113.937 132.972ZM129.233 123.964H139.185V125.356C139.185 127.1 139.185 129.052 138.673 131.932L137.201 131.772C137.729 129.036 137.729 127.052 137.729 125.356V125.164H129.233V123.964ZM127.889 134.812V133.596H132.753V128.604H134.209V133.596H140.657V134.812H127.889ZM155.689 122.62H157.145V130.444H155.689V122.62ZM145.609 129.036C147.785 128.3 149.145 126.46 149.145 124.476V123.132H150.617V124.476C150.617 126.38 151.977 128.108 154.105 128.78L153.401 129.932C151.769 129.388 150.537 128.268 149.897 126.812C149.273 128.38 148.009 129.612 146.329 130.188L145.609 129.036ZM147.641 136.54V135.372H149.641V132.412H147.769V131.244H157.241V132.412H155.385V135.372H157.385V136.54H147.641ZM151.081 135.372H153.945V132.412H151.081V135.372ZM168.985 122.588H170.457V128.092H172.697V129.308H170.457V136.748H168.985V122.588ZM160.153 133.26V123.98H166.713V125.148H161.593V132.028C164.009 132.028 165.753 131.932 167.753 131.548L167.913 132.78C165.753 133.18 163.881 133.26 161.273 133.26H160.153ZM174.762 134.012C175.289 134.012 175.642 134.364 175.642 134.892C175.642 135.42 175.289 135.788 174.762 135.788C174.234 135.788 173.866 135.42 173.866 134.892C173.866 134.364 174.234 134.012 174.762 134.012ZM190.97 122.588H192.442V128.172H194.618V129.388H192.442V136.716H190.97V122.588ZM182.074 133.164V123.98H183.53V131.964C185.482 131.948 187.546 131.788 189.753 131.34L189.93 132.54C187.53 133.036 185.354 133.164 183.226 133.164H182.074ZM197.21 123.116H198.65V126.748H206.842V127.932H197.21V123.116ZM195.514 130.908V129.724H208.298V130.908H195.514ZM197.114 136.396V132.252H198.554V135.212H206.922V136.396H197.114ZM219.73 123.244H224.546V123.916C224.546 124.812 224.546 126.252 224.13 128.14L222.706 127.98C223.042 126.428 223.106 125.26 223.122 124.412H219.73V123.244ZM213.202 130.46V129.26H219.106V126.524H220.546V129.26H225.922V130.46H213.202ZM214.274 124.412V123.244H218.578V123.756C218.578 124.588 218.578 126.108 217.906 128.156L216.498 127.948C217.01 126.38 217.138 125.228 217.154 124.412H214.274ZM214.578 133.036V131.852H224.338V136.668H222.866V133.036H214.578ZM240.986 122.62H242.442V130.668H240.986V122.62ZM231.146 126.652C231.146 124.7 232.714 123.34 234.858 123.34C237.002 123.34 238.57 124.7 238.57 126.652C238.57 128.604 237.002 129.964 234.858 129.964C232.714 129.964 231.146 128.604 231.146 126.652ZM232.57 126.652C232.57 127.916 233.53 128.748 234.858 128.748C236.186 128.748 237.146 127.916 237.146 126.652C237.146 125.404 236.186 124.556 234.858 124.556C233.53 124.556 232.57 125.404 232.57 126.652ZM233.274 136.54V131.388H242.442V136.54H233.274ZM234.698 135.372H241.018V132.556H234.698V135.372ZM246.01 123.052H256.394V124.156H254.346V126.636H256.33V127.756H246.074V126.636H248.058V124.156H246.01V123.052ZM244.842 129.98V128.828H257.594V129.98H244.842ZM246.362 132.204V131.116H255.978V134.316H247.834V135.484H256.394V136.588H246.41V133.292H254.538V132.204H246.362ZM249.53 126.636H252.89V124.156H249.53V126.636ZM260.346 123.164H270.074V126.972H261.85V128.604H270.41V129.788H260.362V125.852H268.602V124.332H260.346V123.164ZM258.826 132.348V131.164H271.61V132.348H265.914V136.748H264.474V132.348H258.826ZM274.411 123.868H284.011V125.068H275.851V129.308H284.155V130.492H274.411V123.868ZM272.811 134.844V133.644H285.595V134.844H272.811ZM61.216 143.604H62.608V157.716H61.216V143.604ZM50.752 149.7C50.752 146.644 51.936 144.74 53.76 144.74C55.456 144.74 56.608 146.372 56.768 149.028H58.384V143.908H59.76V157.028H58.384V150.228H56.768C56.64 152.996 55.488 154.676 53.76 154.676C51.936 154.676 50.752 152.772 50.752 149.7ZM52.08 149.7C52.08 151.972 52.72 153.3 53.76 153.3C54.816 153.3 55.456 151.972 55.456 149.7C55.456 147.444 54.816 146.116 53.76 146.116C52.72 146.116 52.08 147.444 52.08 149.7ZM68.2799 149.412H81.0319V150.596H68.2799V149.412ZM69.7839 152.836V151.716H79.3999V155.124H71.2559V156.42H79.8159V157.572H69.8319V154.052H77.9599V152.836H69.7839ZM69.9439 148.356V144.036H79.3679V145.22H71.3999V147.204H79.5119V148.356H69.9439ZM86.0243 144.676C87.9283 144.676 89.3363 146.292 89.5443 148.932H92.4563V143.588H93.9123V157.748H92.4563V150.1H89.5603C89.4163 152.852 87.9763 154.58 86.0243 154.58C83.9603 154.58 82.4883 152.644 82.4883 149.62C82.4883 146.58 83.9603 144.676 86.0243 144.676ZM83.8643 149.62C83.8643 151.86 84.7443 153.268 86.0243 153.268C87.3203 153.268 88.1843 151.86 88.1843 149.62C88.1843 147.38 87.3203 145.988 86.0243 145.988C84.7443 145.988 83.8643 147.38 83.8643 149.62ZM105.657 143.588H107.145V149.252H109.321V150.468H107.145V157.716H105.657V143.588ZM96.2646 153.972C99.7846 152.18 101.705 149.604 101.993 146.292H96.9526V145.108H103.465C103.465 149.172 101.673 152.788 97.0806 155.092L96.2646 153.972ZM111.561 144.964H121.513V146.356C121.513 148.1 121.513 150.052 121.001 152.932L119.529 152.772C120.057 150.036 120.057 148.052 120.057 146.356V146.164H111.561V144.964ZM110.217 155.812V154.596H115.081V149.604H116.537V154.596H122.985V155.812H110.217ZM137.425 143.62H138.897V146.58H140.913V147.78H138.897V150.756H137.425V143.62ZM128.449 150.068V144.372H134.993V150.068H128.449ZM129.857 152.548V151.396H138.897V154.964H131.329V156.372H139.377V157.54H129.873V153.876H137.457V152.548H129.857ZM129.889 148.916H133.569V145.524H129.889V148.916ZM155.753 143.604H157.209V153.124H155.753V148.74H152.857V147.524H155.753V143.604ZM145.785 151.14C149.065 150.116 150.953 148.276 151.225 145.892H146.473V144.708H152.793C152.793 148.404 150.505 150.98 146.409 152.292L145.785 151.14ZM147.241 156.532C149.865 156.084 151.881 154.484 151.881 152.548V151.94H153.337V152.548C153.337 154.468 155.337 156.052 157.961 156.5L157.369 157.652C155.241 157.252 153.465 156.18 152.617 154.612C151.769 156.196 149.961 157.284 147.817 157.7L147.241 156.532ZM169.657 143.588H171.113V157.748H169.657V143.588ZM160.025 149.62C160.025 146.58 161.529 144.676 163.641 144.676C165.737 144.676 167.257 146.58 167.257 149.62C167.257 152.644 165.737 154.58 163.641 154.58C161.529 154.58 160.025 152.644 160.025 149.62ZM161.433 149.62C161.433 151.86 162.345 153.268 163.641 153.268C164.937 153.268 165.849 151.86 165.849 149.62C165.849 147.38 164.937 145.988 163.641 145.988C162.345 145.988 161.433 147.38 161.433 149.62ZM182.97 143.588H184.442V149.092H186.682V150.308H184.442V157.748H182.97V143.588ZM174.138 154.26V144.98H180.698V146.148H175.578V153.028C177.994 153.028 179.738 152.932 181.738 152.548L181.898 153.78C179.738 154.18 177.866 154.26 175.258 154.26H174.138ZM188.746 155.012C189.274 155.012 189.626 155.364 189.626 155.892C189.626 156.42 189.274 156.788 188.746 156.788C188.218 156.788 187.85 156.42 187.85 155.892C187.85 155.364 188.218 155.012 188.746 155.012Z" fill="#42464A"/>
<rect x="385.5" y="41.5" width="336" height="177" rx="15.5" fill="white"/>
<rect x="385.5" y="41.5" width="336" height="177" rx="15.5" stroke="#D8D8D8"/>
<path d="M440.032 101.588H441.504V107.172H443.68V108.388H441.504V115.716H440.032V101.588ZM431.136 112.164V102.98H432.592V110.964C434.544 110.948 436.608 110.788 438.816 110.34L438.992 111.54C436.592 112.036 434.416 112.164 432.288 112.164H431.136ZM446.272 102.116H447.712V105.748H455.904V106.932H446.272V102.116ZM444.576 109.908V108.724H457.36V109.908H444.576ZM446.176 115.396V111.252H447.616V114.212H455.984V115.396H446.176ZM472.36 101.604H473.816V115.748H472.36V101.604ZM463.144 112.276V102.932H469.848V104.148H464.584V111.044C467.256 111.044 468.984 110.964 470.968 110.58L471.112 111.812C469.016 112.212 467.192 112.276 464.296 112.276H463.144ZM477.001 102.964H483.561V112.228H477.001V102.964ZM478.441 111.044H482.137V104.132H478.441V111.044ZM486.345 115.748V101.588H487.801V115.748H486.345ZM491.561 102.964H501.513V104.356C501.513 106.1 501.513 108.052 501.001 110.932L499.529 110.772C500.057 108.036 500.057 106.052 500.057 104.356V104.164H491.561V102.964ZM490.217 113.812V112.596H495.081V107.604H496.537V112.596H502.985V113.812H490.217ZM514.825 101.604H516.217V115.716H514.825V101.604ZM504.361 107.7C504.361 104.644 505.545 102.74 507.369 102.74C509.065 102.74 510.217 104.372 510.377 107.028H511.993V101.908H513.369V115.028H511.993V108.228H510.377C510.249 110.996 509.097 112.676 507.369 112.676C505.545 112.676 504.361 110.772 504.361 107.7ZM505.689 107.7C505.689 109.972 506.329 111.3 507.369 111.3C508.425 111.3 509.065 109.972 509.065 107.7C509.065 105.444 508.425 104.116 507.369 104.116C506.329 104.116 505.689 105.444 505.689 107.7ZM532.001 101.62H533.457V109.188H532.001V101.62ZM522.161 105.524C522.161 103.604 523.729 102.276 525.873 102.276C528.017 102.276 529.585 103.604 529.585 105.524C529.585 107.46 528.017 108.804 525.873 108.804C523.729 108.804 522.161 107.46 522.161 105.524ZM523.585 105.524C523.585 106.756 524.545 107.572 525.873 107.572C527.201 107.572 528.161 106.756 528.161 105.524C528.161 104.308 527.201 103.476 525.873 103.476C524.545 103.476 523.585 104.308 523.585 105.524ZM524.305 115.54V109.876H525.761V111.476H532.017V109.876H533.457V115.54H524.305ZM525.761 114.372H532.017V112.628H525.761V114.372ZM535.89 103.044H539.33V101.524H540.786V103.044H544.226V104.212H535.89V103.044ZM536.658 107.444C536.658 105.892 538.034 104.868 540.05 104.868C542.082 104.868 543.458 105.892 543.458 107.444C543.458 108.996 542.082 109.988 540.05 109.988C538.034 109.988 536.658 108.996 536.658 107.444ZM537.634 112.34V111.156H546.85V115.732H545.378V112.34H537.634ZM538.05 107.444C538.05 108.308 538.85 108.884 540.05 108.884C541.25 108.884 542.05 108.308 542.05 107.444C542.05 106.548 541.25 106.004 540.05 106.004C538.85 106.004 538.05 106.548 538.05 107.444ZM545.378 110.436V101.62H546.85V105.444H548.882V106.66H546.85V110.436H545.378ZM559.362 101.62H560.834V106.18H562.866V107.396H560.834V112.196H559.362V101.62ZM549.874 104.436V103.268H553.314V101.62H554.77V103.268H558.21V104.436H549.874ZM550.642 107.812C550.642 106.212 552.034 105.156 554.034 105.156C556.05 105.156 557.442 106.212 557.442 107.812C557.442 109.412 556.05 110.452 554.034 110.452C552.034 110.452 550.642 109.412 550.642 107.812ZM551.986 115.428V111.364H553.426V114.228H561.442V115.428H551.986ZM552.034 107.812C552.034 108.74 552.85 109.332 554.034 109.332C555.234 109.332 556.034 108.74 556.034 107.812C556.034 106.868 555.234 106.292 554.034 106.292C552.85 106.292 552.034 106.868 552.034 107.812ZM568.17 103.188H573.162V101.54H574.618V103.188H579.562V104.356H568.17V103.188ZM567.514 111.94V110.772H580.298V111.94H574.618V115.732H573.162V111.94H567.514ZM569.258 107.492C569.258 105.956 570.97 105.108 573.882 105.108C576.794 105.108 578.522 105.956 578.522 107.492C578.522 108.996 576.794 109.86 573.882 109.86C570.97 109.86 569.258 108.996 569.258 107.492ZM570.762 107.492C570.762 108.292 571.866 108.74 573.882 108.74C575.914 108.74 577.018 108.292 577.018 107.492C577.018 106.66 575.914 106.212 573.882 106.212C571.866 106.212 570.762 106.66 570.762 107.492ZM592.122 101.604H593.514V115.716H592.122V101.604ZM581.658 107.7C581.658 104.644 582.842 102.74 584.666 102.74C586.362 102.74 587.514 104.372 587.674 107.028H589.29V101.908H590.666V115.028H589.29V108.228H587.674C587.546 110.996 586.394 112.676 584.666 112.676C582.842 112.676 581.658 110.772 581.658 107.7ZM582.986 107.7C582.986 109.972 583.626 111.3 584.666 111.3C585.722 111.3 586.362 109.972 586.362 107.7C586.362 105.444 585.722 104.116 584.666 104.116C583.626 104.116 582.986 105.444 582.986 107.7ZM440.72 122.62H442.176V130.668H440.72V122.62ZM430.88 126.652C430.88 124.7 432.448 123.34 434.592 123.34C436.736 123.34 438.304 124.7 438.304 126.652C438.304 128.604 436.736 129.964 434.592 129.964C432.448 129.964 430.88 128.604 430.88 126.652ZM432.304 126.652C432.304 127.916 433.264 128.748 434.592 128.748C435.92 128.748 436.88 127.916 436.88 126.652C436.88 125.404 435.92 124.556 434.592 124.556C433.264 124.556 432.304 125.404 432.304 126.652ZM433.008 136.54V131.388H442.176V136.54H433.008ZM434.432 135.372H440.752V132.556H434.432V135.372ZM445.744 123.052H456.128V124.156H454.08V126.636H456.064V127.756H445.808V126.636H447.792V124.156H445.744V123.052ZM444.576 129.98V128.828H457.328V129.98H444.576ZM446.096 132.204V131.116H455.712V134.316H447.568V135.484H456.128V136.588H446.144V133.292H454.272V132.204H446.096ZM449.264 126.636H452.624V124.156H449.264V126.636ZM460.081 123.164H469.809V126.972H461.585V128.604H470.145V129.788H460.097V125.852H468.337V124.332H460.081V123.164ZM458.561 132.348V131.164H471.345V132.348H465.649V136.748H464.209V132.348H458.561ZM474.145 123.868H483.745V125.068H475.585V129.308H483.889V130.492H474.145V123.868ZM472.545 134.844V133.644H485.329V134.844H472.545ZM497.154 122.604H498.546V136.716H497.154V122.604ZM486.69 128.7C486.69 125.644 487.874 123.74 489.698 123.74C491.394 123.74 492.546 125.372 492.706 128.028H494.322V122.908H495.698V136.028H494.322V129.228H492.706C492.578 131.996 491.426 133.676 489.698 133.676C487.874 133.676 486.69 131.772 486.69 128.7ZM488.018 128.7C488.018 130.972 488.658 132.3 489.698 132.3C490.754 132.3 491.394 130.972 491.394 128.7C491.394 126.444 490.754 125.116 489.698 125.116C488.658 125.116 488.018 126.444 488.018 128.7ZM510.745 123.244H515.561V123.916C515.561 124.812 515.561 126.252 515.145 128.14L513.721 127.98C514.057 126.428 514.121 125.26 514.137 124.412H510.745V123.244ZM504.217 130.46V129.26H510.121V126.524H511.561V129.26H516.937V130.46H504.217ZM505.289 124.412V123.244H509.593V123.756C509.593 124.588 509.593 126.108 508.921 128.156L507.513 127.948C508.025 126.38 508.153 125.228 508.169 124.412H505.289ZM505.593 133.036V131.852H515.353V136.668H513.881V133.036H505.593ZM521.889 128.412H534.641V129.596H521.889V128.412ZM523.393 131.836V130.716H533.009V134.124H524.865V135.42H533.425V136.572H523.441V133.052H531.569V131.836H523.393ZM523.553 127.356V123.036H532.977V124.22H525.009V126.204H533.121V127.356H523.553ZM539.634 123.676C541.538 123.676 542.946 125.292 543.154 127.932H546.066V122.588H547.522V136.748H546.066V129.1H543.17C543.026 131.852 541.586 133.58 539.634 133.58C537.57 133.58 536.098 131.644 536.098 128.62C536.098 125.58 537.57 123.676 539.634 123.676ZM537.474 128.62C537.474 130.86 538.354 132.268 539.634 132.268C540.93 132.268 541.794 130.86 541.794 128.62C541.794 126.38 540.93 124.988 539.634 124.988C538.354 124.988 537.474 126.38 537.474 128.62ZM559.266 122.588H560.754V128.252H562.93V129.468H560.754V136.716H559.266V122.588ZM549.874 132.972C553.394 131.18 555.314 128.604 555.602 125.292H550.562V124.108H557.074C557.074 128.172 555.282 131.788 550.69 134.092L549.874 132.972ZM565.17 123.964H575.122V125.356C575.122 127.1 575.122 129.052 574.61 131.932L573.138 131.772C573.666 129.036 573.666 127.052 573.666 125.356V125.164H565.17V123.964ZM563.826 134.812V133.596H568.69V128.604H570.146V133.596H576.594V134.812H563.826ZM591.626 122.62H593.082V130.444H591.626V122.62ZM581.546 129.036C583.722 128.3 585.082 126.46 585.082 124.476V123.132H586.554V124.476C586.554 126.38 587.914 128.108 590.042 128.78L589.338 129.932C587.706 129.388 586.474 128.268 585.834 126.812C585.21 128.38 583.946 129.612 582.266 130.188L581.546 129.036ZM583.578 136.54V135.372H585.578V132.412H583.706V131.244H593.178V132.412H591.322V135.372H593.322V136.54H583.578ZM587.018 135.372H589.882V132.412H587.018V135.372ZM604.923 122.588H606.395V128.092H608.635V129.308H606.395V136.748H604.923V122.588ZM596.091 133.26V123.98H602.651V125.148H597.531V132.028C599.947 132.028 601.691 131.932 603.691 131.548L603.851 132.78C601.691 133.18 599.819 133.26 597.211 133.26H596.091ZM610.699 134.012C611.227 134.012 611.579 134.364 611.579 134.892C611.579 135.42 611.227 135.788 610.699 135.788C610.171 135.788 609.803 135.42 609.803 134.892C609.803 134.364 610.171 134.012 610.699 134.012ZM440.032 143.588H441.504V149.172H443.68V150.388H441.504V157.716H440.032V143.588ZM431.136 154.164V144.98H432.592V152.964C434.544 152.948 436.608 152.788 438.816 152.34L438.992 153.54C436.592 154.036 434.416 154.164 432.288 154.164H431.136ZM446.272 144.116H447.712V147.748H455.904V148.932H446.272V144.116ZM444.576 151.908V150.724H457.36V151.908H444.576ZM446.176 157.396V153.252H447.616V156.212H455.984V157.396H446.176ZM468.792 144.244H473.608V144.916C473.608 145.812 473.608 147.252 473.192 149.14L471.768 148.98C472.104 147.428 472.168 146.26 472.184 145.412H468.792V144.244ZM462.264 151.46V150.26H468.168V147.524H469.608V150.26H474.984V151.46H462.264ZM463.336 145.412V144.244H467.64V144.756C467.64 145.588 467.64 147.108 466.968 149.156L465.56 148.948C466.072 147.38 466.2 146.228 466.216 145.412H463.336ZM463.64 154.036V152.852H473.4V157.668H471.928V154.036H463.64ZM490.048 143.62H491.504V151.668H490.048V143.62ZM480.208 147.652C480.208 145.7 481.776 144.34 483.92 144.34C486.064 144.34 487.632 145.7 487.632 147.652C487.632 149.604 486.064 150.964 483.92 150.964C481.776 150.964 480.208 149.604 480.208 147.652ZM481.632 147.652C481.632 148.916 482.592 149.748 483.92 149.748C485.248 149.748 486.208 148.916 486.208 147.652C486.208 146.404 485.248 145.556 483.92 145.556C482.592 145.556 481.632 146.404 481.632 147.652ZM482.336 157.54V152.388H491.504V157.54H482.336ZM483.76 156.372H490.08V153.556H483.76V156.372ZM495.073 144.052H505.457V145.156H503.409V147.636H505.393V148.756H495.137V147.636H497.121V145.156H495.073V144.052ZM493.905 150.98V149.828H506.657V150.98H493.905ZM495.424 153.204V152.116H505.041V155.316H496.897V156.484H505.457V157.588H495.473V154.292H503.601V153.204H495.424ZM498.593 147.636H501.953V145.156H498.593V147.636ZM509.409 144.164H519.137V147.972H510.913V149.604H519.473V150.788H509.425V146.852H517.665V145.332H509.409V144.164ZM507.889 153.348V152.164H520.673V153.348H514.977V157.748H513.537V153.348H507.889ZM523.473 144.868H533.073V146.068H524.913V150.308H533.217V151.492H523.473V144.868ZM521.873 155.844V154.644H534.657V155.844H521.873ZM546.482 143.604H547.874V157.716H546.482V143.604ZM536.018 149.7C536.018 146.644 537.202 144.74 539.026 144.74C540.722 144.74 541.874 146.372 542.034 149.028H543.65V143.908H545.026V157.028H543.65V150.228H542.034C541.906 152.996 540.754 154.676 539.026 154.676C537.202 154.676 536.018 152.772 536.018 149.7ZM537.346 149.7C537.346 151.972 537.986 153.3 539.026 153.3C540.082 153.3 540.722 151.972 540.722 149.7C540.722 147.444 540.082 146.116 539.026 146.116C537.986 146.116 537.346 147.444 537.346 149.7ZM553.546 149.412H566.298V150.596H553.546V149.412ZM555.049 152.836V151.716H564.666V155.124H556.522V156.42H565.082V157.572H555.098V154.052H563.226V152.836H555.049ZM555.21 148.356V144.036H564.634V145.22H556.666V147.204H564.778V148.356H555.21ZM571.29 144.676C573.194 144.676 574.602 146.292 574.81 148.932H577.722V143.588H579.178V157.748H577.722V150.1H574.826C574.682 152.852 573.242 154.58 571.29 154.58C569.226 154.58 567.754 152.644 567.754 149.62C567.754 146.58 569.226 144.676 571.29 144.676ZM569.13 149.62C569.13 151.86 570.01 153.268 571.29 153.268C572.586 153.268 573.45 151.86 573.45 149.62C573.45 147.38 572.586 145.988 571.29 145.988C570.01 145.988 569.13 147.38 569.13 149.62ZM590.922 143.588H592.41V149.252H594.586V150.468H592.41V157.716H590.922V143.588ZM581.53 153.972C585.05 152.18 586.97 149.604 587.258 146.292H582.218V145.108H588.73C588.73 149.172 586.938 152.788 582.346 155.092L581.53 153.972ZM596.827 144.964H606.779V146.356C606.779 148.1 606.779 150.052 606.267 152.932L604.795 152.772C605.323 150.036 605.323 148.052 605.323 146.356V146.164H596.827V144.964ZM595.483 155.812V154.596H600.347V149.604H601.803V154.596H608.251V155.812H595.483ZM622.691 143.62H624.163V146.58H626.179V147.78H624.163V150.756H622.691V143.62ZM613.715 150.068V144.372H620.259V150.068H613.715ZM615.123 152.548V151.396H624.163V154.964H616.595V156.372H624.643V157.54H615.139V153.876H622.723V152.548H615.123ZM615.155 148.916H618.835V145.524H615.155V148.916ZM641.018 143.604H642.474V153.124H641.018V148.74H638.122V147.524H641.018V143.604ZM631.05 151.14C634.33 150.116 636.218 148.276 636.49 145.892H631.738V144.708H638.058C638.058 148.404 635.77 150.98 631.674 152.292L631.05 151.14ZM632.506 156.532C635.13 156.084 637.146 154.484 637.146 152.548V151.94H638.602V152.548C638.602 154.468 640.602 156.052 643.226 156.5L642.634 157.652C640.506 157.252 638.73 156.18 637.882 154.612C637.034 156.196 635.226 157.284 633.082 157.7L632.506 156.532ZM654.923 143.588H656.379V157.748H654.923V143.588ZM645.291 149.62C645.291 146.58 646.795 144.676 648.907 144.676C651.003 144.676 652.523 146.58 652.523 149.62C652.523 152.644 651.003 154.58 648.907 154.58C646.795 154.58 645.291 152.644 645.291 149.62ZM646.699 149.62C646.699 151.86 647.611 153.268 648.907 153.268C650.203 153.268 651.115 151.86 651.115 149.62C651.115 147.38 650.203 145.988 648.907 145.988C647.611 145.988 646.699 147.38 646.699 149.62ZM668.235 143.588H669.707V149.092H671.947V150.308H669.707V157.748H668.235V143.588ZM659.403 154.26V144.98H665.963V146.148H660.843V153.028C663.259 153.028 665.003 152.932 667.003 152.548L667.163 153.78C665.003 154.18 663.131 154.26 660.523 154.26H659.403ZM674.012 155.012C674.539 155.012 674.892 155.364 674.892 155.892C674.892 156.42 674.539 156.788 674.012 156.788C673.484 156.788 673.116 156.42 673.116 155.892C673.116 155.364 673.484 155.012 674.012 155.012Z" fill="#42464A"/>
<path d="M35.3402 6.672L42.4682 24H40.5962L38.5562 19.008H30.1562L28.0682 24H26.1962L33.4202 6.672H35.3402ZM30.7802 17.472H37.9082L34.3802 8.88L30.7802 17.472ZM46.8917 21.912C47.5877 21.912 48.0677 22.392 48.0677 23.088C48.0677 23.808 47.5877 24.312 46.8917 24.312C46.1717 24.312 45.6677 23.808 45.6677 23.088C45.6677 22.392 46.1717 21.912 46.8917 21.912Z" fill="black"/>
<path d="M420.132 24V6.672H426.588C429.372 6.672 431.34 8.616 431.34 11.376C431.34 12.504 430.692 13.848 429.732 14.736L430.164 14.976C431.508 15.864 432.468 17.592 432.468 19.176C432.468 22.008 430.5 24 427.692 24H420.132ZM421.86 22.464H427.716C429.516 22.464 430.788 21.12 430.788 19.224C430.788 17.208 429.516 15.792 427.716 15.792H421.86V22.464ZM421.86 14.256H427.02C428.58 14.184 429.684 12.984 429.684 11.328C429.684 9.504 428.412 8.208 426.612 8.208H421.86V14.256ZM436.364 21.912C437.06 21.912 437.54 22.392 437.54 23.088C437.54 23.808 437.06 24.312 436.364 24.312C435.644 24.312 435.14 23.808 435.14 23.088C435.14 22.392 435.644 21.912 436.364 21.912Z" fill="black"/>
</svg>
