<svg width="722" height="219" viewBox="0 0 722 219" fill="none" xmlns="http://www.w3.org/2000/svg">
<rect x="0.5" y="41.5" width="336" height="177" rx="15.5" fill="white"/>
<rect x="0.5" y="41.5" width="336" height="177" rx="15.5" stroke="#D8D8D8"/>
<rect x="24" y="82" width="289" height="96" rx="12" fill="#F2F5F8"/>
<path d="M54.896 117.952C56.4533 117.952 57.6907 118.192 58.608 118.672C59.5253 119.152 59.984 119.813 59.984 120.656C59.984 121.211 59.776 121.691 59.36 122.096C58.944 122.501 58.352 122.811 57.584 123.024C56.8267 123.237 55.9307 123.344 54.896 123.344C53.872 123.344 52.9813 123.237 52.224 123.024C51.4667 122.811 50.88 122.501 50.464 122.096C50.048 121.691 49.84 121.211 49.84 120.656C49.84 120.101 50.048 119.621 50.464 119.216C50.88 118.8 51.4667 118.485 52.224 118.272C52.9813 118.059 53.872 117.952 54.896 117.952ZM48.528 115.424H53.36V112.912H55.344V115.424H61.44V117.008H48.528V115.424ZM49.984 109.664H59.888V110.832C59.888 111.6 59.8667 112.267 59.824 112.832C59.7813 113.397 59.6747 114.011 59.504 114.672L57.552 114.464C57.7013 113.867 57.7973 113.323 57.84 112.832C57.8933 112.331 57.92 111.797 57.92 111.232H49.984V109.664ZM51.808 120.656C51.808 121.04 52.0747 121.339 52.608 121.552C53.152 121.755 53.9147 121.856 54.896 121.856C55.8987 121.856 56.6667 121.755 57.2 121.552C57.744 121.349 58.016 121.051 58.016 120.656C58.016 120.261 57.744 119.963 57.2 119.76C56.6667 119.547 55.8987 119.44 54.896 119.44C53.9147 119.44 53.152 119.547 52.608 119.76C52.0747 119.963 51.808 120.261 51.808 120.656ZM70.9604 110.384V112.016H67.9524V112.928C67.9524 113.717 68.091 114.496 68.3684 115.264C68.6457 116.032 69.051 116.72 69.5844 117.328C70.1284 117.936 70.779 118.4 71.5364 118.72L70.4484 120.288C69.6484 119.936 68.955 119.424 68.3684 118.752C67.7817 118.08 67.323 117.296 66.9924 116.4C66.6617 117.381 66.1977 118.24 65.6004 118.976C65.003 119.712 64.299 120.267 63.4884 120.64L62.3684 119.072C63.1257 118.731 63.771 118.235 64.3044 117.584C64.8484 116.933 65.259 116.203 65.5364 115.392C65.8137 114.581 65.9524 113.76 65.9524 112.928V112.016H62.9284V110.384H70.9604ZM72.3524 109.008H74.3364V123.344H72.3524V109.008ZM81.6968 110.128V112.24C81.6968 113.605 81.9794 114.864 82.5448 116.016C83.1208 117.168 83.9581 118.011 85.0568 118.544L83.8568 120.112C83.1208 119.739 82.4914 119.216 81.9688 118.544C81.4461 117.872 81.0301 117.088 80.7208 116.192C80.4008 117.152 79.9581 117.995 79.3928 118.72C78.8274 119.445 78.1554 120 77.3768 120.384L76.1768 118.784C76.9448 118.421 77.5954 117.899 78.1288 117.216C78.6621 116.533 79.0621 115.765 79.3288 114.912C79.5954 114.048 79.7288 113.157 79.7288 112.24V110.128H81.6968ZM85.6808 109.008H87.6648V114.544H89.7928V116.192H87.6648V123.344H85.6808V109.008ZM101.713 109.008V112.688H103.649V114.304H101.713V118.096H99.7291V109.008H101.713ZM90.4651 110.384H93.6811V108.896H95.6651V110.384H98.8971V111.936H90.4651V110.384ZM91.1691 114.992C91.1691 114.491 91.3185 114.048 91.6171 113.664C91.9158 113.269 92.3318 112.965 92.8651 112.752C93.3985 112.539 94.0065 112.432 94.6891 112.432C95.3718 112.432 95.9745 112.539 96.4971 112.752C97.0305 112.965 97.4465 113.269 97.7451 113.664C98.0438 114.048 98.1931 114.491 98.1931 114.992C98.1931 115.504 98.0438 115.957 97.7451 116.352C97.4571 116.736 97.0465 117.035 96.5131 117.248C95.9798 117.461 95.3718 117.568 94.6891 117.568C94.0065 117.568 93.3985 117.461 92.8651 117.248C92.3318 117.035 91.9158 116.736 91.6171 116.352C91.3185 115.957 91.1691 115.504 91.1691 114.992ZM92.2731 120.8C92.2731 120 92.6998 119.376 93.5531 118.928C94.4171 118.48 95.5958 118.256 97.0891 118.256C98.5718 118.256 99.7398 118.48 100.593 118.928C101.446 119.376 101.873 120 101.873 120.8C101.873 121.6 101.446 122.224 100.593 122.672C99.7398 123.12 98.5718 123.344 97.0891 123.344C95.5958 123.344 94.4171 123.12 93.5531 122.672C92.6998 122.224 92.2731 121.6 92.2731 120.8ZM93.0731 114.992C93.0731 115.344 93.2171 115.621 93.5051 115.824C93.8038 116.027 94.1985 116.128 94.6891 116.128C95.1691 116.128 95.5531 116.027 95.8411 115.824C96.1398 115.621 96.2891 115.344 96.2891 114.992C96.2891 114.64 96.1398 114.368 95.8411 114.176C95.5531 113.984 95.1691 113.888 94.6891 113.888C94.1878 113.888 93.7931 113.984 93.5051 114.176C93.2171 114.368 93.0731 114.64 93.0731 114.992ZM94.2571 120.8C94.2571 121.152 94.4971 121.419 94.9771 121.6C95.4571 121.771 96.1611 121.856 97.0891 121.856C98.0171 121.856 98.7211 121.771 99.2011 121.6C99.6811 121.419 99.9211 121.152 99.9211 120.8C99.9211 120.448 99.6811 120.187 99.2011 120.016C98.7211 119.835 98.0171 119.744 97.0891 119.744C96.1611 119.744 95.4571 119.835 94.9771 120.016C94.4971 120.187 94.2571 120.448 94.2571 120.8Z" fill="#42464A"/>
<path d="M60.368 136.992V151.376H58.384V136.992H60.368ZM49.376 138.288H56.272V139.888H51.328V146.288C52.7147 146.277 53.84 146.245 54.704 146.192C55.568 146.139 56.4213 146.027 57.264 145.856L57.44 147.488C56.5227 147.68 55.5733 147.803 54.592 147.856C53.6213 147.909 52.288 147.936 50.592 147.936H49.376V138.288ZM70.0484 138.288V147.904H63.2004V138.288H70.0484ZM68.1124 146.336V139.856H65.1524V146.336H68.1124ZM72.3684 136.976H74.3524V151.36H72.3684V136.976ZM88.1608 138.224V139.616C88.1608 140.843 88.1288 141.952 88.0648 142.944C88.0114 143.936 87.8621 145.104 87.6168 146.448L85.6168 146.24C85.8621 145.024 86.0168 143.936 86.0808 142.976C86.1448 142.005 86.1768 140.955 86.1768 139.824H77.7928V138.224H88.1608ZM76.4808 147.952H81.1048V143.024H83.0888V147.952H89.4408V149.584H76.4808V147.952ZM106.025 137.008V144.704H104.025V137.008H106.025ZM94.3446 140.976C94.3446 140.325 94.51 139.744 94.8406 139.232C95.182 138.72 95.646 138.32 96.2326 138.032C96.83 137.744 97.4966 137.6 98.2326 137.6C98.9686 137.6 99.63 137.744 100.217 138.032C100.814 138.32 101.278 138.72 101.609 139.232C101.95 139.744 102.121 140.325 102.121 140.976C102.121 141.627 101.95 142.208 101.609 142.72C101.278 143.232 100.814 143.632 100.217 143.92C99.63 144.208 98.9686 144.352 98.2326 144.352C97.4966 144.352 96.83 144.208 96.2326 143.92C95.646 143.632 95.182 143.232 94.8406 142.72C94.51 142.208 94.3446 141.627 94.3446 140.976ZM96.2806 140.976C96.2806 141.509 96.462 141.931 96.8246 142.24C97.1873 142.549 97.6566 142.704 98.2326 142.704C98.8086 142.704 99.278 142.549 99.6406 142.24C100.003 141.931 100.185 141.509 100.185 140.976C100.185 140.443 100.003 140.021 99.6406 139.712C99.278 139.392 98.8086 139.232 98.2326 139.232C97.6566 139.232 97.1873 139.392 96.8246 139.712C96.462 140.021 96.2806 140.443 96.2806 140.976ZM96.5206 145.344H98.4886V146.704H104.057V145.344H106.025V151.184H96.5206V145.344ZM104.057 149.6V148.24H98.4886V149.6H104.057ZM111.353 138.272V136.912H113.337V138.272H116.569V139.84H108.137V138.272H111.353ZM108.841 142.96C108.841 142.437 108.99 141.979 109.289 141.584C109.588 141.179 110.004 140.869 110.537 140.656C111.07 140.432 111.678 140.32 112.361 140.32C113.044 140.32 113.646 140.432 114.169 140.656C114.702 140.869 115.118 141.179 115.417 141.584C115.716 141.979 115.865 142.437 115.865 142.96C115.865 143.483 115.716 143.947 115.417 144.352C115.118 144.747 114.702 145.056 114.169 145.28C113.646 145.493 113.044 145.6 112.361 145.6C111.678 145.6 111.07 145.493 110.537 145.28C110.004 145.056 109.588 144.747 109.289 144.352C108.99 143.947 108.841 143.483 108.841 142.96ZM109.849 146.592H119.385V151.344H117.401V148.176H109.849V146.592ZM110.745 142.96C110.745 143.323 110.889 143.605 111.177 143.808C111.476 144.011 111.87 144.112 112.361 144.112C112.841 144.112 113.225 144.011 113.513 143.808C113.812 143.605 113.961 143.323 113.961 142.96C113.961 142.597 113.817 142.32 113.529 142.128C113.241 141.925 112.852 141.824 112.361 141.824C111.86 141.824 111.465 141.92 111.177 142.112C110.889 142.304 110.745 142.587 110.745 142.96ZM117.401 137.008H119.385V140.72H121.321V142.336H119.385V145.984H117.401V137.008ZM132.089 139.152V137.008H134.073V144.288H132.089V140.736H129.417V139.152H132.089ZM121.993 142.832C123.124 142.491 123.972 141.931 124.537 141.152C125.113 140.373 125.401 139.493 125.401 138.512V137.456H127.401V138.512C127.401 139.419 127.673 140.245 128.217 140.992C128.772 141.728 129.583 142.261 130.649 142.592L129.625 144.112C128.889 143.867 128.249 143.515 127.705 143.056C127.172 142.587 126.745 142.037 126.425 141.408C126.105 142.112 125.657 142.72 125.081 143.232C124.516 143.744 123.828 144.128 123.017 144.384L121.993 142.832ZM124.633 144.912H134.073V148.72H126.601V149.648H134.489V151.184H124.649V147.28H132.105V146.432H124.633V144.912ZM148.074 137.008V145.408H146.074V143.536H143.434V144.608H136.682V138.032H143.434V139.088H146.074V137.008H148.074ZM138.314 148.544C138.314 147.68 138.751 147.003 139.626 146.512C140.5 146.021 141.695 145.776 143.21 145.776C144.724 145.776 145.919 146.021 146.794 146.512C147.679 147.003 148.122 147.68 148.122 148.544C148.122 149.429 147.684 150.117 146.81 150.608C145.935 151.099 144.735 151.344 143.21 151.344C141.684 151.344 140.484 151.099 139.61 150.608C138.746 150.117 138.314 149.429 138.314 148.544ZM141.498 143.056V139.6H138.634V143.056H141.498ZM140.298 148.544C140.298 148.971 140.543 149.291 141.034 149.504C141.535 149.717 142.26 149.824 143.21 149.824C144.17 149.824 144.895 149.717 145.386 149.504C145.887 149.291 146.138 148.971 146.138 148.544C146.138 148.128 145.887 147.819 145.386 147.616C144.895 147.403 144.17 147.296 143.21 147.296C142.26 147.296 141.535 147.403 141.034 147.616C140.543 147.819 140.298 148.128 140.298 148.544ZM146.074 141.968V140.672H143.434V141.968H146.074ZM161.994 137.008V151.344H160.01V137.008H161.994ZM150.138 147.312C151.685 147.312 152.885 147.301 153.738 147.28V146.032C152.959 145.883 152.335 145.579 151.866 145.12C151.407 144.651 151.178 144.085 151.178 143.424C151.178 142.901 151.327 142.437 151.626 142.032C151.925 141.627 152.341 141.312 152.874 141.088C153.418 140.864 154.037 140.752 154.73 140.752C155.423 140.752 156.042 140.864 156.586 141.088C157.13 141.312 157.551 141.627 157.85 142.032C158.149 142.437 158.298 142.901 158.298 143.424C158.298 144.096 158.063 144.667 157.594 145.136C157.135 145.595 156.511 145.899 155.722 146.048V147.2C157.034 147.125 158.213 147.024 159.258 146.896L159.386 148.32C158.01 148.576 156.607 148.741 155.178 148.816C153.749 148.88 152.149 148.912 150.378 148.912L150.138 147.312ZM150.41 138.592H153.738V137.056H155.722V138.592H159.05V140.144H150.41V138.592ZM153.066 143.424C153.066 143.808 153.215 144.107 153.514 144.32C153.823 144.523 154.229 144.624 154.73 144.624C155.242 144.624 155.647 144.523 155.946 144.32C156.255 144.107 156.41 143.808 156.41 143.424C156.41 143.051 156.255 142.763 155.946 142.56C155.647 142.347 155.242 142.24 154.73 142.24C154.229 142.24 153.823 142.347 153.514 142.56C153.215 142.763 153.066 143.051 153.066 143.424ZM180.002 136.992V151.328H178.098V144.032H176.786V150.704H174.914V137.36H176.786V142.432H178.098V136.992H180.002ZM167.57 147.008C168.999 146.165 170.055 145.211 170.738 144.144C171.431 143.067 171.842 141.803 171.97 140.352H168.274V138.768H173.922C173.922 140.912 173.533 142.773 172.754 144.352C171.975 145.931 170.631 147.275 168.722 148.384L167.57 147.008ZM187.426 144.768V146.928C188.632 146.864 189.778 146.752 190.866 146.592L191.01 148.016C189.645 148.293 188.258 148.469 186.85 148.544C185.453 148.619 183.842 148.661 182.018 148.672L181.778 147.056C183.325 147.056 184.541 147.04 185.426 147.008V144.768H187.426ZM182.082 143.68C183.106 143.413 183.896 142.976 184.45 142.368C185.016 141.749 185.33 141.051 185.394 140.272H182.498V138.704H185.426V137.12H187.426V138.704H190.37V140.272H187.442C187.506 141.008 187.821 141.675 188.386 142.272C188.962 142.869 189.757 143.301 190.77 143.568L189.89 145.072C189.08 144.859 188.381 144.533 187.794 144.096C187.218 143.648 186.765 143.115 186.434 142.496C186.114 143.147 185.661 143.707 185.074 144.176C184.498 144.645 183.8 144.992 182.978 145.216L182.082 143.68ZM191.666 136.976H193.65V151.36H191.666V136.976ZM210.666 136.992V141.12H212.602V142.752H210.666V147.44H208.682V136.992H210.666ZM199.53 141.568C199.53 140.875 199.701 140.251 200.042 139.696C200.384 139.141 200.848 138.709 201.434 138.4C202.021 138.08 202.677 137.92 203.402 137.92C204.128 137.92 204.784 138.08 205.37 138.4C205.957 138.709 206.421 139.141 206.762 139.696C207.104 140.251 207.274 140.875 207.274 141.568C207.274 142.251 207.104 142.869 206.762 143.424C206.421 143.979 205.957 144.416 205.37 144.736C204.784 145.045 204.128 145.2 203.402 145.2C202.677 145.2 202.021 145.045 201.434 144.736C200.848 144.416 200.384 143.979 200.042 143.424C199.701 142.869 199.53 142.251 199.53 141.568ZM201.45 141.568C201.45 142.144 201.637 142.608 202.01 142.96C202.384 143.301 202.848 143.472 203.402 143.472C203.968 143.472 204.432 143.301 204.794 142.96C205.168 142.608 205.354 142.144 205.354 141.568C205.354 140.981 205.168 140.517 204.794 140.176C204.432 139.824 203.968 139.648 203.402 139.648C202.848 139.648 202.384 139.824 202.01 140.176C201.637 140.517 201.45 140.981 201.45 141.568ZM201.466 146.352H203.45V149.488H211.21V151.072H201.466V146.352ZM225.643 136.992V151.328H223.755V144.16H222.395V150.64H220.555V137.264H222.395V142.56H223.755V136.992H225.643ZM213.963 138.608H215.931V146.112C217.296 146.069 218.565 145.936 219.739 145.712L219.931 147.408C218.459 147.685 216.8 147.824 214.955 147.824H213.963V138.608Z" fill="#42464A"/>
<rect x="385.5" y="41.5" width="336" height="177" rx="15.5" fill="white"/>
<rect x="385.5" y="41.5" width="336" height="177" rx="15.5" stroke="#D8D8D8"/>
<rect x="417" y="82" width="289" height="96" rx="12" fill="#F2F5F8"/>
<path d="M447.048 116.5C449.68 116.5 451.374 117.354 451.374 118.782C451.374 120.21 449.68 121.064 447.048 121.064C444.416 121.064 442.736 120.21 442.736 118.782C442.736 117.354 444.416 116.5 447.048 116.5ZM441.532 115.45V114.428H446.012V112.104H447.272V114.428H452.662V115.45H441.532ZM442.834 110.368V109.332H451.276V110.382C451.276 111.376 451.276 112.384 450.94 113.658L449.68 113.518C450.002 112.244 450.002 111.334 450.002 110.382V110.368H442.834ZM444.01 118.782C444.01 119.594 445.172 120.084 447.048 120.084C448.924 120.084 450.1 119.594 450.1 118.782C450.1 117.97 448.924 117.48 447.048 117.48C445.172 117.48 444.01 117.97 444.01 118.782ZM454.132 109.962H461.048V111.026H458.22V112.398C458.22 114.47 459.606 116.584 461.468 117.396L460.754 118.404C459.326 117.76 458.164 116.388 457.59 114.736C457.03 116.5 455.882 118.012 454.454 118.712L453.726 117.704C455.56 116.822 456.946 114.512 456.946 112.398V111.026H454.132V109.962ZM462.588 121.078V108.73H463.862V121.078H462.588ZM468.973 109.766H470.219V111.866C470.219 114.064 471.493 116.318 473.299 117.214L472.529 118.222C471.185 117.522 470.149 116.136 469.617 114.484C469.057 116.248 467.979 117.732 466.579 118.46L465.809 117.424C467.671 116.514 468.973 114.148 468.973 111.866V109.766ZM474.237 121.078V108.73H475.525V113.658H477.499V114.736H475.525V121.078H474.237ZM486.557 108.73H487.845V112.09H489.623V113.14H487.845V116.64H486.557V108.73ZM478.255 111.082V110.074H481.265V108.618H482.539V110.074H485.549V111.082H478.255ZM478.927 113.826C478.927 112.524 480.131 111.656 481.895 111.656C483.673 111.656 484.877 112.524 484.877 113.826C484.877 115.17 483.673 116.024 481.895 116.024C480.131 116.024 478.927 115.17 478.927 113.826ZM479.893 118.908C479.893 117.55 481.433 116.766 483.939 116.766C486.445 116.766 487.985 117.55 487.985 118.908C487.985 120.252 486.445 121.05 483.939 121.05C481.433 121.05 479.893 120.252 479.893 118.908ZM480.145 113.826C480.145 114.596 480.845 115.072 481.895 115.072C482.945 115.072 483.645 114.596 483.645 113.826C483.645 113.084 482.945 112.608 481.895 112.608C480.845 112.608 480.145 113.084 480.145 113.826ZM481.153 118.908C481.153 119.664 482.189 120.084 483.939 120.084C485.689 120.084 486.725 119.664 486.725 118.908C486.725 118.152 485.689 117.732 483.939 117.732C482.189 117.732 481.153 118.152 481.153 118.908Z" fill="#9099A6"/>
<path d="M452.682 135.366H454.914V151.548H452.682V135.366ZM442.548 147.678V136.824H450.306V138.624H444.744V145.824C447.606 145.806 449.406 145.734 451.422 145.338L451.62 147.174C449.406 147.624 447.354 147.678 443.916 147.678H442.548ZM458.1 136.824H465.804V147.642H458.1V136.824ZM460.296 145.878H463.626V138.588H460.296V145.878ZM468.414 151.53V135.348H470.646V151.53H468.414ZM474.517 136.752H486.181V138.318C486.181 140.316 486.181 142.584 485.569 146.004L483.319 145.77C483.931 142.692 483.949 140.424 483.949 138.552H474.517V136.752ZM473.041 149.532V147.696H478.243V142.152H480.475V147.696H487.621V149.532H473.041ZM504.028 135.384H506.278V144.042H504.028V135.384ZM493.138 139.848C493.138 137.616 495.01 136.05 497.512 136.05C500.014 136.05 501.886 137.616 501.886 139.848C501.886 142.062 500.014 143.646 497.512 143.646C495.01 143.646 493.138 142.062 493.138 139.848ZM495.316 139.848C495.316 141.072 496.252 141.792 497.512 141.792C498.772 141.792 499.708 141.072 499.708 139.848C499.708 138.624 498.772 137.886 497.512 137.886C496.252 137.886 495.316 138.624 495.316 139.848ZM495.586 151.332V144.762H497.8V146.292H504.064V144.762H506.278V151.332H495.586ZM497.8 149.55H504.064V148.02H497.8V149.55ZM508.654 136.806H512.272V135.276H514.504V136.806H518.14V138.57H508.654V136.806ZM509.446 142.08C509.446 140.298 511.066 139.11 513.406 139.11C515.728 139.11 517.348 140.298 517.348 142.08C517.348 143.862 515.728 145.05 513.406 145.05C511.066 145.05 509.446 143.862 509.446 142.08ZM510.58 147.948V146.166H521.308V151.512H519.076V147.948H510.58ZM511.588 142.08C511.588 142.908 512.308 143.376 513.406 143.376C514.468 143.376 515.206 142.908 515.206 142.08C515.206 141.234 514.468 140.802 513.406 140.802C512.308 140.802 511.588 141.234 511.588 142.08ZM519.076 145.482V135.384H521.308V139.56H523.486V141.378H521.308V145.482H519.076ZM532.595 137.796H535.601V135.384H537.833V143.574H535.601V139.578H532.595V137.796ZM524.243 141.936C526.907 141.144 528.077 139.164 528.077 137.076V135.888H530.327V137.076C530.327 139.002 531.479 140.892 533.981 141.666L532.829 143.376C531.119 142.818 529.931 141.72 529.229 140.334C528.527 141.882 527.267 143.088 525.395 143.682L524.243 141.936ZM527.213 145.986V144.276H537.833V148.56H529.427V149.604H538.301V151.332H527.231V146.94H535.619V145.986H527.213ZM551.333 135.384H553.583V144.834H551.333V142.728H548.363V143.934H540.767V136.536H548.363V137.724H551.333V135.384ZM542.603 148.362C542.603 146.418 544.709 145.248 548.111 145.248C551.513 145.248 553.637 146.418 553.637 148.362C553.637 150.36 551.513 151.512 548.111 151.512C544.709 151.512 542.603 150.36 542.603 148.362ZM542.963 142.188H546.185V138.3H542.963V142.188ZM544.835 148.362C544.835 149.316 545.987 149.802 548.111 149.802C550.253 149.802 551.405 149.316 551.405 148.362C551.405 147.426 550.253 146.958 548.111 146.958C545.987 146.958 544.835 147.426 544.835 148.362ZM548.363 140.964H551.333V139.506H548.363V140.964ZM567.011 135.384H569.243V151.512H567.011V135.384ZM555.905 146.976C557.129 146.976 558.515 146.976 559.955 146.94V145.536C558.209 145.212 557.075 144.114 557.075 142.602C557.075 140.802 558.713 139.596 561.071 139.596C563.447 139.596 565.085 140.802 565.085 142.602C565.085 144.114 563.951 145.23 562.187 145.554V146.85C563.537 146.778 564.887 146.67 566.165 146.508L566.309 148.11C562.799 148.758 559.037 148.776 556.175 148.776L555.905 146.976ZM556.211 138.912V137.166H559.955V135.438H562.187V137.166H565.931V138.912H556.211ZM559.199 142.602C559.199 143.484 559.973 143.952 561.071 143.952C562.187 143.952 562.961 143.484 562.961 142.602C562.961 141.738 562.187 141.27 561.071 141.27C559.973 141.27 559.199 141.738 559.199 142.602ZM587.36 135.366H589.502V151.494H587.36V143.286H585.884V150.792H583.778V135.78H585.884V141.486H587.36V135.366ZM575.516 146.634C578.792 144.69 580.178 142.332 580.466 139.146H576.308V137.364H582.662C582.662 141.864 581.33 145.554 576.812 148.182L575.516 146.634ZM595.605 144.114H597.855V146.544C599.169 146.472 600.483 146.346 601.725 146.166L601.887 147.768C598.377 148.47 594.561 148.488 591.771 148.506L591.501 146.688C592.707 146.688 594.111 146.688 595.605 146.634V144.114ZM591.843 142.89C594.255 142.26 595.443 140.712 595.569 139.056H592.311V137.292H595.605V135.51H597.855V137.292H601.167V139.056H597.873C598.017 140.64 599.241 142.134 601.617 142.764L600.627 144.456C598.773 143.97 597.459 142.926 596.739 141.558C596.037 142.998 594.741 144.096 592.851 144.618L591.843 142.89ZM602.625 151.53V135.348H604.857V151.53H602.625ZM621.768 135.366H624V140.01H626.178V141.846H624V147.12H621.768V135.366ZM611.472 140.514C611.472 138.12 613.362 136.41 615.828 136.41C618.294 136.41 620.184 138.12 620.184 140.514C620.184 142.872 618.294 144.6 615.828 144.6C613.362 144.6 611.472 142.872 611.472 140.514ZM613.632 140.514C613.632 141.828 614.604 142.656 615.828 142.656C617.07 142.656 618.024 141.828 618.024 140.514C618.024 139.164 617.07 138.354 615.828 138.354C614.604 138.354 613.632 139.164 613.632 140.514ZM613.65 151.206V145.896H615.882V149.424H624.612V151.206H613.65ZM638.724 135.366H640.848V151.494H638.724V143.43H637.194V150.72H635.124V135.672H637.194V141.63H638.724V135.366ZM627.708 147.552V137.184H629.922V145.626C631.218 145.59 632.64 145.482 634.206 145.176L634.422 147.084C632.316 147.48 630.462 147.552 628.824 147.552H627.708Z" fill="#42464A"/>
<path d="M35.3402 6.672L42.4682 24H40.5962L38.5562 19.008H30.1562L28.0682 24H26.1962L33.4202 6.672H35.3402ZM30.7802 17.472H37.9082L34.3802 8.88L30.7802 17.472ZM46.8917 21.912C47.5877 21.912 48.0677 22.392 48.0677 23.088C48.0677 23.808 47.5877 24.312 46.8917 24.312C46.1717 24.312 45.6677 23.808 45.6677 23.088C45.6677 22.392 46.1717 21.912 46.8917 21.912Z" fill="black"/>
<path d="M419.132 24V6.672H425.588C428.372 6.672 430.34 8.616 430.34 11.376C430.34 12.504 429.692 13.848 428.732 14.736L429.164 14.976C430.508 15.864 431.468 17.592 431.468 19.176C431.468 22.008 429.5 24 426.692 24H419.132ZM420.86 22.464H426.716C428.516 22.464 429.788 21.12 429.788 19.224C429.788 17.208 428.516 15.792 426.716 15.792H420.86V22.464ZM420.86 14.256H426.02C427.58 14.184 428.684 12.984 428.684 11.328C428.684 9.504 427.412 8.208 425.612 8.208H420.86V14.256ZM435.364 21.912C436.06 21.912 436.54 22.392 436.54 23.088C436.54 23.808 436.06 24.312 435.364 24.312C434.644 24.312 434.14 23.808 434.14 23.088C434.14 22.392 434.644 21.912 435.364 21.912Z" fill="black"/>
</svg>
