<svg width="722" height="219" viewBox="0 0 722 219" fill="none" xmlns="http://www.w3.org/2000/svg">
<rect x="0.5" y="41.5" width="336" height="177" rx="15.5" fill="white"/>
<rect x="0.5" y="41.5" width="336" height="177" rx="15.5" stroke="#D8D8D8"/>
<path d="M36 96C30.48 96 26 100.48 26 106C26 111.52 30.48 116 36 116C41.52 116 46 111.52 46 106C46 100.48 41.52 96 36 96ZM36 114C31.58 114 28 110.42 28 106C28 101.58 31.58 98 36 98C40.42 98 44 101.58 44 106C44 110.42 40.42 114 36 114Z" fill="#42464A"/>
<path d="M36 111C38.7614 111 41 108.761 41 106C41 103.239 38.7614 101 36 101C33.2386 101 31 103.239 31 106C31 108.761 33.2386 111 36 111Z" fill="#42464A"/>
<path d="M68.438 98.438H70.292V108.32H68.438V98.438ZM56.504 104.486C58.628 104.486 62.138 104.45 64.712 104.036L64.856 105.332C63.866 105.53 62.786 105.674 61.706 105.764V108.248H59.852V105.89C58.682 105.926 57.584 105.944 56.702 105.944L56.504 104.486ZM57.224 101.372C57.224 99.896 58.646 98.978 60.716 98.978C62.804 98.978 64.208 99.896 64.208 101.372C64.208 102.83 62.804 103.766 60.716 103.766C58.646 103.766 57.224 102.83 57.224 101.372ZM58.952 101.372C58.952 102.038 59.636 102.398 60.716 102.398C61.796 102.398 62.48 102.038 62.48 101.372C62.48 100.706 61.796 100.328 60.716 100.328C59.636 100.328 58.952 100.706 58.952 101.372ZM59.168 114.242V108.86H61.094V110.084H68.366V108.86H70.292V114.242H59.168ZM61.094 112.748H68.366V111.542H61.094V112.748ZM62.912 107.6V106.304H65.468V98.726H67.268V108.284H65.468V107.6H62.912ZM72.3444 110.894H86.8344V112.496H72.3444V110.894ZM73.5324 101.462V99.896H85.5924V101.462H83.2704V106.592H85.5384V108.14H73.6044V106.592H75.8364V101.462H73.5324ZM77.7804 106.592H81.3444V101.462H77.7804V106.592ZM88.0768 111.002H94.3408V108.338H89.8048V103.118H98.9668V101.066H89.7868V99.518H100.875V104.648H91.7308V106.79H101.235V108.338H96.2668V111.002H102.567V112.568H88.0768V111.002ZM105.339 99.986H116.445V101.768C116.445 103.91 116.445 106.142 115.851 109.508L113.907 109.328C114.519 106.178 114.519 103.856 114.519 101.768V101.534H105.339V99.986ZM103.809 112.244V110.66H118.281V112.244H103.809ZM119.992 100.076H126.022V106.016H121.882V109.184C123.502 109.166 125.032 109.076 126.796 108.788L126.958 110.354C124.834 110.732 123.07 110.786 121.108 110.786H120.028V104.486H124.15V101.624H119.992V100.076ZM127.75 113.648V98.744H129.568V104.594H131.368V98.438H133.204V114.44H131.368V106.16H129.568V113.648H127.75ZM136.102 99.572H143.716V106.664H136.102V99.572ZM137.704 111.308C137.704 109.346 139.792 108.194 143.14 108.194C146.47 108.194 148.576 109.346 148.576 111.308C148.576 113.288 146.47 114.422 143.14 114.422C139.792 114.422 137.704 113.288 137.704 111.308ZM137.974 105.134H141.826V101.102H137.974V105.134ZM139.63 111.308C139.63 112.352 140.908 112.928 143.14 112.928C145.354 112.928 146.65 112.352 146.65 111.308C146.65 110.264 145.354 109.706 143.14 109.706C140.908 109.706 139.63 110.264 139.63 111.308ZM146.542 107.924V98.456H148.486V107.924H146.542ZM151.709 100.076H159.863V101.21C159.863 102.65 159.863 104.648 159.431 107.438L157.523 107.276C157.937 104.846 157.973 103.028 157.973 101.642H151.709V100.076ZM150.863 109.508C151.799 109.508 152.843 109.508 153.941 109.49V104.666H155.849V109.436C157.487 109.382 159.143 109.274 160.673 109.076L160.781 110.48C157.505 111.02 153.851 111.092 151.061 111.092L150.863 109.508ZM161.519 114.44V98.438H163.445V104.99H165.785V106.592H163.445V114.44H161.519Z" fill="#42464A"/>
<path d="M36 144C30.48 144 26 148.48 26 154C26 159.52 30.48 164 36 164C41.52 164 46 159.52 46 154C46 148.48 41.52 144 36 144ZM36 162C31.58 162 28 158.42 28 154C28 149.58 31.58 146 36 146C40.42 146 44 149.58 44 154C44 158.42 40.42 162 36 162Z" fill="#42464A"/>
<path d="M56.576 148.994H59.546V146.87H61.454V148.994H64.352V150.542H56.576V148.994ZM57.026 155.15C57.026 152.954 58.466 151.406 60.5 151.406C62.516 151.406 63.974 152.954 63.974 155.15C63.974 157.364 62.516 158.894 60.5 158.894C58.466 158.894 57.026 157.364 57.026 155.15ZM58.736 155.15C58.736 156.446 59.456 157.274 60.5 157.274C61.508 157.274 62.264 156.446 62.264 155.15C62.264 153.854 61.508 153.026 60.5 153.026C59.456 153.026 58.736 153.854 58.736 155.15ZM65.018 161.702V146.762H66.836V153.044H68.42V146.438H70.256V162.44H68.42V154.61H66.836V161.702H65.018ZM80.8404 147.446C80.8404 151.766 78.6624 154.7 73.4244 156.23L72.6864 154.7C75.1164 154.016 76.7004 153.044 77.6544 151.838L72.9024 152.18L72.6324 150.668L78.4644 150.434C78.6264 149.966 78.7344 149.498 78.7884 148.994H73.4244V147.446H80.8404ZM74.7744 159.326C74.7744 157.364 76.8624 156.212 80.1924 156.212C83.5404 156.212 85.6464 157.364 85.6464 159.326C85.6464 161.306 83.5404 162.44 80.1924 162.44C76.8624 162.44 74.7744 161.306 74.7744 159.326ZM76.7004 159.326C76.7004 160.352 77.9604 160.928 80.1924 160.928C82.4244 160.928 83.7024 160.352 83.7024 159.326C83.7024 158.264 82.4244 157.724 80.1924 157.724C77.9604 157.724 76.7004 158.264 76.7004 159.326ZM83.6124 155.942V146.456H85.5384V155.942H83.6124ZM95.4388 156.32C98.7328 156.32 100.785 157.472 100.785 159.38C100.785 161.324 98.7328 162.44 95.4388 162.44C92.1448 162.44 90.0928 161.324 90.0928 159.38C90.0928 157.472 92.1448 156.32 95.4388 156.32ZM88.6528 154.916V147.446H90.5608V149.606H94.3048V147.446H96.2128V154.916H88.6528ZM90.5608 153.386H94.3048V151.118H90.5608V153.386ZM92.0008 159.38C92.0008 160.388 93.2428 160.928 95.4388 160.928C97.6168 160.928 98.8588 160.388 98.8588 159.38C98.8588 158.39 97.6168 157.85 95.4388 157.85C93.2428 157.85 92.0008 158.39 92.0008 159.38ZM98.6788 155.942V146.438H100.605V150.29H102.819V151.892H100.605V155.942H98.6788ZM108.129 147.59C110.271 147.59 111.891 149.408 112.161 152.342H115.185V146.42H117.111V162.476H115.185V153.89H112.179C111.981 156.986 110.343 158.93 108.129 158.93C105.771 158.93 104.061 156.716 104.061 153.242C104.061 149.786 105.771 147.59 108.129 147.59ZM105.897 153.242C105.897 155.726 106.815 157.166 108.129 157.166C109.479 157.166 110.361 155.726 110.361 153.242C110.361 150.794 109.479 149.354 108.129 149.354C106.815 149.354 105.897 150.794 105.897 153.242ZM120.244 148.076H128.398V149.21C128.398 150.65 128.398 152.648 127.966 155.438L126.058 155.276C126.472 152.846 126.508 151.028 126.508 149.642H120.244V148.076ZM119.398 157.508C120.334 157.508 121.378 157.508 122.476 157.49V152.666H124.384V157.436C126.022 157.382 127.678 157.274 129.208 157.076L129.316 158.48C126.04 159.02 122.386 159.092 119.596 159.092L119.398 157.508ZM130.054 162.44V146.438H131.98V152.99H134.32V154.592H131.98V162.44H130.054Z" fill="#42464A"/>
<rect x="385.5" y="41.5" width="336" height="177" rx="15.5" fill="white"/>
<rect x="385.5" y="41.5" width="336" height="177" rx="15.5" stroke="#D8D8D8"/>
<path d="M417.5 118.5H580.5V162C580.5 168.351 575.351 173.5 569 173.5H429C422.649 173.5 417.5 168.351 417.5 162V118.5Z" fill="#F2F5F8"/>
<path d="M417.5 118.5H580.5V162C580.5 168.351 575.351 173.5 569 173.5H429C422.649 173.5 417.5 168.351 417.5 162V118.5Z" stroke="#E2E7EC"/>
<path d="M441.49 147.774H443.912V146.066H445.172V147.774H447.566V148.81H441.49V147.774ZM441.882 152.408C441.882 150.756 442.988 149.58 444.542 149.58C446.082 149.58 447.202 150.756 447.202 152.408C447.202 154.102 446.082 155.264 444.542 155.264C442.988 155.264 441.882 154.102 441.882 152.408ZM443.016 152.408C443.016 153.472 443.646 154.186 444.542 154.186C445.424 154.186 446.068 153.472 446.068 152.408C446.068 151.358 445.424 150.644 444.542 150.644C443.646 150.644 443.016 151.358 443.016 152.408ZM448.14 157.476V145.996H449.344V150.882H450.772V145.716H451.99V158.064H450.772V151.932H449.344V157.476H448.14ZM460.278 146.542C460.278 149.776 458.542 152.072 454.552 153.234L454.062 152.212C456.05 151.652 457.352 150.812 458.108 149.776L454.188 150.056L454.006 149.034L458.64 148.824C458.794 148.432 458.878 148.012 458.92 147.578H454.608V146.542H460.278ZM455.644 155.684C455.644 154.186 457.24 153.304 459.802 153.304C462.364 153.304 463.974 154.186 463.974 155.684C463.974 157.196 462.364 158.064 459.802 158.064C457.24 158.064 455.644 157.196 455.644 155.684ZM456.918 155.684C456.918 156.552 457.982 157.056 459.802 157.056C461.608 157.056 462.7 156.552 462.7 155.684C462.7 154.802 461.608 154.312 459.802 154.312C457.982 154.312 456.918 154.802 456.918 155.684ZM462.616 153.108V145.73H463.89V153.108H462.616ZM471.661 153.416C474.195 153.416 475.749 154.284 475.749 155.74C475.749 157.21 474.195 158.064 471.661 158.064C469.127 158.064 467.573 157.21 467.573 155.74C467.573 154.284 469.127 153.416 471.661 153.416ZM466.481 152.226V146.5H467.755V148.278H470.989V146.5H472.249V152.226H466.481ZM467.755 151.204H470.989V149.286H467.755V151.204ZM468.819 155.74C468.819 156.58 469.883 157.056 471.661 157.056C473.425 157.056 474.475 156.58 474.475 155.74C474.475 154.914 473.425 154.438 471.661 154.438C469.883 154.438 468.819 154.914 468.819 155.74ZM474.335 153.108V145.73H475.623V148.782H477.387V149.846H475.623V153.108H474.335ZM481.531 146.654C483.197 146.654 484.429 148.068 484.611 150.378H487.159V145.702H488.433V158.092H487.159V151.4H484.625C484.499 153.808 483.239 155.32 481.531 155.32C479.725 155.32 478.437 153.626 478.437 150.98C478.437 148.32 479.725 146.654 481.531 146.654ZM479.641 150.98C479.641 152.94 480.411 154.172 481.531 154.172C482.665 154.172 483.421 152.94 483.421 150.98C483.421 149.02 482.665 147.802 481.531 147.802C480.411 147.802 479.641 149.02 479.641 150.98ZM491.009 147.032H497.267V147.788C497.267 148.838 497.267 150.42 496.917 152.66L495.671 152.548C495.993 150.56 496.021 149.104 496.021 148.082H491.009V147.032ZM490.337 154.368C491.107 154.368 491.961 154.354 492.857 154.34V150.574H494.117V154.298C495.433 154.256 496.777 154.172 497.995 154.018L498.065 154.942C495.517 155.362 492.661 155.418 490.491 155.418L490.337 154.368ZM498.709 158.064V145.716H499.969V150.84H501.887V151.904H499.969V158.064H498.709Z" fill="#42464A"/>
<rect x="417.5" y="86.5" width="163" height="43" rx="11.5" fill="white"/>
<rect x="417.5" y="86.5" width="163" height="43" rx="11.5" stroke="#E2E7EC"/>
<path d="M450.744 101.73H451.962V109.36H450.744V101.73ZM441.434 106.462C443.114 106.462 445.844 106.434 447.86 106.112L447.958 106.98C447.146 107.148 446.25 107.26 445.368 107.33V109.318H444.15V107.4C443.198 107.442 442.302 107.442 441.574 107.442L441.434 106.462ZM442.036 103.984C442.036 102.85 443.128 102.136 444.724 102.136C446.334 102.136 447.412 102.85 447.412 103.984C447.412 105.104 446.334 105.818 444.724 105.818C443.128 105.818 442.036 105.104 442.036 103.984ZM443.184 103.984C443.184 104.572 443.786 104.908 444.724 104.908C445.662 104.908 446.264 104.572 446.264 103.984C446.264 103.396 445.662 103.046 444.724 103.046C443.786 103.046 443.184 103.396 443.184 103.984ZM443.562 113.91V109.794H444.822V110.858H450.702V109.794H451.962V113.91H443.562ZM444.822 112.902H450.702V111.838H444.822V112.902ZM446.404 108.702V107.82H448.49V101.94H449.694V109.332H448.49V108.702H446.404ZM453.754 111.46H464.94V112.524H453.754V111.46ZM454.72 103.956V102.906H463.932V103.956H462.07V108.1H463.904V109.136H454.748V108.1H456.568V103.956H454.72ZM457.856 108.1H460.796V103.956H457.856V108.1ZM465.991 111.53H470.933V109.318H467.363V105.412H474.559V103.634H467.335V102.598H475.833V106.42H468.623V108.282H476.113V109.318H472.207V111.53H477.177V112.58H465.991V111.53ZM479.431 102.976H487.929V104.264C487.929 105.874 487.929 107.624 487.467 110.256L486.179 110.144C486.655 107.666 486.655 105.846 486.655 104.264V104.012H479.431V102.976ZM478.227 112.314V111.25H489.399V112.314H478.227ZM490.841 103.032H495.461V107.47H492.087V110.102C493.417 110.088 494.677 110.046 496.161 109.794L496.259 110.83C494.579 111.138 493.207 111.166 491.681 111.166H490.855V106.448H494.229V104.068H490.841V103.032ZM496.945 113.434V101.982H498.149V106.546H499.745V101.716H500.963V114.064H499.745V107.596H498.149V113.434H496.945ZM503.344 102.626H509.14V108.03H503.344V102.626ZM504.576 107.022H507.908V103.634H504.576V107.022ZM504.59 111.67C504.59 110.172 506.186 109.29 508.762 109.29C511.31 109.29 512.92 110.172 512.92 111.67C512.92 113.182 511.31 114.05 508.762 114.05C506.186 114.05 504.59 113.182 504.59 111.67ZM505.864 111.67C505.864 112.538 506.942 113.056 508.762 113.056C510.554 113.056 511.646 112.538 511.646 111.67C511.646 110.802 510.554 110.298 508.762 110.298C506.942 110.298 505.864 110.802 505.864 111.67ZM511.562 109.08V101.73H512.85V109.08H511.562ZM515.482 103.032H521.74V103.788C521.74 104.838 521.74 106.42 521.39 108.66L520.144 108.548C520.466 106.56 520.494 105.104 520.494 104.082H515.482V103.032ZM514.81 110.368C515.58 110.368 516.434 110.354 517.33 110.34V106.574H518.59V110.298C519.906 110.256 521.25 110.172 522.468 110.018L522.538 110.942C519.99 111.362 517.134 111.418 514.964 111.418L514.81 110.368ZM523.182 114.064V101.716H524.442V106.84H526.36V107.904H524.442V114.064H523.182Z" fill="#42464A"/>
<path d="M550.75 111L556 105L561.25 111" stroke="#42464A" stroke-width="2" stroke-linecap="round" stroke-linejoin="round"/>
<path d="M35.3402 6.672L42.4682 24H40.5962L38.5562 19.008H30.1562L28.0682 24H26.1962L33.4202 6.672H35.3402ZM30.7802 17.472H37.9082L34.3802 8.88L30.7802 17.472ZM46.8917 21.912C47.5877 21.912 48.0677 22.392 48.0677 23.088C48.0677 23.808 47.5877 24.312 46.8917 24.312C46.1717 24.312 45.6677 23.808 45.6677 23.088C45.6677 22.392 46.1717 21.912 46.8917 21.912Z" fill="black"/>
<path d="M419.132 24V6.672H425.588C428.372 6.672 430.34 8.616 430.34 11.376C430.34 12.504 429.692 13.848 428.732 14.736L429.164 14.976C430.508 15.864 431.468 17.592 431.468 19.176C431.468 22.008 429.5 24 426.692 24H419.132ZM420.86 22.464H426.716C428.516 22.464 429.788 21.12 429.788 19.224C429.788 17.208 428.516 15.792 426.716 15.792H420.86V22.464ZM420.86 14.256H426.02C427.58 14.184 428.684 12.984 428.684 11.328C428.684 9.504 427.412 8.208 425.612 8.208H420.86V14.256ZM435.364 21.912C436.06 21.912 436.54 22.392 436.54 23.088C436.54 23.808 436.06 24.312 435.364 24.312C434.644 24.312 434.14 23.808 434.14 23.088C434.14 22.392 434.644 21.912 435.364 21.912Z" fill="black"/>
</svg>
