<svg width="722" height="219" viewBox="0 0 722 219" fill="none" xmlns="http://www.w3.org/2000/svg">
<rect x="0.5" y="41.5" width="336" height="177" rx="15.5" fill="white"/>
<rect x="0.5" y="41.5" width="336" height="177" rx="15.5" stroke="#D8D8D8"/>
<path d="M36 96C30.48 96 26 100.48 26 106C26 111.52 30.48 116 36 116C41.52 116 46 111.52 46 106C46 100.48 41.52 96 36 96ZM36 114C31.58 114 28 110.42 28 106C28 101.58 31.58 98 36 98C40.42 98 44 101.58 44 106C44 110.42 40.42 114 36 114Z" fill="#42464A"/>
<path d="M36 111C38.7614 111 41 108.761 41 106C41 103.239 38.7614 101 36 101C33.2386 101 31 103.239 31 106C31 108.761 33.2386 111 36 111Z" fill="#42464A"/>
<path d="M68.438 98.438H70.292V108.32H68.438V98.438ZM56.504 104.486C58.628 104.486 62.138 104.45 64.712 104.036L64.856 105.332C63.866 105.53 62.786 105.674 61.706 105.764V108.248H59.852V105.89C58.682 105.926 57.584 105.944 56.702 105.944L56.504 104.486ZM57.224 101.372C57.224 99.896 58.646 98.978 60.716 98.978C62.804 98.978 64.208 99.896 64.208 101.372C64.208 102.83 62.804 103.766 60.716 103.766C58.646 103.766 57.224 102.83 57.224 101.372ZM58.952 101.372C58.952 102.038 59.636 102.398 60.716 102.398C61.796 102.398 62.48 102.038 62.48 101.372C62.48 100.706 61.796 100.328 60.716 100.328C59.636 100.328 58.952 100.706 58.952 101.372ZM59.168 114.242V108.86H61.094V110.084H68.366V108.86H70.292V114.242H59.168ZM61.094 112.748H68.366V111.542H61.094V112.748ZM62.912 107.6V106.304H65.468V98.726H67.268V108.284H65.468V107.6H62.912ZM72.3444 110.894H86.8344V112.496H72.3444V110.894ZM73.5324 101.462V99.896H85.5924V101.462H83.2704V106.592H85.5384V108.14H73.6044V106.592H75.8364V101.462H73.5324ZM77.7804 106.592H81.3444V101.462H77.7804V106.592ZM88.0768 111.002H94.3408V108.338H89.8048V103.118H98.9668V101.066H89.7868V99.518H100.875V104.648H91.7308V106.79H101.235V108.338H96.2668V111.002H102.567V112.568H88.0768V111.002ZM105.339 99.986H116.445V101.768C116.445 103.91 116.445 106.142 115.851 109.508L113.907 109.328C114.519 106.178 114.519 103.856 114.519 101.768V101.534H105.339V99.986ZM103.809 112.244V110.66H118.281V112.244H103.809ZM119.992 100.076H126.022V106.016H121.882V109.184C123.502 109.166 125.032 109.076 126.796 108.788L126.958 110.354C124.834 110.732 123.07 110.786 121.108 110.786H120.028V104.486H124.15V101.624H119.992V100.076ZM127.75 113.648V98.744H129.568V104.594H131.368V98.438H133.204V114.44H131.368V106.16H129.568V113.648H127.75ZM136.102 99.572H143.716V106.664H136.102V99.572ZM137.704 111.308C137.704 109.346 139.792 108.194 143.14 108.194C146.47 108.194 148.576 109.346 148.576 111.308C148.576 113.288 146.47 114.422 143.14 114.422C139.792 114.422 137.704 113.288 137.704 111.308ZM137.974 105.134H141.826V101.102H137.974V105.134ZM139.63 111.308C139.63 112.352 140.908 112.928 143.14 112.928C145.354 112.928 146.65 112.352 146.65 111.308C146.65 110.264 145.354 109.706 143.14 109.706C140.908 109.706 139.63 110.264 139.63 111.308ZM146.542 107.924V98.456H148.486V107.924H146.542ZM151.709 100.076H159.863V101.21C159.863 102.65 159.863 104.648 159.431 107.438L157.523 107.276C157.937 104.846 157.973 103.028 157.973 101.642H151.709V100.076ZM150.863 109.508C151.799 109.508 152.843 109.508 153.941 109.49V104.666H155.849V109.436C157.487 109.382 159.143 109.274 160.673 109.076L160.781 110.48C157.505 111.02 153.851 111.092 151.061 111.092L150.863 109.508ZM161.519 114.44V98.438H163.445V104.99H165.785V106.592H163.445V114.44H161.519Z" fill="#42464A"/>
<path d="M36 144C30.48 144 26 148.48 26 154C26 159.52 30.48 164 36 164C41.52 164 46 159.52 46 154C46 148.48 41.52 144 36 144ZM36 162C31.58 162 28 158.42 28 154C28 149.58 31.58 146 36 146C40.42 146 44 149.58 44 154C44 158.42 40.42 162 36 162Z" fill="#42464A"/>
<path d="M56.576 148.994H59.546V146.87H61.454V148.994H64.352V150.542H56.576V148.994ZM57.026 155.15C57.026 152.954 58.466 151.406 60.5 151.406C62.516 151.406 63.974 152.954 63.974 155.15C63.974 157.364 62.516 158.894 60.5 158.894C58.466 158.894 57.026 157.364 57.026 155.15ZM58.736 155.15C58.736 156.446 59.456 157.274 60.5 157.274C61.508 157.274 62.264 156.446 62.264 155.15C62.264 153.854 61.508 153.026 60.5 153.026C59.456 153.026 58.736 153.854 58.736 155.15ZM65.018 161.702V146.762H66.836V153.044H68.42V146.438H70.256V162.44H68.42V154.61H66.836V161.702H65.018ZM80.8404 147.446C80.8404 151.766 78.6624 154.7 73.4244 156.23L72.6864 154.7C75.1164 154.016 76.7004 153.044 77.6544 151.838L72.9024 152.18L72.6324 150.668L78.4644 150.434C78.6264 149.966 78.7344 149.498 78.7884 148.994H73.4244V147.446H80.8404ZM74.7744 159.326C74.7744 157.364 76.8624 156.212 80.1924 156.212C83.5404 156.212 85.6464 157.364 85.6464 159.326C85.6464 161.306 83.5404 162.44 80.1924 162.44C76.8624 162.44 74.7744 161.306 74.7744 159.326ZM76.7004 159.326C76.7004 160.352 77.9604 160.928 80.1924 160.928C82.4244 160.928 83.7024 160.352 83.7024 159.326C83.7024 158.264 82.4244 157.724 80.1924 157.724C77.9604 157.724 76.7004 158.264 76.7004 159.326ZM83.6124 155.942V146.456H85.5384V155.942H83.6124ZM95.4388 156.32C98.7328 156.32 100.785 157.472 100.785 159.38C100.785 161.324 98.7328 162.44 95.4388 162.44C92.1448 162.44 90.0928 161.324 90.0928 159.38C90.0928 157.472 92.1448 156.32 95.4388 156.32ZM88.6528 154.916V147.446H90.5608V149.606H94.3048V147.446H96.2128V154.916H88.6528ZM90.5608 153.386H94.3048V151.118H90.5608V153.386ZM92.0008 159.38C92.0008 160.388 93.2428 160.928 95.4388 160.928C97.6168 160.928 98.8588 160.388 98.8588 159.38C98.8588 158.39 97.6168 157.85 95.4388 157.85C93.2428 157.85 92.0008 158.39 92.0008 159.38ZM98.6788 155.942V146.438H100.605V150.29H102.819V151.892H100.605V155.942H98.6788ZM108.129 147.59C110.271 147.59 111.891 149.408 112.161 152.342H115.185V146.42H117.111V162.476H115.185V153.89H112.179C111.981 156.986 110.343 158.93 108.129 158.93C105.771 158.93 104.061 156.716 104.061 153.242C104.061 149.786 105.771 147.59 108.129 147.59ZM105.897 153.242C105.897 155.726 106.815 157.166 108.129 157.166C109.479 157.166 110.361 155.726 110.361 153.242C110.361 150.794 109.479 149.354 108.129 149.354C106.815 149.354 105.897 150.794 105.897 153.242ZM120.244 148.076H128.398V149.21C128.398 150.65 128.398 152.648 127.966 155.438L126.058 155.276C126.472 152.846 126.508 151.028 126.508 149.642H120.244V148.076ZM119.398 157.508C120.334 157.508 121.378 157.508 122.476 157.49V152.666H124.384V157.436C126.022 157.382 127.678 157.274 129.208 157.076L129.316 158.48C126.04 159.02 122.386 159.092 119.596 159.092L119.398 157.508ZM130.054 162.44V146.438H131.98V152.99H134.32V154.592H131.98V162.44H130.054Z" fill="#42464A"/>
<rect x="385.5" y="41.5" width="336" height="177" rx="15.5" fill="white"/>
<rect x="385.5" y="41.5" width="336" height="177" rx="15.5" stroke="#D8D8D8"/>
<path d="M429 96C423.48 96 419 100.48 419 106C419 111.52 423.48 116 429 116C434.52 116 439 111.52 439 106C439 100.48 434.52 96 429 96ZM429 114C424.58 114 421 110.42 421 106C421 101.58 424.58 98 429 98C433.42 98 437 101.58 437 106C437 110.42 433.42 114 429 114Z" fill="#42464A"/>
<path d="M461.438 98.438H463.292V108.32H461.438V98.438ZM449.504 104.486C451.628 104.486 455.138 104.45 457.712 104.036L457.856 105.332C456.866 105.53 455.786 105.674 454.706 105.764V108.248H452.852V105.89C451.682 105.926 450.584 105.944 449.702 105.944L449.504 104.486ZM450.224 101.372C450.224 99.896 451.646 98.978 453.716 98.978C455.804 98.978 457.208 99.896 457.208 101.372C457.208 102.83 455.804 103.766 453.716 103.766C451.646 103.766 450.224 102.83 450.224 101.372ZM451.952 101.372C451.952 102.038 452.636 102.398 453.716 102.398C454.796 102.398 455.48 102.038 455.48 101.372C455.48 100.706 454.796 100.328 453.716 100.328C452.636 100.328 451.952 100.706 451.952 101.372ZM452.168 114.242V108.86H454.094V110.084H461.366V108.86H463.292V114.242H452.168ZM454.094 112.748H461.366V111.542H454.094V112.748ZM455.912 107.6V106.304H458.468V98.726H460.268V108.284H458.468V107.6H455.912ZM465.344 110.894H479.834V112.496H465.344V110.894ZM466.532 101.462V99.896H478.592V101.462H476.27V106.592H478.538V108.14H466.604V106.592H468.836V101.462H466.532ZM470.78 106.592H474.344V101.462H470.78V106.592ZM481.077 111.002H487.341V108.338H482.805V103.118H491.967V101.066H482.787V99.518H493.875V104.648H484.731V106.79H494.235V108.338H489.267V111.002H495.567V112.568H481.077V111.002ZM498.339 99.986H509.445V101.768C509.445 103.91 509.445 106.142 508.851 109.508L506.907 109.328C507.519 106.178 507.519 103.856 507.519 101.768V101.534H498.339V99.986ZM496.809 112.244V110.66H511.281V112.244H496.809ZM512.992 100.076H519.022V106.016H514.882V109.184C516.502 109.166 518.032 109.076 519.796 108.788L519.958 110.354C517.834 110.732 516.07 110.786 514.108 110.786H513.028V104.486H517.15V101.624H512.992V100.076ZM520.75 113.648V98.744H522.568V104.594H524.368V98.438H526.204V114.44H524.368V106.16H522.568V113.648H520.75ZM529.102 99.572H536.716V106.664H529.102V99.572ZM530.704 111.308C530.704 109.346 532.792 108.194 536.14 108.194C539.47 108.194 541.576 109.346 541.576 111.308C541.576 113.288 539.47 114.422 536.14 114.422C532.792 114.422 530.704 113.288 530.704 111.308ZM530.974 105.134H534.826V101.102H530.974V105.134ZM532.63 111.308C532.63 112.352 533.908 112.928 536.14 112.928C538.354 112.928 539.65 112.352 539.65 111.308C539.65 110.264 538.354 109.706 536.14 109.706C533.908 109.706 532.63 110.264 532.63 111.308ZM539.542 107.924V98.456H541.486V107.924H539.542ZM544.709 100.076H552.863V101.21C552.863 102.65 552.863 104.648 552.431 107.438L550.523 107.276C550.937 104.846 550.973 103.028 550.973 101.642H544.709V100.076ZM543.863 109.508C544.799 109.508 545.843 109.508 546.941 109.49V104.666H548.849V109.436C550.487 109.382 552.143 109.274 553.673 109.076L553.781 110.48C550.505 111.02 546.851 111.092 544.061 111.092L543.863 109.508ZM554.519 114.44V98.438H556.445V104.99H558.785V106.592H556.445V114.44H554.519Z" fill="#42464A"/>
<path d="M429 144C423.48 144 419 148.48 419 154C419 159.52 423.48 164 429 164C434.52 164 439 159.52 439 154C439 148.48 434.52 144 429 144ZM429 162C424.58 162 421 158.42 421 154C421 149.58 424.58 146 429 146C433.42 146 437 149.58 437 154C437 158.42 433.42 162 429 162Z" fill="#42464A"/>
<path d="M449.576 148.994H452.546V146.87H454.454V148.994H457.352V150.542H449.576V148.994ZM450.026 155.15C450.026 152.954 451.466 151.406 453.5 151.406C455.516 151.406 456.974 152.954 456.974 155.15C456.974 157.364 455.516 158.894 453.5 158.894C451.466 158.894 450.026 157.364 450.026 155.15ZM451.736 155.15C451.736 156.446 452.456 157.274 453.5 157.274C454.508 157.274 455.264 156.446 455.264 155.15C455.264 153.854 454.508 153.026 453.5 153.026C452.456 153.026 451.736 153.854 451.736 155.15ZM458.018 161.702V146.762H459.836V153.044H461.42V146.438H463.256V162.44H461.42V154.61H459.836V161.702H458.018ZM473.84 147.446C473.84 151.766 471.662 154.7 466.424 156.23L465.686 154.7C468.116 154.016 469.7 153.044 470.654 151.838L465.902 152.18L465.632 150.668L471.464 150.434C471.626 149.966 471.734 149.498 471.788 148.994H466.424V147.446H473.84ZM467.774 159.326C467.774 157.364 469.862 156.212 473.192 156.212C476.54 156.212 478.646 157.364 478.646 159.326C478.646 161.306 476.54 162.44 473.192 162.44C469.862 162.44 467.774 161.306 467.774 159.326ZM469.7 159.326C469.7 160.352 470.96 160.928 473.192 160.928C475.424 160.928 476.702 160.352 476.702 159.326C476.702 158.264 475.424 157.724 473.192 157.724C470.96 157.724 469.7 158.264 469.7 159.326ZM476.612 155.942V146.456H478.538V155.942H476.612ZM488.439 156.32C491.733 156.32 493.785 157.472 493.785 159.38C493.785 161.324 491.733 162.44 488.439 162.44C485.145 162.44 483.093 161.324 483.093 159.38C483.093 157.472 485.145 156.32 488.439 156.32ZM481.653 154.916V147.446H483.561V149.606H487.305V147.446H489.213V154.916H481.653ZM483.561 153.386H487.305V151.118H483.561V153.386ZM485.001 159.38C485.001 160.388 486.243 160.928 488.439 160.928C490.617 160.928 491.859 160.388 491.859 159.38C491.859 158.39 490.617 157.85 488.439 157.85C486.243 157.85 485.001 158.39 485.001 159.38ZM491.679 155.942V146.438H493.605V150.29H495.819V151.892H493.605V155.942H491.679ZM501.129 147.59C503.271 147.59 504.891 149.408 505.161 152.342H508.185V146.42H510.111V162.476H508.185V153.89H505.179C504.981 156.986 503.343 158.93 501.129 158.93C498.771 158.93 497.061 156.716 497.061 153.242C497.061 149.786 498.771 147.59 501.129 147.59ZM498.897 153.242C498.897 155.726 499.815 157.166 501.129 157.166C502.479 157.166 503.361 155.726 503.361 153.242C503.361 150.794 502.479 149.354 501.129 149.354C499.815 149.354 498.897 150.794 498.897 153.242ZM513.244 148.076H521.398V149.21C521.398 150.65 521.398 152.648 520.966 155.438L519.058 155.276C519.472 152.846 519.508 151.028 519.508 149.642H513.244V148.076ZM512.398 157.508C513.334 157.508 514.378 157.508 515.476 157.49V152.666H517.384V157.436C519.022 157.382 520.678 157.274 522.208 157.076L522.316 158.48C519.04 159.02 515.386 159.092 512.596 159.092L512.398 157.508ZM523.054 162.44V146.438H524.98V152.99H527.32V154.592H524.98V162.44H523.054Z" fill="#42464A"/>
<path d="M35.3402 6.672L42.4682 24H40.5962L38.5562 19.008H30.1562L28.0682 24H26.1962L33.4202 6.672H35.3402ZM30.7802 17.472H37.9082L34.3802 8.88L30.7802 17.472ZM46.8917 21.912C47.5877 21.912 48.0677 22.392 48.0677 23.088C48.0677 23.808 47.5877 24.312 46.8917 24.312C46.1717 24.312 45.6677 23.808 45.6677 23.088C45.6677 22.392 46.1717 21.912 46.8917 21.912Z" fill="black"/>
<path d="M419.132 24V6.672H425.588C428.372 6.672 430.34 8.616 430.34 11.376C430.34 12.504 429.692 13.848 428.732 14.736L429.164 14.976C430.508 15.864 431.468 17.592 431.468 19.176C431.468 22.008 429.5 24 426.692 24H419.132ZM420.86 22.464H426.716C428.516 22.464 429.788 21.12 429.788 19.224C429.788 17.208 428.516 15.792 426.716 15.792H420.86V22.464ZM420.86 14.256H426.02C427.58 14.184 428.684 12.984 428.684 11.328C428.684 9.504 427.412 8.208 425.612 8.208H420.86V14.256ZM435.364 21.912C436.06 21.912 436.54 22.392 436.54 23.088C436.54 23.808 436.06 24.312 435.364 24.312C434.644 24.312 434.14 23.808 434.14 23.088C434.14 22.392 434.644 21.912 435.364 21.912Z" fill="black"/>
</svg>
