<svg width="722" height="219" viewBox="0 0 722 219" fill="none" xmlns="http://www.w3.org/2000/svg">
<rect x="0.5" y="41.5" width="336" height="177" rx="15.5" fill="white"/>
<rect x="0.5" y="41.5" width="336" height="177" rx="15.5" stroke="#D8D8D8"/>
<rect x="24" y="82" width="289" height="96" rx="12" fill="#F2F5F8"/>
<path d="M61.141 109.179V124.462H59.033V109.179H61.141ZM49.462 110.556H56.789V112.256H51.536V119.056C53.0093 119.045 54.205 119.011 55.123 118.954C56.041 118.897 56.9477 118.778 57.843 118.597L58.03 120.331C57.0553 120.535 56.0467 120.665 55.004 120.722C53.9727 120.779 52.556 120.807 50.754 120.807H49.462V110.556ZM71.4264 110.556V120.773H64.1504V110.556H71.4264ZM69.3694 119.107V112.222H66.2244V119.107H69.3694ZM73.8914 109.162H75.9994V124.445H73.8914V109.162ZM90.6708 110.488V111.967C90.6708 113.27 90.6368 114.449 90.5688 115.503C90.5121 116.557 90.3535 117.798 90.0928 119.226L87.9678 119.005C88.2285 117.713 88.3928 116.557 88.4608 115.537C88.5288 114.506 88.5628 113.389 88.5628 112.188H79.6548V110.488H90.6708ZM78.2608 120.824H83.1738V115.588H85.2818V120.824H92.0308V122.558H78.2608V120.824ZM98.2612 123.136L103.072 112.358L97.5132 112.375V110.59H105.146L105.316 112.358L100.505 123.136H98.2612ZM119.333 109.179V118.019H117.242V117.526H114.522V116.251H117.242V109.179H119.333ZM106.566 114.585C108.527 114.585 110.283 114.568 111.836 114.534C113.389 114.489 114.885 114.392 116.324 114.245L116.426 115.554C115.157 115.735 113.808 115.86 112.38 115.928V118.036H110.272V116.013C109.456 116.024 108.294 116.03 106.787 116.03L106.566 114.585ZM107.603 111.695C107.603 111.004 107.949 110.454 108.64 110.046C109.343 109.627 110.261 109.417 111.394 109.417C112.539 109.417 113.457 109.627 114.148 110.046C114.851 110.454 115.202 111.004 115.202 111.695C115.202 112.386 114.851 112.942 114.148 113.361C113.457 113.769 112.539 113.973 111.394 113.973C110.261 113.973 109.343 113.769 108.64 113.361C107.949 112.942 107.603 112.386 107.603 111.695ZM108.742 118.495H119.333V122.014H110.85V122.847H119.724V124.309H108.759V120.688H117.259V119.923H108.742V118.495ZM109.558 111.695C109.558 111.99 109.722 112.216 110.051 112.375C110.38 112.522 110.827 112.596 111.394 112.596C111.972 112.596 112.425 112.522 112.754 112.375C113.083 112.216 113.247 111.99 113.247 111.695C113.247 111.412 113.083 111.191 112.754 111.032C112.425 110.873 111.972 110.794 111.394 110.794C110.827 110.794 110.38 110.873 110.051 111.032C109.722 111.191 109.558 111.412 109.558 111.695ZM129.065 117.866V119.498H135.372V117.866H137.463V124.275H126.991V117.866H129.065ZM125.359 115.163H135.083C135.321 114.007 135.44 112.783 135.44 111.491H127.059V109.808H137.497V111.015C137.497 111.82 137.475 112.522 137.429 113.123C137.395 113.724 137.305 114.404 137.157 115.163H139.146V116.863H125.359V115.163ZM135.372 122.575V121.113H129.065V122.575H135.372ZM145.93 109.893V111.338C145.93 112.358 146.23 113.282 146.831 114.109C147.443 114.925 148.332 115.514 149.5 115.877L148.48 117.526C147.641 117.254 146.921 116.857 146.321 116.336C145.72 115.815 145.244 115.197 144.893 114.483C144.53 115.265 144.037 115.939 143.414 116.506C142.802 117.073 142.059 117.498 141.187 117.781L140.15 116.115C141.351 115.73 142.258 115.101 142.87 114.228C143.482 113.355 143.788 112.392 143.788 111.338V109.893H145.93ZM142.462 118.954H152.832V124.428H150.707V120.637H142.462V118.954ZM150.707 109.196H152.832V118.274H150.707V109.196ZM170.945 109.179V113.565H173.002V115.299H170.945V120.28H168.837V109.179H170.945ZM159.113 114.041C159.113 113.304 159.295 112.641 159.657 112.052C160.02 111.463 160.513 111.004 161.136 110.675C161.76 110.335 162.457 110.165 163.227 110.165C163.998 110.165 164.695 110.335 165.318 110.675C165.942 111.004 166.435 111.463 166.797 112.052C167.16 112.641 167.341 113.304 167.341 114.041C167.341 114.766 167.16 115.424 166.797 116.013C166.435 116.602 165.942 117.067 165.318 117.407C164.695 117.736 163.998 117.9 163.227 117.9C162.457 117.9 161.76 117.736 161.136 117.407C160.513 117.067 160.02 116.602 159.657 116.013C159.295 115.424 159.113 114.766 159.113 114.041ZM161.153 114.041C161.153 114.653 161.352 115.146 161.748 115.52C162.145 115.883 162.638 116.064 163.227 116.064C163.828 116.064 164.321 115.883 164.706 115.52C165.103 115.146 165.301 114.653 165.301 114.041C165.301 113.418 165.103 112.925 164.706 112.562C164.321 112.188 163.828 112.001 163.227 112.001C162.638 112.001 162.145 112.188 161.748 112.562C161.352 112.925 161.153 113.418 161.153 114.041ZM161.17 119.124H163.278V122.456H171.523V124.139H161.17V119.124ZM186.858 109.179V124.411H184.852V116.795H183.407V123.68H181.452V109.468H183.407V115.095H184.852V109.179H186.858ZM174.448 110.896H176.539V118.869C177.989 118.824 179.338 118.682 180.585 118.444L180.789 120.246C179.225 120.541 177.462 120.688 175.502 120.688H174.448V110.896Z" fill="#42464A"/>
<path d="M246.79 120.852C247.247 120.852 247.653 120.689 248.008 120.362C248.372 120.035 248.652 119.578 248.848 118.99C249.044 118.393 249.142 117.711 249.142 116.946C249.142 116.171 249.044 115.49 248.848 114.902C248.652 114.314 248.376 113.857 248.022 113.53C247.667 113.203 247.256 113.04 246.79 113.04C246.323 113.04 245.908 113.203 245.544 113.53C245.189 113.857 244.914 114.314 244.718 114.902C244.522 115.49 244.424 116.171 244.424 116.946C244.424 117.711 244.522 118.393 244.718 118.99C244.914 119.578 245.189 120.035 245.544 120.362C245.908 120.689 246.323 120.852 246.79 120.852ZM242.968 116.946C242.968 115.947 243.131 115.056 243.458 114.272C243.784 113.479 244.237 112.863 244.816 112.424C245.394 111.976 246.052 111.752 246.79 111.752C247.527 111.752 248.185 111.976 248.764 112.424C249.342 112.863 249.79 113.479 250.108 114.272C250.434 115.056 250.598 115.947 250.598 116.946C250.598 117.945 250.434 118.841 250.108 119.634C249.79 120.418 249.342 121.029 248.764 121.468C248.185 121.907 247.527 122.126 246.79 122.126C246.052 122.126 245.394 121.907 244.816 121.468C244.237 121.029 243.784 120.418 243.458 119.634C243.131 118.841 242.968 117.945 242.968 116.946ZM255.355 120.866C255.961 120.866 256.456 120.67 256.839 120.278C257.231 119.886 257.427 119.377 257.427 118.752C257.427 118.127 257.231 117.618 256.839 117.226C256.456 116.825 255.961 116.624 255.355 116.624C254.757 116.624 254.267 116.825 253.885 117.226C253.502 117.618 253.311 118.127 253.311 118.752C253.311 119.377 253.502 119.886 253.885 120.278C254.267 120.67 254.757 120.866 255.355 120.866ZM251.855 118.752C251.855 118.136 252.041 117.492 252.415 116.82L255.229 111.836H256.895L254.851 115.406C255.009 115.369 255.196 115.35 255.411 115.35C256.083 115.35 256.68 115.499 257.203 115.798C257.735 116.087 258.145 116.489 258.435 117.002C258.733 117.515 258.883 118.099 258.883 118.752C258.883 119.405 258.733 119.989 258.435 120.502C258.136 121.015 257.721 121.417 257.189 121.706C256.657 121.995 256.05 122.14 255.369 122.14C254.687 122.14 254.081 121.995 253.549 121.706C253.017 121.417 252.601 121.015 252.303 120.502C252.004 119.989 251.855 119.405 251.855 118.752ZM264.85 122.784H263.394L266.39 111.192H267.832L264.85 122.784ZM278.013 116.778C278.461 117.039 278.815 117.394 279.077 117.842C279.347 118.281 279.483 118.719 279.483 119.158C279.483 119.727 279.338 120.236 279.049 120.684C278.759 121.132 278.353 121.482 277.831 121.734C277.308 121.986 276.715 122.112 276.053 122.112C275.39 122.112 274.797 121.986 274.275 121.734C273.752 121.473 273.341 121.113 273.043 120.656C272.753 120.189 272.609 119.662 272.609 119.074H274.065C274.065 119.587 274.251 120.007 274.625 120.334C274.998 120.661 275.474 120.824 276.053 120.824C276.65 120.824 277.135 120.665 277.509 120.348C277.882 120.021 278.069 119.601 278.069 119.088C278.069 118.584 277.882 118.173 277.509 117.856C277.135 117.539 276.659 117.38 276.081 117.38H275.353V116.162H276.081C276.622 116.162 277.065 116.017 277.411 115.728C277.756 115.439 277.929 115.065 277.929 114.608C277.929 114.151 277.761 113.782 277.425 113.502C277.089 113.213 276.659 113.068 276.137 113.068C275.623 113.068 275.199 113.213 274.863 113.502C274.536 113.791 274.373 114.165 274.373 114.622H272.917C272.917 114.071 273.052 113.581 273.323 113.152C273.603 112.713 273.985 112.377 274.471 112.144C274.956 111.901 275.511 111.78 276.137 111.78C276.753 111.78 277.303 111.897 277.789 112.13C278.283 112.363 278.666 112.69 278.937 113.11C279.207 113.53 279.343 114.006 279.343 114.538C279.343 114.939 279.221 115.35 278.979 115.77C278.736 116.181 278.414 116.517 278.013 116.778ZM284.565 120.852C285.022 120.852 285.428 120.689 285.783 120.362C286.147 120.035 286.427 119.578 286.623 118.99C286.819 118.393 286.917 117.711 286.917 116.946C286.917 116.171 286.819 115.49 286.623 114.902C286.427 114.314 286.152 113.857 285.797 113.53C285.442 113.203 285.032 113.04 284.565 113.04C284.098 113.04 283.683 113.203 283.319 113.53C282.964 113.857 282.689 114.314 282.493 114.902C282.297 115.49 282.199 116.171 282.199 116.946C282.199 117.711 282.297 118.393 282.493 118.99C282.689 119.578 282.964 120.035 283.319 120.362C283.683 120.689 284.098 120.852 284.565 120.852ZM280.743 116.946C280.743 115.947 280.906 115.056 281.233 114.272C281.56 113.479 282.012 112.863 282.591 112.424C283.17 111.976 283.828 111.752 284.565 111.752C285.302 111.752 285.96 111.976 286.539 112.424C287.118 112.863 287.566 113.479 287.883 114.272C288.21 115.056 288.373 115.947 288.373 116.946C288.373 117.945 288.21 118.841 287.883 119.634C287.566 120.418 287.118 121.029 286.539 121.468C285.96 121.907 285.302 122.126 284.565 122.126C283.828 122.126 283.17 121.907 282.591 121.468C282.012 121.029 281.56 120.418 281.233 119.634C280.906 118.841 280.743 117.945 280.743 116.946Z" fill="#0076FF"/>
<path d="M48.924 142.264H53.76V143.308H50.208V148.312C51.9 148.3 53.064 148.24 54.384 148L54.516 149.044C53.028 149.32 51.744 149.38 49.764 149.38H48.924V142.264ZM53.208 146.104V145.06H56.004V141.292H57.288V151.984H56.004V146.104H53.208ZM68.7179 141.292H70.0139V143.452H71.4899V144.508H70.0139V146.656H68.7179V141.292ZM61.7939 144.028C61.7939 142.624 62.9939 141.628 64.5899 141.628C66.2099 141.628 67.4099 142.624 67.4099 144.028C67.4099 145.444 66.2099 146.428 64.5899 146.428C62.9939 146.428 61.7939 145.444 61.7939 144.028ZM63.0419 144.028C63.0419 144.856 63.7019 145.396 64.5899 145.396C65.5019 145.396 66.1499 144.856 66.1499 144.028C66.1499 143.212 65.5019 142.672 64.5899 142.672C63.7019 142.672 63.0419 143.212 63.0419 144.028ZM63.0899 148.12V147.112H70.0139V149.908H64.3859V150.808H70.3499V151.828H63.1139V148.96H68.7299V148.12H63.0899ZM75.0062 142.06C76.6022 142.06 77.7542 143.524 77.7542 145.828C77.7542 148.144 76.6022 149.62 75.0062 149.62C73.4102 149.62 72.2462 148.144 72.2462 145.828C72.2462 143.524 73.4102 142.06 75.0062 142.06ZM73.4942 145.828C73.4942 147.484 74.1062 148.444 75.0062 148.444C75.9062 148.444 76.5182 147.484 76.5182 145.828C76.5182 144.196 75.9062 143.236 75.0062 143.236C74.1062 143.236 73.4942 144.196 73.4942 145.828ZM79.1582 151.96V141.292H80.4542V145.42H82.0742V146.488H80.4542V151.96H79.1582ZM82.6385 149.608H86.8145V147.496H83.7185V142H84.9905V143.752H89.9345V142H91.2065V147.496H88.0985V149.608H92.2985V150.664H82.6385V149.608ZM84.9905 146.476H89.9345V144.772H84.9905V146.476ZM100.651 141.292H101.947V151.96H100.651V141.292ZM93.1868 149.056C95.9708 147.712 97.2548 145.888 97.4708 143.44H93.7268V142.408H98.7908C98.7908 145.6 97.5668 148.288 93.8708 150.076L93.1868 149.056Z" fill="#0076FF"/>
<path d="M109.808 149.805C109.565 149.56 109.566 149.165 109.81 148.922L112.09 146.641C112.168 146.563 112.168 146.437 112.091 146.359L109.809 144.072C109.566 143.829 109.566 143.434 109.81 143.191V143.191C110.053 142.947 110.448 142.947 110.691 143.191L113.293 145.793C113.684 146.183 113.684 146.817 113.293 147.207L110.694 149.806C110.449 150.051 110.052 150.05 109.808 149.805V149.805Z" fill="#0076FF"/>
<rect x="385.5" y="41.5" width="336" height="177" rx="15.5" fill="white"/>
<rect x="385.5" y="41.5" width="336" height="177" rx="15.5" stroke="#D8D8D8"/>
<rect x="409" y="82" width="289" height="96" rx="12" fill="#F2F5F8"/>
<path d="M446.141 109.179V124.462H444.033V109.179H446.141ZM434.462 110.556H441.789V112.256H436.536V119.056C438.009 119.045 439.205 119.011 440.123 118.954C441.041 118.897 441.948 118.778 442.843 118.597L443.03 120.331C442.055 120.535 441.047 120.665 440.004 120.722C438.973 120.779 437.556 120.807 435.754 120.807H434.462V110.556ZM456.426 110.556V120.773H449.15V110.556H456.426ZM454.369 119.107V112.222H451.224V119.107H454.369ZM458.891 109.162H460.999V124.445H458.891V109.162ZM475.671 110.488V111.967C475.671 113.27 475.637 114.449 475.569 115.503C475.512 116.557 475.353 117.798 475.093 119.226L472.968 119.005C473.228 117.713 473.393 116.557 473.461 115.537C473.529 114.506 473.563 113.389 473.563 112.188H464.655V110.488H475.671ZM463.261 120.824H468.174V115.588H470.282V120.824H477.031V122.558H463.261V120.824ZM483.261 123.136L488.072 112.358L482.513 112.375V110.59H490.146L490.316 112.358L485.505 123.136H483.261ZM504.333 109.179V118.019H502.242V117.526H499.522V116.251H502.242V109.179H504.333ZM491.566 114.585C493.527 114.585 495.283 114.568 496.836 114.534C498.389 114.489 499.885 114.392 501.324 114.245L501.426 115.554C500.157 115.735 498.808 115.86 497.38 115.928V118.036H495.272V116.013C494.456 116.024 493.294 116.03 491.787 116.03L491.566 114.585ZM492.603 111.695C492.603 111.004 492.949 110.454 493.64 110.046C494.343 109.627 495.261 109.417 496.394 109.417C497.539 109.417 498.457 109.627 499.148 110.046C499.851 110.454 500.202 111.004 500.202 111.695C500.202 112.386 499.851 112.942 499.148 113.361C498.457 113.769 497.539 113.973 496.394 113.973C495.261 113.973 494.343 113.769 493.64 113.361C492.949 112.942 492.603 112.386 492.603 111.695ZM493.742 118.495H504.333V122.014H495.85V122.847H504.724V124.309H493.759V120.688H502.259V119.923H493.742V118.495ZM494.558 111.695C494.558 111.99 494.722 112.216 495.051 112.375C495.38 112.522 495.827 112.596 496.394 112.596C496.972 112.596 497.425 112.522 497.754 112.375C498.083 112.216 498.247 111.99 498.247 111.695C498.247 111.412 498.083 111.191 497.754 111.032C497.425 110.873 496.972 110.794 496.394 110.794C495.827 110.794 495.38 110.873 495.051 111.032C494.722 111.191 494.558 111.412 494.558 111.695ZM514.065 117.866V119.498H520.372V117.866H522.463V124.275H511.991V117.866H514.065ZM510.359 115.163H520.083C520.321 114.007 520.44 112.783 520.44 111.491H512.059V109.808H522.497V111.015C522.497 111.82 522.475 112.522 522.429 113.123C522.395 113.724 522.305 114.404 522.157 115.163H524.146V116.863H510.359V115.163ZM520.372 122.575V121.113H514.065V122.575H520.372ZM530.93 109.893V111.338C530.93 112.358 531.23 113.282 531.831 114.109C532.443 114.925 533.332 115.514 534.5 115.877L533.48 117.526C532.641 117.254 531.921 116.857 531.321 116.336C530.72 115.815 530.244 115.197 529.893 114.483C529.53 115.265 529.037 115.939 528.414 116.506C527.802 117.073 527.059 117.498 526.187 117.781L525.15 116.115C526.351 115.73 527.258 115.101 527.87 114.228C528.482 113.355 528.788 112.392 528.788 111.338V109.893H530.93ZM527.462 118.954H537.832V124.428H535.707V120.637H527.462V118.954ZM535.707 109.196H537.832V118.274H535.707V109.196ZM555.945 109.179V113.565H558.002V115.299H555.945V120.28H553.837V109.179H555.945ZM544.113 114.041C544.113 113.304 544.295 112.641 544.657 112.052C545.02 111.463 545.513 111.004 546.136 110.675C546.76 110.335 547.457 110.165 548.227 110.165C548.998 110.165 549.695 110.335 550.318 110.675C550.942 111.004 551.435 111.463 551.797 112.052C552.16 112.641 552.341 113.304 552.341 114.041C552.341 114.766 552.16 115.424 551.797 116.013C551.435 116.602 550.942 117.067 550.318 117.407C549.695 117.736 548.998 117.9 548.227 117.9C547.457 117.9 546.76 117.736 546.136 117.407C545.513 117.067 545.02 116.602 544.657 116.013C544.295 115.424 544.113 114.766 544.113 114.041ZM546.153 114.041C546.153 114.653 546.352 115.146 546.748 115.52C547.145 115.883 547.638 116.064 548.227 116.064C548.828 116.064 549.321 115.883 549.706 115.52C550.103 115.146 550.301 114.653 550.301 114.041C550.301 113.418 550.103 112.925 549.706 112.562C549.321 112.188 548.828 112.001 548.227 112.001C547.638 112.001 547.145 112.188 546.748 112.562C546.352 112.925 546.153 113.418 546.153 114.041ZM546.17 119.124H548.278V122.456H556.523V124.139H546.17V119.124ZM571.858 109.179V124.411H569.852V116.795H568.407V123.68H566.452V109.468H568.407V115.095H569.852V109.179H571.858ZM559.448 110.896H561.539V118.869C562.989 118.824 564.338 118.682 565.585 118.444L565.789 120.246C564.225 120.541 562.462 120.688 560.502 120.688H559.448V110.896Z" fill="#42464A"/>
<path d="M631.79 120.852C633.19 120.852 634.142 119.27 634.142 116.946C634.142 114.608 633.19 113.04 631.79 113.04C630.376 113.04 629.424 114.608 629.424 116.946C629.424 119.27 630.376 120.852 631.79 120.852ZM627.968 116.946C627.968 113.908 629.55 111.752 631.79 111.752C634.03 111.752 635.598 113.908 635.598 116.946C635.598 119.984 634.03 122.126 631.79 122.126C629.55 122.126 627.968 119.984 627.968 116.946ZM640.355 120.866C641.573 120.866 642.427 119.998 642.427 118.752C642.427 117.506 641.573 116.624 640.355 116.624C639.165 116.624 638.311 117.506 638.311 118.752C638.311 119.998 639.165 120.866 640.355 120.866ZM636.855 118.752C636.855 118.01 637.121 117.352 637.415 116.82L640.229 111.836H641.895L639.851 115.406C640.033 115.364 640.215 115.35 640.411 115.35C642.455 115.364 643.883 116.764 643.883 118.752C643.883 120.74 642.441 122.14 640.369 122.14C638.311 122.14 636.855 120.74 636.855 118.752ZM652.832 111.192L649.85 122.784H648.394L651.39 111.192H652.832ZM663.013 116.778C663.923 117.31 664.483 118.304 664.483 119.158C664.483 120.894 663.069 122.112 661.053 122.112C659.037 122.112 657.609 120.866 657.609 119.074H659.065C659.065 120.11 659.891 120.824 661.053 120.824C662.243 120.824 663.069 120.11 663.069 119.088C663.069 118.08 662.243 117.38 661.081 117.38H660.353V116.162H661.081C662.159 116.162 662.929 115.518 662.929 114.608C662.929 113.698 662.187 113.068 661.137 113.068C660.101 113.068 659.373 113.712 659.373 114.622H657.917C657.917 112.942 659.247 111.78 661.137 111.78C663.013 111.78 664.343 112.914 664.343 114.538C664.343 115.322 663.839 116.246 663.013 116.778ZM669.565 120.852C670.965 120.852 671.917 119.27 671.917 116.946C671.917 114.608 670.965 113.04 669.565 113.04C668.151 113.04 667.199 114.608 667.199 116.946C667.199 119.27 668.151 120.852 669.565 120.852ZM665.743 116.946C665.743 113.908 667.325 111.752 669.565 111.752C671.805 111.752 673.373 113.908 673.373 116.946C673.373 119.984 671.805 122.126 669.565 122.126C667.325 122.126 665.743 119.984 665.743 116.946Z" fill="#787F8A"/>
<path d="M433.924 142.264H438.76V143.308H435.208V148.312C436.9 148.3 438.064 148.24 439.384 148L439.516 149.044C438.028 149.32 436.744 149.38 434.764 149.38H433.924V142.264ZM438.208 146.104V145.06H441.004V141.292H442.288V151.984H441.004V146.104H438.208ZM453.718 141.292H455.014V143.452H456.49V144.508H455.014V146.656H453.718V141.292ZM446.794 144.028C446.794 142.624 447.994 141.628 449.59 141.628C451.21 141.628 452.41 142.624 452.41 144.028C452.41 145.444 451.21 146.428 449.59 146.428C447.994 146.428 446.794 145.444 446.794 144.028ZM448.042 144.028C448.042 144.856 448.702 145.396 449.59 145.396C450.502 145.396 451.15 144.856 451.15 144.028C451.15 143.212 450.502 142.672 449.59 142.672C448.702 142.672 448.042 143.212 448.042 144.028ZM448.09 148.12V147.112H455.014V149.908H449.386V150.808H455.35V151.828H448.114V148.96H453.73V148.12H448.09ZM460.006 142.06C461.602 142.06 462.754 143.524 462.754 145.828C462.754 148.144 461.602 149.62 460.006 149.62C458.41 149.62 457.246 148.144 457.246 145.828C457.246 143.524 458.41 142.06 460.006 142.06ZM458.494 145.828C458.494 147.484 459.106 148.444 460.006 148.444C460.906 148.444 461.518 147.484 461.518 145.828C461.518 144.196 460.906 143.236 460.006 143.236C459.106 143.236 458.494 144.196 458.494 145.828ZM464.158 151.96V141.292H465.454V145.42H467.074V146.488H465.454V151.96H464.158ZM467.638 149.608H471.814V147.496H468.718V142H469.99V143.752H474.934V142H476.206V147.496H473.098V149.608H477.298V150.664H467.638V149.608ZM469.99 146.476H474.934V144.772H469.99V146.476ZM485.651 141.292H486.947V151.96H485.651V141.292ZM478.187 149.056C480.971 147.712 482.255 145.888 482.471 143.44H478.727V142.408H483.791C483.791 145.6 482.567 148.288 478.871 150.076L478.187 149.056Z" fill="#0076FF"/>
<path d="M494.808 149.805C494.565 149.56 494.566 149.165 494.81 148.922L497.09 146.641C497.168 146.563 497.168 146.437 497.091 146.359L494.809 144.072C494.566 143.829 494.566 143.434 494.81 143.191V143.191C495.053 142.947 495.448 142.947 495.691 143.191L498.293 145.793C498.684 146.183 498.684 146.817 498.293 147.207L495.694 149.806C495.449 150.051 495.052 150.05 494.808 149.805V149.805Z" fill="#0076FF"/>
<path d="M35.3402 6.672L42.4682 24H40.5962L38.5562 19.008H30.1562L28.0682 24H26.1962L33.4202 6.672H35.3402ZM30.7802 17.472H37.9082L34.3802 8.88L30.7802 17.472ZM46.8917 21.912C47.5877 21.912 48.0677 22.392 48.0677 23.088C48.0677 23.808 47.5877 24.312 46.8917 24.312C46.1717 24.312 45.6677 23.808 45.6677 23.088C45.6677 22.392 46.1717 21.912 46.8917 21.912Z" fill="black"/>
<path d="M411.132 24V6.672H417.588C420.372 6.672 422.34 8.616 422.34 11.376C422.34 12.504 421.692 13.848 420.732 14.736L421.164 14.976C422.508 15.864 423.468 17.592 423.468 19.176C423.468 22.008 421.5 24 418.692 24H411.132ZM412.86 22.464H418.716C420.516 22.464 421.788 21.12 421.788 19.224C421.788 17.208 420.516 15.792 418.716 15.792H412.86V22.464ZM412.86 14.256H418.02C419.58 14.184 420.684 12.984 420.684 11.328C420.684 9.504 419.412 8.208 417.612 8.208H412.86V14.256ZM427.364 21.912C428.06 21.912 428.54 22.392 428.54 23.088C428.54 23.808 428.06 24.312 427.364 24.312C426.644 24.312 426.14 23.808 426.14 23.088C426.14 22.392 426.644 21.912 427.364 21.912Z" fill="black"/>
</svg>
