<svg width="722" height="219" viewBox="0 0 722 219" fill="none" xmlns="http://www.w3.org/2000/svg">
<rect x="0.5" y="41.5" width="336" height="177" rx="15.5" fill="white"/>
<rect x="0.5" y="41.5" width="336" height="177" rx="15.5" stroke="#D8D8D8"/>
<path d="M89.0478 87.104H90.5038V101.248H89.0478V87.104ZM79.8318 97.776V88.432H86.5358V89.648H81.2718V96.544C83.9438 96.544 85.6718 96.464 87.6558 96.08L87.7998 97.312C85.7038 97.712 83.8798 97.776 80.9838 97.776H79.8318ZM93.6881 88.464H100.248V97.728H93.6881V88.464ZM95.1281 96.544H98.8241V89.632H95.1281V96.544ZM103.032 101.248V87.088H104.488V101.248H103.032ZM108.249 88.464H118.201V89.856C118.201 91.6 118.201 93.552 117.689 96.432L116.217 96.272C116.745 93.536 116.745 91.552 116.745 89.856V89.664H108.249V88.464ZM106.905 99.312V98.096H111.769V93.104H113.225V98.096H119.673V99.312H106.905ZM131.513 87.104H132.905V101.216H131.513V87.104ZM121.049 93.2C121.049 90.144 122.233 88.24 124.057 88.24C125.753 88.24 126.905 89.872 127.065 92.528H128.681V87.408H130.057V100.528H128.681V93.728H127.065C126.937 96.496 125.785 98.176 124.057 98.176C122.233 98.176 121.049 96.272 121.049 93.2ZM122.377 93.2C122.377 95.472 123.017 96.8 124.057 96.8C125.113 96.8 125.753 95.472 125.753 93.2C125.753 90.944 125.113 89.616 124.057 89.616C123.017 89.616 122.377 90.944 122.377 93.2ZM148.689 87.12H150.145V94.688H148.689V87.12ZM138.849 91.024C138.849 89.104 140.417 87.776 142.561 87.776C144.705 87.776 146.273 89.104 146.273 91.024C146.273 92.96 144.705 94.304 142.561 94.304C140.417 94.304 138.849 92.96 138.849 91.024ZM140.273 91.024C140.273 92.256 141.233 93.072 142.561 93.072C143.889 93.072 144.849 92.256 144.849 91.024C144.849 89.808 143.889 88.976 142.561 88.976C141.233 88.976 140.273 89.808 140.273 91.024ZM140.993 101.04V95.376H142.449V96.976H148.705V95.376H150.145V101.04H140.993ZM142.449 99.872H148.705V98.128H142.449V99.872ZM152.577 88.544H156.017V87.024H157.473V88.544H160.913V89.712H152.577V88.544ZM153.345 92.944C153.345 91.392 154.721 90.368 156.737 90.368C158.769 90.368 160.145 91.392 160.145 92.944C160.145 94.496 158.769 95.488 156.737 95.488C154.721 95.488 153.345 94.496 153.345 92.944ZM154.321 97.84V96.656H163.537V101.232H162.065V97.84H154.321ZM154.737 92.944C154.737 93.808 155.537 94.384 156.737 94.384C157.937 94.384 158.737 93.808 158.737 92.944C158.737 92.048 157.937 91.504 156.737 91.504C155.537 91.504 154.737 92.048 154.737 92.944ZM162.065 95.936V87.12H163.537V90.944H165.569V92.16H163.537V95.936H162.065ZM175.986 87.12H177.442V92.848H179.682V94.064H177.442V101.232H175.986V87.12ZM166.45 90.512V89.328H169.906V87.296H171.394V89.328H174.77V90.512H166.45ZM167.202 94.864C167.202 92.944 168.674 91.6 170.658 91.6C172.674 91.6 174.13 92.944 174.13 94.864C174.13 96.784 172.674 98.128 170.658 98.128C168.674 98.128 167.202 96.784 167.202 94.864ZM168.594 94.864C168.594 96.096 169.458 96.928 170.658 96.928C171.858 96.928 172.738 96.096 172.738 94.864C172.738 93.648 171.858 92.8 170.658 92.8C169.458 92.8 168.594 93.648 168.594 94.864ZM184.146 88.304H185.618V90.704C185.618 93.296 187.17 95.904 189.314 96.88L188.45 98.048C186.834 97.264 185.57 95.664 184.914 93.712C184.258 95.792 182.962 97.504 181.282 98.32L180.402 97.12C182.578 96.112 184.146 93.408 184.146 90.704V88.304ZM190.61 101.248V87.088H192.066V101.248H190.61ZM200.706 88.128C200.706 89.184 200.53 90.16 200.178 91.04H202.226V87.408H203.586V95.024H202.226V92.224H199.57C198.674 93.616 197.266 94.72 195.346 95.552L194.61 94.464C197.394 93.344 198.914 91.616 199.186 89.328H195.234V88.128H200.706ZM195.282 100.096C197.074 99.44 198.082 97.936 198.082 96.56V95.712H199.49V96.56C199.49 97.808 200.066 99.088 201.33 99.856C202.626 99.008 203.25 97.632 203.25 96.56V95.712H204.674V96.56C204.674 98.048 205.65 99.504 207.458 100.096L206.754 101.168C205.378 100.656 204.434 99.696 203.938 98.512C203.522 99.664 202.69 100.736 201.378 101.28C200.034 100.752 199.186 99.744 198.754 98.576C198.258 99.712 197.33 100.656 196.002 101.168L195.282 100.096ZM205.026 95.232V87.104H206.434V95.232H205.026ZM210.067 95.568H211.507V97.104H218.131V95.568H219.571V101.04H210.067V95.568ZM208.483 94.656V93.488H221.235V94.656H208.483ZM209.187 91.424C211.875 91.072 214.115 89.552 214.115 87.84V87.264H215.619V87.84C215.619 89.52 217.875 91.088 220.531 91.424L220.003 92.56C217.763 92.24 215.779 91.168 214.867 89.648C213.971 91.168 211.971 92.24 209.731 92.56L209.187 91.424ZM211.507 99.872H218.131V98.224H211.507V99.872ZM232.627 87.104H234.067V101.216H232.627V87.104ZM223.315 97.616V88.48H224.771V96.368C226.803 96.352 228.963 96.192 231.235 95.712L231.427 96.944C228.979 97.456 226.707 97.616 224.515 97.616H223.315ZM246.115 87.104H247.555V92.848H249.619V94.064H247.555V101.216H246.115V87.104ZM236.339 97.264C238.387 95.12 239.155 92.656 239.283 89.808H236.835V88.608H240.659C240.659 92.128 240.035 95.36 237.491 98.112L236.339 97.264ZM240.355 98.208C242.435 95.744 243.043 92.816 243.155 89.808H241.123V88.608H244.531C244.531 92.176 244.083 95.952 241.523 99.024L240.355 98.208ZM253.94 100.288C253.412 100.288 253.044 99.92 253.044 99.376C253.044 98.864 253.412 98.496 253.94 98.496C254.468 98.496 254.82 98.864 254.82 99.376C254.82 99.92 254.468 100.288 253.94 100.288ZM250.596 90.608C251.172 89.072 252.66 88 254.212 88C256.42 88 257.892 89.472 257.796 91.552C257.732 92.64 257.172 93.696 255.684 94.816C254.852 95.424 254.644 95.856 254.66 97.056L253.22 97.088C253.204 95.472 253.652 94.512 254.82 93.664C256.02 92.768 256.308 92.192 256.356 91.488C256.42 90.272 255.524 89.44 254.212 89.44C253.252 89.44 252.324 90.128 251.94 91.12L250.596 90.608Z" fill="#42464A"/>
<rect x="24" y="124" width="136" height="52" rx="16" fill="#F86060"/>
<path d="M65.4713 144.544H68.3833V143.088H70.1113V144.544H73.0553V145.888H70.1113C70.1273 147.136 71.2793 148.24 73.3433 148.672L72.6553 150C71.0553 149.664 69.9033 148.88 69.2953 147.872C68.6713 148.992 67.5033 149.824 65.8233 150.192L65.1193 148.864C67.2473 148.416 68.3833 147.216 68.3993 145.888H65.4713V144.544ZM64.5753 150.96C67.1993 150.96 70.7193 150.944 73.7433 150.528L73.8553 151.792C72.6233 152 71.3593 152.144 70.1113 152.224V156.864H68.3833V152.32C67.0873 152.368 65.8713 152.384 64.7833 152.384L64.5753 150.96ZM74.6553 157.28V143.056H76.3513V157.28H74.6553ZM78.5596 154.112H84.0956V150.832H85.7916V154.112H91.4396V155.52H78.5596V154.112ZM78.9596 149.728C81.8716 149.232 84.0316 147.088 84.0316 144.96V143.904H85.8556V144.96C85.8556 147.12 88.0156 149.232 90.9436 149.728L90.2076 151.168C87.8236 150.704 85.8716 149.312 84.9436 147.44C83.9996 149.296 82.0476 150.704 79.6636 151.168L78.9596 149.728ZM101.888 143.056H103.616V148.736H105.776V150.16H103.616V157.28H101.888V143.056ZM92.464 146.608V145.232H95.808V143.264H97.552V145.232H100.816V146.608H92.464ZM93.136 150.912C93.136 148.96 94.656 147.584 96.688 147.584C98.736 147.584 100.224 148.96 100.224 150.912C100.224 152.88 98.736 154.256 96.688 154.256C94.656 154.256 93.136 152.88 93.136 150.912ZM94.784 150.912C94.784 152.096 95.568 152.848 96.688 152.848C97.776 152.848 98.576 152.096 98.576 150.912C98.576 149.744 97.776 148.992 96.688 148.992C95.568 148.992 94.784 149.744 94.784 150.912ZM116.56 143.056H118.288V157.28H116.56V143.056ZM106.608 153.408C110.32 151.616 112.032 149.184 112.32 145.92H107.328V144.544H114.08C114.08 148.8 112.448 152.384 107.52 154.768L106.608 153.408Z" fill="white"/>
<rect x="177" y="124" width="136" height="52" rx="16" fill="#3D92F4"/>
<path d="M227.591 143.056H229.303V150.688H227.591V143.056ZM217.831 146.992C217.831 145.056 219.431 143.696 221.623 143.696C223.799 143.696 225.415 145.056 225.415 146.992C225.415 148.96 223.799 150.32 221.623 150.32C219.431 150.32 217.831 148.96 217.831 146.992ZM219.511 146.992C219.511 148.16 220.391 148.896 221.623 148.896C222.855 148.896 223.735 148.16 223.735 146.992C223.735 145.856 222.855 145.104 221.623 145.104C220.391 145.104 219.511 145.856 219.511 146.992ZM219.991 157.104V151.36H221.687V152.848H227.607V151.36H229.303V157.104H219.991ZM221.687 155.728H227.607V154.176H221.687V155.728ZM231.576 144.416H234.92V142.976H236.632V144.416H239.96V145.776H231.576V144.416ZM232.328 148.96C232.328 147.392 233.736 146.336 235.768 146.336C237.816 146.336 239.24 147.392 239.24 148.96C239.24 150.512 237.816 151.536 235.768 151.536C233.736 151.536 232.328 150.512 232.328 148.96ZM233.32 154.016V152.624H242.696V157.28H240.968V154.016H233.32ZM233.96 148.96C233.96 149.76 234.696 150.24 235.768 150.24C236.856 150.24 237.576 149.76 237.576 148.96C237.576 148.128 236.856 147.664 235.768 147.664C234.696 147.664 233.96 148.128 233.96 148.96ZM240.968 151.968V143.056H242.696V146.832H244.664V148.256H242.696V151.968H240.968ZM254.888 143.056H256.616V148.736H258.776V150.16H256.616V157.28H254.888V143.056ZM245.464 146.608V145.232H248.808V143.264H250.552V145.232H253.816V146.608H245.464ZM246.136 150.912C246.136 148.96 247.656 147.584 249.688 147.584C251.736 147.584 253.224 148.96 253.224 150.912C253.224 152.88 251.736 154.256 249.688 154.256C247.656 154.256 246.136 152.88 246.136 150.912ZM247.784 150.912C247.784 152.096 248.568 152.848 249.688 152.848C250.776 152.848 251.576 152.096 251.576 150.912C251.576 149.744 250.776 148.992 249.688 148.992C248.568 148.992 247.784 149.744 247.784 150.912ZM269.56 143.056H271.288V157.28H269.56V143.056ZM259.608 153.408C263.32 151.616 265.032 149.184 265.32 145.92H260.328V144.544H267.08C267.08 148.8 265.448 152.384 260.52 154.768L259.608 153.408Z" fill="white"/>
<rect x="385.5" y="41.5" width="336" height="177" rx="15.5" fill="white"/>
<rect x="385.5" y="41.5" width="336" height="177" rx="15.5" stroke="#D8D8D8"/>
<path d="M474.048 87.104H475.504V101.248H474.048V87.104ZM464.832 97.776V88.432H471.536V89.648H466.272V96.544C468.944 96.544 470.672 96.464 472.656 96.08L472.8 97.312C470.704 97.712 468.88 97.776 465.984 97.776H464.832ZM478.688 88.464H485.248V97.728H478.688V88.464ZM480.128 96.544H483.824V89.632H480.128V96.544ZM488.032 101.248V87.088H489.488V101.248H488.032ZM493.249 88.464H503.201V89.856C503.201 91.6 503.201 93.552 502.689 96.432L501.217 96.272C501.745 93.536 501.745 91.552 501.745 89.856V89.664H493.249V88.464ZM491.905 99.312V98.096H496.769V93.104H498.225V98.096H504.673V99.312H491.905ZM516.513 87.104H517.905V101.216H516.513V87.104ZM506.049 93.2C506.049 90.144 507.233 88.24 509.057 88.24C510.753 88.24 511.905 89.872 512.065 92.528H513.681V87.408H515.057V100.528H513.681V93.728H512.065C511.937 96.496 510.785 98.176 509.057 98.176C507.233 98.176 506.049 96.272 506.049 93.2ZM507.377 93.2C507.377 95.472 508.017 96.8 509.057 96.8C510.113 96.8 510.753 95.472 510.753 93.2C510.753 90.944 510.113 89.616 509.057 89.616C508.017 89.616 507.377 90.944 507.377 93.2ZM533.689 87.12H535.145V94.688H533.689V87.12ZM523.849 91.024C523.849 89.104 525.417 87.776 527.561 87.776C529.705 87.776 531.273 89.104 531.273 91.024C531.273 92.96 529.705 94.304 527.561 94.304C525.417 94.304 523.849 92.96 523.849 91.024ZM525.273 91.024C525.273 92.256 526.233 93.072 527.561 93.072C528.889 93.072 529.849 92.256 529.849 91.024C529.849 89.808 528.889 88.976 527.561 88.976C526.233 88.976 525.273 89.808 525.273 91.024ZM525.993 101.04V95.376H527.449V96.976H533.705V95.376H535.145V101.04H525.993ZM527.449 99.872H533.705V98.128H527.449V99.872ZM537.577 88.544H541.017V87.024H542.473V88.544H545.913V89.712H537.577V88.544ZM538.345 92.944C538.345 91.392 539.721 90.368 541.737 90.368C543.769 90.368 545.145 91.392 545.145 92.944C545.145 94.496 543.769 95.488 541.737 95.488C539.721 95.488 538.345 94.496 538.345 92.944ZM539.321 97.84V96.656H548.537V101.232H547.065V97.84H539.321ZM539.737 92.944C539.737 93.808 540.537 94.384 541.737 94.384C542.937 94.384 543.737 93.808 543.737 92.944C543.737 92.048 542.937 91.504 541.737 91.504C540.537 91.504 539.737 92.048 539.737 92.944ZM547.065 95.936V87.12H548.537V90.944H550.569V92.16H548.537V95.936H547.065ZM560.986 87.12H562.442V92.848H564.682V94.064H562.442V101.232H560.986V87.12ZM551.45 90.512V89.328H554.906V87.296H556.394V89.328H559.77V90.512H551.45ZM552.202 94.864C552.202 92.944 553.674 91.6 555.658 91.6C557.674 91.6 559.13 92.944 559.13 94.864C559.13 96.784 557.674 98.128 555.658 98.128C553.674 98.128 552.202 96.784 552.202 94.864ZM553.594 94.864C553.594 96.096 554.458 96.928 555.658 96.928C556.858 96.928 557.738 96.096 557.738 94.864C557.738 93.648 556.858 92.8 555.658 92.8C554.458 92.8 553.594 93.648 553.594 94.864ZM569.146 88.304H570.618V90.704C570.618 93.296 572.17 95.904 574.314 96.88L573.45 98.048C571.834 97.264 570.57 95.664 569.914 93.712C569.258 95.792 567.962 97.504 566.282 98.32L565.402 97.12C567.578 96.112 569.146 93.408 569.146 90.704V88.304ZM575.61 101.248V87.088H577.066V101.248H575.61ZM585.706 88.128C585.706 89.184 585.53 90.16 585.178 91.04H587.226V87.408H588.586V95.024H587.226V92.224H584.57C583.674 93.616 582.266 94.72 580.346 95.552L579.61 94.464C582.394 93.344 583.914 91.616 584.186 89.328H580.234V88.128H585.706ZM580.282 100.096C582.074 99.44 583.082 97.936 583.082 96.56V95.712H584.49V96.56C584.49 97.808 585.066 99.088 586.33 99.856C587.626 99.008 588.25 97.632 588.25 96.56V95.712H589.674V96.56C589.674 98.048 590.65 99.504 592.458 100.096L591.754 101.168C590.378 100.656 589.434 99.696 588.938 98.512C588.522 99.664 587.69 100.736 586.378 101.28C585.034 100.752 584.186 99.744 583.754 98.576C583.258 99.712 582.33 100.656 581.002 101.168L580.282 100.096ZM590.026 95.232V87.104H591.434V95.232H590.026ZM595.067 95.568H596.507V97.104H603.131V95.568H604.571V101.04H595.067V95.568ZM593.483 94.656V93.488H606.235V94.656H593.483ZM594.187 91.424C596.875 91.072 599.115 89.552 599.115 87.84V87.264H600.619V87.84C600.619 89.52 602.875 91.088 605.531 91.424L605.003 92.56C602.763 92.24 600.779 91.168 599.867 89.648C598.971 91.168 596.971 92.24 594.731 92.56L594.187 91.424ZM596.507 99.872H603.131V98.224H596.507V99.872ZM617.627 87.104H619.067V101.216H617.627V87.104ZM608.315 97.616V88.48H609.771V96.368C611.803 96.352 613.963 96.192 616.235 95.712L616.427 96.944C613.979 97.456 611.707 97.616 609.515 97.616H608.315ZM631.115 87.104H632.555V92.848H634.619V94.064H632.555V101.216H631.115V87.104ZM621.339 97.264C623.387 95.12 624.155 92.656 624.283 89.808H621.835V88.608H625.659C625.659 92.128 625.035 95.36 622.491 98.112L621.339 97.264ZM625.355 98.208C627.435 95.744 628.043 92.816 628.155 89.808H626.123V88.608H629.531C629.531 92.176 629.083 95.952 626.523 99.024L625.355 98.208ZM638.94 100.288C638.412 100.288 638.044 99.92 638.044 99.376C638.044 98.864 638.412 98.496 638.94 98.496C639.468 98.496 639.82 98.864 639.82 99.376C639.82 99.92 639.468 100.288 638.94 100.288ZM635.596 90.608C636.172 89.072 637.66 88 639.212 88C641.42 88 642.892 89.472 642.796 91.552C642.732 92.64 642.172 93.696 640.684 94.816C639.852 95.424 639.644 95.856 639.66 97.056L638.22 97.088C638.204 95.472 638.652 94.512 639.82 93.664C641.02 92.768 641.308 92.192 641.356 91.488C641.42 90.272 640.524 89.44 639.212 89.44C638.252 89.44 637.324 90.128 636.94 91.12L635.596 90.608Z" fill="#42464A"/>
<rect x="409" y="124" width="136" height="52" rx="16" fill="#F86060"/>
<path d="M460.375 144.08C462.503 144.08 464.039 146.032 464.039 149.104C464.039 152.192 462.503 154.16 460.375 154.16C458.247 154.16 456.695 152.192 456.695 149.104C456.695 146.032 458.247 144.08 460.375 144.08ZM458.359 149.104C458.359 151.312 459.175 152.592 460.375 152.592C461.575 152.592 462.391 151.312 462.391 149.104C462.391 146.928 461.575 145.648 460.375 145.648C459.175 145.648 458.359 146.928 458.359 149.104ZM465.911 157.28V143.056H467.639V148.56H469.799V149.984H467.639V157.28H465.911ZM480.616 143.056H482.328V157.28H480.616V143.056ZM471.352 153.696V144.416H473.08V152.24C475.048 152.208 477.144 152.048 479.352 151.6L479.56 153.04C477.096 153.536 474.776 153.696 472.6 153.696H471.352ZM484.536 154.144H487.512V150.496C486.392 149.84 485.72 148.848 485.72 147.584C485.72 145.296 487.928 143.824 490.968 143.824C494.024 143.824 496.216 145.296 496.216 147.584C496.216 148.832 495.544 149.84 494.44 150.496V154.144H497.416V155.536H484.536V154.144ZM487.4 147.584C487.4 149.072 488.856 149.984 490.968 149.984C493.064 149.984 494.536 149.072 494.536 147.584C494.536 146.096 493.064 145.184 490.968 145.184C488.856 145.184 487.4 146.096 487.4 147.584ZM489.224 154.144H492.712V151.136C492.168 151.248 491.592 151.312 490.968 151.312C490.344 151.312 489.768 151.248 489.224 151.136V154.144Z" fill="white"/>
<rect x="562" y="124" width="136" height="52" rx="16" fill="#3D92F4"/>
<path d="M624.16 144.496H625.856V152.32C627.248 152.288 628.528 152.208 630 151.904L630.224 153.344C628.448 153.728 626.88 153.792 625.12 153.792H624.16V144.496ZM628.112 149.072V147.664H631.072V143.344H632.688V156.592H631.072V149.072H628.112ZM634.096 157.28V143.056H635.728V157.28H634.096Z" fill="white"/>
<path d="M35.3402 6.672L42.4682 24H40.5962L38.5562 19.008H30.1562L28.0682 24H26.1962L33.4202 6.672H35.3402ZM30.7802 17.472H37.9082L34.3802 8.88L30.7802 17.472ZM46.8917 21.912C47.5877 21.912 48.0677 22.392 48.0677 23.088C48.0677 23.808 47.5877 24.312 46.8917 24.312C46.1717 24.312 45.6677 23.808 45.6677 23.088C45.6677 22.392 46.1717 21.912 46.8917 21.912Z" fill="black"/>
<path d="M411.132 24V6.672H417.588C420.372 6.672 422.34 8.616 422.34 11.376C422.34 12.504 421.692 13.848 420.732 14.736L421.164 14.976C422.508 15.864 423.468 17.592 423.468 19.176C423.468 22.008 421.5 24 418.692 24H411.132ZM412.86 22.464H418.716C420.516 22.464 421.788 21.12 421.788 19.224C421.788 17.208 420.516 15.792 418.716 15.792H412.86V22.464ZM412.86 14.256H418.02C419.58 14.184 420.684 12.984 420.684 11.328C420.684 9.504 419.412 8.208 417.612 8.208H412.86V14.256ZM427.364 21.912C428.06 21.912 428.54 22.392 428.54 23.088C428.54 23.808 428.06 24.312 427.364 24.312C426.644 24.312 426.14 23.808 426.14 23.088C426.14 22.392 426.644 21.912 427.364 21.912Z" fill="black"/>
</svg>
