<svg width="722" height="219" viewBox="0 0 722 219" fill="none" xmlns="http://www.w3.org/2000/svg">
<rect x="0.5" y="41.5" width="336" height="177" rx="15.5" fill="white"/>
<rect x="0.5" y="41.5" width="336" height="177" rx="15.5" stroke="#D8D8D8"/>
<path d="M89.0478 87.104H90.5038V101.248H89.0478V87.104ZM79.8318 97.776V88.432H86.5358V89.648H81.2718V96.544C83.9438 96.544 85.6718 96.464 87.6558 96.08L87.7998 97.312C85.7038 97.712 83.8798 97.776 80.9838 97.776H79.8318ZM93.6881 88.464H100.248V97.728H93.6881V88.464ZM95.1281 96.544H98.8241V89.632H95.1281V96.544ZM103.032 101.248V87.088H104.488V101.248H103.032ZM108.249 88.464H118.201V89.856C118.201 91.6 118.201 93.552 117.689 96.432L116.217 96.272C116.745 93.536 116.745 91.552 116.745 89.856V89.664H108.249V88.464ZM106.905 99.312V98.096H111.769V93.104H113.225V98.096H119.673V99.312H106.905ZM131.513 87.104H132.905V101.216H131.513V87.104ZM121.049 93.2C121.049 90.144 122.233 88.24 124.057 88.24C125.753 88.24 126.905 89.872 127.065 92.528H128.681V87.408H130.057V100.528H128.681V93.728H127.065C126.937 96.496 125.785 98.176 124.057 98.176C122.233 98.176 121.049 96.272 121.049 93.2ZM122.377 93.2C122.377 95.472 123.017 96.8 124.057 96.8C125.113 96.8 125.753 95.472 125.753 93.2C125.753 90.944 125.113 89.616 124.057 89.616C123.017 89.616 122.377 90.944 122.377 93.2ZM148.689 87.12H150.145V94.688H148.689V87.12ZM138.849 91.024C138.849 89.104 140.417 87.776 142.561 87.776C144.705 87.776 146.273 89.104 146.273 91.024C146.273 92.96 144.705 94.304 142.561 94.304C140.417 94.304 138.849 92.96 138.849 91.024ZM140.273 91.024C140.273 92.256 141.233 93.072 142.561 93.072C143.889 93.072 144.849 92.256 144.849 91.024C144.849 89.808 143.889 88.976 142.561 88.976C141.233 88.976 140.273 89.808 140.273 91.024ZM140.993 101.04V95.376H142.449V96.976H148.705V95.376H150.145V101.04H140.993ZM142.449 99.872H148.705V98.128H142.449V99.872ZM152.577 88.544H156.017V87.024H157.473V88.544H160.913V89.712H152.577V88.544ZM153.345 92.944C153.345 91.392 154.721 90.368 156.737 90.368C158.769 90.368 160.145 91.392 160.145 92.944C160.145 94.496 158.769 95.488 156.737 95.488C154.721 95.488 153.345 94.496 153.345 92.944ZM154.321 97.84V96.656H163.537V101.232H162.065V97.84H154.321ZM154.737 92.944C154.737 93.808 155.537 94.384 156.737 94.384C157.937 94.384 158.737 93.808 158.737 92.944C158.737 92.048 157.937 91.504 156.737 91.504C155.537 91.504 154.737 92.048 154.737 92.944ZM162.065 95.936V87.12H163.537V90.944H165.569V92.16H163.537V95.936H162.065ZM175.986 87.12H177.442V92.848H179.682V94.064H177.442V101.232H175.986V87.12ZM166.45 90.512V89.328H169.906V87.296H171.394V89.328H174.77V90.512H166.45ZM167.202 94.864C167.202 92.944 168.674 91.6 170.658 91.6C172.674 91.6 174.13 92.944 174.13 94.864C174.13 96.784 172.674 98.128 170.658 98.128C168.674 98.128 167.202 96.784 167.202 94.864ZM168.594 94.864C168.594 96.096 169.458 96.928 170.658 96.928C171.858 96.928 172.738 96.096 172.738 94.864C172.738 93.648 171.858 92.8 170.658 92.8C169.458 92.8 168.594 93.648 168.594 94.864ZM184.146 88.304H185.618V90.704C185.618 93.296 187.17 95.904 189.314 96.88L188.45 98.048C186.834 97.264 185.57 95.664 184.914 93.712C184.258 95.792 182.962 97.504 181.282 98.32L180.402 97.12C182.578 96.112 184.146 93.408 184.146 90.704V88.304ZM190.61 101.248V87.088H192.066V101.248H190.61ZM200.706 88.128C200.706 89.184 200.53 90.16 200.178 91.04H202.226V87.408H203.586V95.024H202.226V92.224H199.57C198.674 93.616 197.266 94.72 195.346 95.552L194.61 94.464C197.394 93.344 198.914 91.616 199.186 89.328H195.234V88.128H200.706ZM195.282 100.096C197.074 99.44 198.082 97.936 198.082 96.56V95.712H199.49V96.56C199.49 97.808 200.066 99.088 201.33 99.856C202.626 99.008 203.25 97.632 203.25 96.56V95.712H204.674V96.56C204.674 98.048 205.65 99.504 207.458 100.096L206.754 101.168C205.378 100.656 204.434 99.696 203.938 98.512C203.522 99.664 202.69 100.736 201.378 101.28C200.034 100.752 199.186 99.744 198.754 98.576C198.258 99.712 197.33 100.656 196.002 101.168L195.282 100.096ZM205.026 95.232V87.104H206.434V95.232H205.026ZM210.067 95.568H211.507V97.104H218.131V95.568H219.571V101.04H210.067V95.568ZM208.483 94.656V93.488H221.235V94.656H208.483ZM209.187 91.424C211.875 91.072 214.115 89.552 214.115 87.84V87.264H215.619V87.84C215.619 89.52 217.875 91.088 220.531 91.424L220.003 92.56C217.763 92.24 215.779 91.168 214.867 89.648C213.971 91.168 211.971 92.24 209.731 92.56L209.187 91.424ZM211.507 99.872H218.131V98.224H211.507V99.872ZM232.627 87.104H234.067V101.216H232.627V87.104ZM223.315 97.616V88.48H224.771V96.368C226.803 96.352 228.963 96.192 231.235 95.712L231.427 96.944C228.979 97.456 226.707 97.616 224.515 97.616H223.315ZM246.115 87.104H247.555V92.848H249.619V94.064H247.555V101.216H246.115V87.104ZM236.339 97.264C238.387 95.12 239.155 92.656 239.283 89.808H236.835V88.608H240.659C240.659 92.128 240.035 95.36 237.491 98.112L236.339 97.264ZM240.355 98.208C242.435 95.744 243.043 92.816 243.155 89.808H241.123V88.608H244.531C244.531 92.176 244.083 95.952 241.523 99.024L240.355 98.208ZM253.94 100.288C253.412 100.288 253.044 99.92 253.044 99.376C253.044 98.864 253.412 98.496 253.94 98.496C254.468 98.496 254.82 98.864 254.82 99.376C254.82 99.92 254.468 100.288 253.94 100.288ZM250.596 90.608C251.172 89.072 252.66 88 254.212 88C256.42 88 257.892 89.472 257.796 91.552C257.732 92.64 257.172 93.696 255.684 94.816C254.852 95.424 254.644 95.856 254.66 97.056L253.22 97.088C253.204 95.472 253.652 94.512 254.82 93.664C256.02 92.768 256.308 92.192 256.356 91.488C256.42 90.272 255.524 89.44 254.212 89.44C253.252 89.44 252.324 90.128 251.94 91.12L250.596 90.608Z" fill="#42464A"/>
<rect x="24" y="124" width="136" height="52" rx="16" fill="#F86060"/>
<path d="M65.4713 144.544H68.3833V143.088H70.1113V144.544H73.0553V145.888H70.1113C70.1273 147.136 71.2793 148.24 73.3433 148.672L72.6553 150C71.0553 149.664 69.9033 148.88 69.2953 147.872C68.6713 148.992 67.5033 149.824 65.8233 150.192L65.1193 148.864C67.2473 148.416 68.3833 147.216 68.3993 145.888H65.4713V144.544ZM64.5753 150.96C67.1993 150.96 70.7193 150.944 73.7433 150.528L73.8553 151.792C72.6233 152 71.3593 152.144 70.1113 152.224V156.864H68.3833V152.32C67.0873 152.368 65.8713 152.384 64.7833 152.384L64.5753 150.96ZM74.6553 157.28V143.056H76.3513V157.28H74.6553ZM78.5596 154.112H84.0956V150.832H85.7916V154.112H91.4396V155.52H78.5596V154.112ZM78.9596 149.728C81.8716 149.232 84.0316 147.088 84.0316 144.96V143.904H85.8556V144.96C85.8556 147.12 88.0156 149.232 90.9436 149.728L90.2076 151.168C87.8236 150.704 85.8716 149.312 84.9436 147.44C83.9996 149.296 82.0476 150.704 79.6636 151.168L78.9596 149.728ZM101.888 143.056H103.616V148.736H105.776V150.16H103.616V157.28H101.888V143.056ZM92.464 146.608V145.232H95.808V143.264H97.552V145.232H100.816V146.608H92.464ZM93.136 150.912C93.136 148.96 94.656 147.584 96.688 147.584C98.736 147.584 100.224 148.96 100.224 150.912C100.224 152.88 98.736 154.256 96.688 154.256C94.656 154.256 93.136 152.88 93.136 150.912ZM94.784 150.912C94.784 152.096 95.568 152.848 96.688 152.848C97.776 152.848 98.576 152.096 98.576 150.912C98.576 149.744 97.776 148.992 96.688 148.992C95.568 148.992 94.784 149.744 94.784 150.912ZM116.56 143.056H118.288V157.28H116.56V143.056ZM106.608 153.408C110.32 151.616 112.032 149.184 112.32 145.92H107.328V144.544H114.08C114.08 148.8 112.448 152.384 107.52 154.768L106.608 153.408Z" fill="white"/>
<rect x="177" y="124" width="136" height="52" rx="16" fill="#3D92F4"/>
<path d="M227.591 143.056H229.303V150.688H227.591V143.056ZM217.831 146.992C217.831 145.056 219.431 143.696 221.623 143.696C223.799 143.696 225.415 145.056 225.415 146.992C225.415 148.96 223.799 150.32 221.623 150.32C219.431 150.32 217.831 148.96 217.831 146.992ZM219.511 146.992C219.511 148.16 220.391 148.896 221.623 148.896C222.855 148.896 223.735 148.16 223.735 146.992C223.735 145.856 222.855 145.104 221.623 145.104C220.391 145.104 219.511 145.856 219.511 146.992ZM219.991 157.104V151.36H221.687V152.848H227.607V151.36H229.303V157.104H219.991ZM221.687 155.728H227.607V154.176H221.687V155.728ZM231.576 144.416H234.92V142.976H236.632V144.416H239.96V145.776H231.576V144.416ZM232.328 148.96C232.328 147.392 233.736 146.336 235.768 146.336C237.816 146.336 239.24 147.392 239.24 148.96C239.24 150.512 237.816 151.536 235.768 151.536C233.736 151.536 232.328 150.512 232.328 148.96ZM233.32 154.016V152.624H242.696V157.28H240.968V154.016H233.32ZM233.96 148.96C233.96 149.76 234.696 150.24 235.768 150.24C236.856 150.24 237.576 149.76 237.576 148.96C237.576 148.128 236.856 147.664 235.768 147.664C234.696 147.664 233.96 148.128 233.96 148.96ZM240.968 151.968V143.056H242.696V146.832H244.664V148.256H242.696V151.968H240.968ZM254.888 143.056H256.616V148.736H258.776V150.16H256.616V157.28H254.888V143.056ZM245.464 146.608V145.232H248.808V143.264H250.552V145.232H253.816V146.608H245.464ZM246.136 150.912C246.136 148.96 247.656 147.584 249.688 147.584C251.736 147.584 253.224 148.96 253.224 150.912C253.224 152.88 251.736 154.256 249.688 154.256C247.656 154.256 246.136 152.88 246.136 150.912ZM247.784 150.912C247.784 152.096 248.568 152.848 249.688 152.848C250.776 152.848 251.576 152.096 251.576 150.912C251.576 149.744 250.776 148.992 249.688 148.992C248.568 148.992 247.784 149.744 247.784 150.912ZM269.56 143.056H271.288V157.28H269.56V143.056ZM259.608 153.408C263.32 151.616 265.032 149.184 265.32 145.92H260.328V144.544H267.08C267.08 148.8 265.448 152.384 260.52 154.768L259.608 153.408Z" fill="white"/>
<rect x="385.5" y="41.5" width="336" height="177" rx="15.5" fill="white"/>
<rect x="385.5" y="41.5" width="336" height="177" rx="15.5" stroke="#D8D8D8"/>
<path d="M475.504 87.104V101.248H474.048V87.104H475.504ZM464.832 88.432H471.536V89.648H466.272V96.544C467.701 96.544 468.885 96.512 469.824 96.448C470.762 96.384 471.706 96.2613 472.656 96.08L472.8 97.312C471.808 97.504 470.816 97.632 469.824 97.696C468.842 97.7493 467.562 97.776 465.984 97.776H464.832V88.432ZM485.248 88.464V97.728H478.688V88.464H485.248ZM483.824 96.544V89.632H480.128V96.544H483.824ZM488.032 87.088H489.488V101.248H488.032V87.088ZM503.201 88.464V89.856C503.201 91.0507 503.169 92.128 503.105 93.088C503.051 94.048 502.913 95.1627 502.689 96.432L501.217 96.272C501.451 95.0667 501.595 93.9893 501.649 93.04C501.713 92.0907 501.745 91.0293 501.745 89.856V89.664H493.249V88.464H503.201ZM491.905 98.096H496.769V93.104H498.225V98.096H504.673V99.312H491.905V98.096ZM517.905 87.104V101.216H516.513V87.104H517.905ZM506.049 93.2C506.049 92.1973 506.172 91.3227 506.417 90.576C506.662 89.8187 507.009 89.2427 507.457 88.848C507.916 88.4427 508.449 88.24 509.057 88.24C509.91 88.24 510.604 88.624 511.137 89.392C511.681 90.16 511.99 91.2053 512.065 92.528H513.681V87.408H515.057V100.528H513.681V93.728H512.065C512.001 95.104 511.697 96.192 511.153 96.992C510.62 97.7813 509.921 98.176 509.057 98.176C508.449 98.176 507.916 97.9733 507.457 97.568C507.009 97.1627 506.662 96.5867 506.417 95.84C506.172 95.0933 506.049 94.2133 506.049 93.2ZM507.377 93.2C507.377 94.3307 507.526 95.216 507.825 95.856C508.124 96.4853 508.534 96.8 509.057 96.8C509.59 96.8 510.006 96.4853 510.305 95.856C510.604 95.216 510.753 94.3307 510.753 93.2C510.753 92.08 510.604 91.2053 510.305 90.576C510.006 89.936 509.59 89.616 509.057 89.616C508.534 89.616 508.124 89.936 507.825 90.576C507.526 91.2053 507.377 92.08 507.377 93.2ZM535.145 87.12V94.688H533.689V87.12H535.145ZM523.849 91.024C523.849 90.3947 524.009 89.8347 524.329 89.344C524.649 88.8427 525.091 88.4587 525.657 88.192C526.222 87.9147 526.857 87.776 527.561 87.776C528.265 87.776 528.899 87.9147 529.465 88.192C530.03 88.4587 530.473 88.8427 530.793 89.344C531.113 89.8347 531.273 90.3947 531.273 91.024C531.273 91.664 531.113 92.2347 530.793 92.736C530.473 93.2267 530.03 93.6107 529.465 93.888C528.899 94.1653 528.265 94.304 527.561 94.304C526.857 94.304 526.222 94.1653 525.657 93.888C525.091 93.6107 524.649 93.2267 524.329 92.736C524.009 92.2347 523.849 91.664 523.849 91.024ZM525.273 91.024C525.273 91.632 525.486 92.128 525.913 92.512C526.339 92.8853 526.889 93.072 527.561 93.072C528.233 93.072 528.782 92.8853 529.209 92.512C529.635 92.128 529.849 91.632 529.849 91.024C529.849 90.416 529.635 89.9253 529.209 89.552C528.782 89.168 528.233 88.976 527.561 88.976C526.889 88.976 526.339 89.168 525.913 89.552C525.486 89.9253 525.273 90.416 525.273 91.024ZM525.993 95.376H527.449V96.976H533.705V95.376H535.145V101.04H525.993V95.376ZM533.705 99.872V98.128H527.449V99.872H533.705ZM541.017 88.544V87.024H542.473V88.544H545.913V89.712H537.577V88.544H541.017ZM538.345 92.944C538.345 92.432 538.484 91.984 538.761 91.6C539.049 91.2053 539.449 90.9013 539.961 90.688C540.484 90.4747 541.076 90.368 541.737 90.368C542.409 90.368 543.001 90.4747 543.513 90.688C544.036 90.9013 544.436 91.2053 544.713 91.6C545.001 91.984 545.145 92.432 545.145 92.944C545.145 93.712 544.83 94.3307 544.201 94.8C543.582 95.2587 542.761 95.488 541.737 95.488C540.724 95.488 539.902 95.2587 539.273 94.8C538.654 94.3307 538.345 93.712 538.345 92.944ZM539.321 96.656H548.537V101.232H547.065V97.84H539.321V96.656ZM539.737 92.944C539.737 93.3707 539.918 93.7173 540.281 93.984C540.654 94.2507 541.14 94.384 541.737 94.384C542.334 94.384 542.814 94.2507 543.177 93.984C543.55 93.7173 543.737 93.3707 543.737 92.944C543.737 92.496 543.556 92.144 543.193 91.888C542.83 91.632 542.345 91.504 541.737 91.504C541.129 91.504 540.644 91.632 540.281 91.888C539.918 92.144 539.737 92.496 539.737 92.944ZM547.065 87.12H548.537V90.944H550.569V92.16H548.537V95.936H547.065V87.12ZM562.442 87.12V92.848H564.682V94.064H562.442V101.232H560.986V87.12H562.442ZM551.45 89.328H554.906V87.296H556.394V89.328H559.77V90.512H551.45V89.328ZM552.202 94.864C552.202 94.2347 552.351 93.6747 552.65 93.184C552.948 92.6827 553.359 92.2933 553.882 92.016C554.415 91.7387 555.007 91.6 555.658 91.6C556.319 91.6 556.911 91.7387 557.434 92.016C557.967 92.2933 558.383 92.6827 558.682 93.184C558.98 93.6747 559.13 94.2347 559.13 94.864C559.13 95.4933 558.98 96.0587 558.682 96.56C558.383 97.0507 557.967 97.4347 557.434 97.712C556.911 97.9893 556.319 98.128 555.658 98.128C555.007 98.128 554.415 97.9893 553.882 97.712C553.359 97.4347 552.948 97.0507 552.65 96.56C552.351 96.0587 552.202 95.4933 552.202 94.864ZM553.594 94.864C553.594 95.472 553.786 95.968 554.17 96.352C554.554 96.736 555.05 96.928 555.658 96.928C556.266 96.928 556.762 96.736 557.146 96.352C557.54 95.968 557.738 95.472 557.738 94.864C557.738 94.256 557.54 93.76 557.146 93.376C556.762 92.992 556.266 92.8 555.658 92.8C555.06 92.8 554.564 92.992 554.17 93.376C553.786 93.76 553.594 94.256 553.594 94.864ZM570.618 88.304V90.704C570.618 91.5573 570.778 92.4 571.098 93.232C571.418 94.0533 571.855 94.7893 572.41 95.44C572.975 96.08 573.61 96.56 574.314 96.88L573.45 98.048C572.65 97.664 571.941 97.0933 571.322 96.336C570.714 95.568 570.245 94.6933 569.914 93.712C569.583 94.768 569.103 95.7013 568.474 96.512C567.845 97.312 567.114 97.9147 566.282 98.32L565.402 97.12C566.117 96.7893 566.757 96.2933 567.322 95.632C567.898 94.96 568.346 94.192 568.666 93.328C568.986 92.464 569.146 91.5893 569.146 90.704V88.304H570.618ZM575.61 87.088H577.066V101.248H575.61V87.088ZM585.706 88.128C585.706 89.184 585.53 90.1547 585.178 91.04H587.226V87.408H588.586V95.024H587.226V92.224H584.57C583.674 93.6107 582.266 94.72 580.346 95.552L579.61 94.464C582.384 93.344 583.909 91.632 584.186 89.328H580.234V88.128H585.706ZM580.282 100.096C581.146 99.776 581.829 99.2853 582.33 98.624C582.832 97.9627 583.082 97.2747 583.082 96.56V95.712H584.49V96.56C584.49 97.2107 584.645 97.8293 584.954 98.416C585.264 99.0027 585.722 99.4827 586.33 99.856C586.949 99.4507 587.424 98.944 587.754 98.336C588.085 97.728 588.25 97.136 588.25 96.56V95.712H589.674V96.56C589.674 97.328 589.92 98.0373 590.41 98.688C590.901 99.3387 591.584 99.808 592.458 100.096L591.754 101.168C591.082 100.923 590.506 100.571 590.026 100.112C589.557 99.6533 589.194 99.12 588.938 98.512C588.714 99.12 588.389 99.6693 587.962 100.16C587.536 100.651 587.008 101.024 586.378 101.28C585.728 101.024 585.184 100.661 584.746 100.192C584.309 99.7227 583.978 99.184 583.754 98.576C583.498 99.1627 583.136 99.68 582.666 100.128C582.208 100.576 581.653 100.923 581.002 101.168L580.282 100.096ZM590.026 87.104H591.434V95.232H590.026V87.104ZM596.507 95.568V97.104H603.131V95.568H604.571V101.04H595.067V95.568H596.507ZM593.483 93.488H606.235V94.656H593.483V93.488ZM594.187 91.424C595.083 91.3067 595.904 91.072 596.651 90.72C597.408 90.368 598.005 89.9413 598.443 89.44C598.891 88.928 599.115 88.3947 599.115 87.84V87.264H600.619V87.84C600.619 88.384 600.843 88.912 601.291 89.424C601.739 89.936 602.336 90.3733 603.083 90.736C603.84 91.088 604.656 91.3173 605.531 91.424L605.003 92.56C603.872 92.4 602.843 92.064 601.915 91.552C600.997 91.0293 600.315 90.3947 599.867 89.648C599.429 90.3947 598.747 91.0293 597.819 91.552C596.901 92.064 595.872 92.4 594.731 92.56L594.187 91.424ZM603.131 99.872V98.224H596.507V99.872H603.131ZM619.067 87.104V101.216H617.627V87.104H619.067ZM608.315 88.48H609.771V96.368C612.096 96.3467 614.251 96.128 616.235 95.712L616.427 96.944C614.283 97.392 611.979 97.616 609.515 97.616H608.315V88.48ZM632.555 87.104V92.848H634.619V94.064H632.555V101.216H631.115V87.104H632.555ZM621.339 97.264C622.321 96.24 623.041 95.12 623.499 93.904C623.958 92.6773 624.219 91.312 624.283 89.808H621.835V88.608H625.659C625.659 90.56 625.425 92.3093 624.955 93.856C624.497 95.4027 623.675 96.8213 622.491 98.112L621.339 97.264ZM625.355 98.208C626.326 97.056 627.019 95.7867 627.435 94.4C627.851 93.0133 628.091 91.4827 628.155 89.808H626.123V88.608H629.531C629.531 90.72 629.323 92.6347 628.907 94.352C628.491 96.0587 627.697 97.616 626.523 99.024L625.355 98.208ZM638.94 100.288C638.673 100.288 638.454 100.203 638.284 100.032C638.124 99.8613 638.044 99.6427 638.044 99.376C638.044 99.12 638.124 98.912 638.284 98.752C638.454 98.5813 638.673 98.496 638.94 98.496C639.206 98.496 639.42 98.5813 639.58 98.752C639.74 98.912 639.82 99.12 639.82 99.376C639.82 99.6533 639.74 99.872 639.58 100.032C639.42 100.203 639.206 100.288 638.94 100.288ZM635.596 90.608C635.884 89.84 636.364 89.216 637.036 88.736C637.708 88.2453 638.433 88 639.212 88C639.916 88 640.54 88.144 641.084 88.432C641.628 88.7093 642.049 89.104 642.348 89.616C642.646 90.128 642.796 90.7093 642.796 91.36C642.796 91.968 642.63 92.5547 642.3 93.12C641.98 93.6853 641.441 94.2507 640.684 94.816C640.268 95.1253 639.99 95.4293 639.852 95.728C639.713 96.016 639.649 96.4587 639.66 97.056L638.22 97.088C638.209 96.2773 638.326 95.6107 638.572 95.088C638.817 94.5653 639.233 94.0907 639.82 93.664C640.417 93.216 640.822 92.8213 641.036 92.48C641.249 92.1387 641.356 91.7653 641.356 91.36C641.356 90.7947 641.153 90.336 640.748 89.984C640.353 89.6213 639.841 89.44 639.212 89.44C638.732 89.44 638.278 89.5947 637.852 89.904C637.436 90.2133 637.132 90.6187 636.94 91.12L635.596 90.608Z" fill="#42464A"/>
<rect x="409" y="124" width="136" height="52" rx="16" fill="#3D92F4"/>
<path d="M450.471 144.544H453.383V143.088H455.111V144.544H458.055V145.888H455.111C455.127 147.136 456.279 148.24 458.343 148.672L457.655 150C456.055 149.664 454.903 148.88 454.295 147.872C453.671 148.992 452.503 149.824 450.823 150.192L450.119 148.864C452.247 148.416 453.383 147.216 453.399 145.888H450.471V144.544ZM449.575 150.96C452.199 150.96 455.719 150.944 458.743 150.528L458.855 151.792C457.623 152 456.359 152.144 455.111 152.224V156.864H453.383V152.32C452.087 152.368 450.871 152.384 449.783 152.384L449.575 150.96ZM459.655 157.28V143.056H461.351V157.28H459.655ZM463.56 154.112H469.096V150.832H470.792V154.112H476.44V155.52H463.56V154.112ZM463.96 149.728C466.872 149.232 469.032 147.088 469.032 144.96V143.904H470.856V144.96C470.856 147.12 473.016 149.232 475.944 149.728L475.208 151.168C472.824 150.704 470.872 149.312 469.944 147.44C469 149.296 467.048 150.704 464.664 151.168L463.96 149.728ZM486.888 143.056H488.616V148.736H490.776V150.16H488.616V157.28H486.888V143.056ZM477.464 146.608V145.232H480.808V143.264H482.552V145.232H485.816V146.608H477.464ZM478.136 150.912C478.136 148.96 479.656 147.584 481.688 147.584C483.736 147.584 485.224 148.96 485.224 150.912C485.224 152.88 483.736 154.256 481.688 154.256C479.656 154.256 478.136 152.88 478.136 150.912ZM479.784 150.912C479.784 152.096 480.568 152.848 481.688 152.848C482.776 152.848 483.576 152.096 483.576 150.912C483.576 149.744 482.776 148.992 481.688 148.992C480.568 148.992 479.784 149.744 479.784 150.912ZM501.56 143.056H503.288V157.28H501.56V143.056ZM491.608 153.408C495.32 151.616 497.032 149.184 497.32 145.92H492.328V144.544H499.08C499.08 148.8 497.448 152.384 492.52 154.768L491.608 153.408Z" fill="white"/>
<rect x="562" y="124" width="136" height="52" rx="16" fill="#3D92F4"/>
<path d="M612.591 143.056H614.303V150.688H612.591V143.056ZM602.831 146.992C602.831 145.056 604.431 143.696 606.623 143.696C608.799 143.696 610.415 145.056 610.415 146.992C610.415 148.96 608.799 150.32 606.623 150.32C604.431 150.32 602.831 148.96 602.831 146.992ZM604.511 146.992C604.511 148.16 605.391 148.896 606.623 148.896C607.855 148.896 608.735 148.16 608.735 146.992C608.735 145.856 607.855 145.104 606.623 145.104C605.391 145.104 604.511 145.856 604.511 146.992ZM604.991 157.104V151.36H606.687V152.848H612.607V151.36H614.303V157.104H604.991ZM606.687 155.728H612.607V154.176H606.687V155.728ZM616.576 144.416H619.92V142.976H621.632V144.416H624.96V145.776H616.576V144.416ZM617.328 148.96C617.328 147.392 618.736 146.336 620.768 146.336C622.816 146.336 624.24 147.392 624.24 148.96C624.24 150.512 622.816 151.536 620.768 151.536C618.736 151.536 617.328 150.512 617.328 148.96ZM618.32 154.016V152.624H627.696V157.28H625.968V154.016H618.32ZM618.96 148.96C618.96 149.76 619.696 150.24 620.768 150.24C621.856 150.24 622.576 149.76 622.576 148.96C622.576 148.128 621.856 147.664 620.768 147.664C619.696 147.664 618.96 148.128 618.96 148.96ZM625.968 151.968V143.056H627.696V146.832H629.664V148.256H627.696V151.968H625.968ZM639.888 143.056H641.616V148.736H643.776V150.16H641.616V157.28H639.888V143.056ZM630.464 146.608V145.232H633.808V143.264H635.552V145.232H638.816V146.608H630.464ZM631.136 150.912C631.136 148.96 632.656 147.584 634.688 147.584C636.736 147.584 638.224 148.96 638.224 150.912C638.224 152.88 636.736 154.256 634.688 154.256C632.656 154.256 631.136 152.88 631.136 150.912ZM632.784 150.912C632.784 152.096 633.568 152.848 634.688 152.848C635.776 152.848 636.576 152.096 636.576 150.912C636.576 149.744 635.776 148.992 634.688 148.992C633.568 148.992 632.784 149.744 632.784 150.912ZM654.56 143.056H656.288V157.28H654.56V143.056ZM644.608 153.408C648.32 151.616 650.032 149.184 650.32 145.92H645.328V144.544H652.08C652.08 148.8 650.448 152.384 645.52 154.768L644.608 153.408Z" fill="white"/>
<path d="M35.3402 6.672L42.4682 24H40.5962L38.5562 19.008H30.1562L28.0682 24H26.1962L33.4202 6.672H35.3402ZM30.7802 17.472H37.9082L34.3802 8.88L30.7802 17.472ZM46.8917 21.912C47.5877 21.912 48.0677 22.392 48.0677 23.088C48.0677 23.808 47.5877 24.312 46.8917 24.312C46.1717 24.312 45.6677 23.808 45.6677 23.088C45.6677 22.392 46.1717 21.912 46.8917 21.912Z" fill="black"/>
<path d="M411.132 24V6.672H417.588C420.372 6.672 422.34 8.616 422.34 11.376C422.34 12.504 421.692 13.848 420.732 14.736L421.164 14.976C422.508 15.864 423.468 17.592 423.468 19.176C423.468 22.008 421.5 24 418.692 24H411.132ZM412.86 22.464H418.716C420.516 22.464 421.788 21.12 421.788 19.224C421.788 17.208 420.516 15.792 418.716 15.792H412.86V22.464ZM412.86 14.256H418.02C419.58 14.184 420.684 12.984 420.684 11.328C420.684 9.504 419.412 8.208 417.612 8.208H412.86V14.256ZM427.364 21.912C428.06 21.912 428.54 22.392 428.54 23.088C428.54 23.808 428.06 24.312 427.364 24.312C426.644 24.312 426.14 23.808 426.14 23.088C426.14 22.392 426.644 21.912 427.364 21.912Z" fill="black"/>
</svg>
